<svg width="14" height="14" viewBox="0 0 14 14" fill="none" xmlns="http://www.w3.org/2000/svg">
<path d="M6.875 0C5.51526 0 4.18604 0.403212 3.05546 1.15865C1.92487 1.91408 1.04368 2.98781 0.523331 4.24405C0.00297885 5.50029 -0.133169 6.88263 0.132104 8.21624C0.397378 9.54986 1.05216 10.7749 2.01364 11.7364C2.97513 12.6978 4.20014 13.3526 5.53376 13.6179C6.86738 13.8832 8.24971 13.747 9.50595 13.2267C10.7622 12.7063 11.8359 11.8251 12.5914 10.6945C13.3468 9.56396 13.75 8.23475 13.75 6.875C13.7479 5.0523 13.0228 3.30486 11.734 2.01602C10.4451 0.727169 8.6977 0.00215029 6.875 0ZM10 7.5H7.5V10C7.5 10.1658 7.43415 10.3247 7.31694 10.4419C7.19973 10.5592 7.04076 10.625 6.875 10.625C6.70924 10.625 6.55027 10.5592 6.43306 10.4419C6.31585 10.3247 6.25 10.1658 6.25 10V7.5H3.75C3.58424 7.5 3.42527 7.43415 3.30806 7.31694C3.19085 7.19973 3.125 7.04076 3.125 6.875C3.125 6.70924 3.19085 6.55027 3.30806 6.43306C3.42527 6.31585 3.58424 6.25 3.75 6.25H6.25V3.75C6.25 3.58424 6.31585 3.42527 6.43306 3.30806C6.55027 3.19085 6.70924 3.125 6.875 3.125C7.04076 3.125 7.19973 3.19085 7.31694 3.30806C7.43415 3.42527 7.5 3.58424 7.5 3.75V6.25H10C10.1658 6.25 10.3247 6.31585 10.4419 6.43306C10.5592 6.55027 10.625 6.70924 10.625 6.875C10.625 7.04076 10.5592 7.19973 10.4419 7.31694C10.3247 7.43415 10.1658 7.5 10 7.5Z" fill="#DB2302"/>
</svg>
