<svg height="512" viewBox="0 0 32 32" width="512" xmlns="http://www.w3.org/2000/svg"><g id="_x31_1"><path d="m30 9c0-3.859375-3.1401367-7-7-7-2.8247681 0-5.2580566 1.6853027-6.3632202 4.1001587l-2.2232056-1.0103149c-.2626953-.1191406-.5644531-.1191406-.8271484 0l-11 5c-.3574219.1621093-.5864258.5175781-.5864258.9101562v13c0 .3925781.2290039.7480469.5864258.9101563l11 5c.1313476.0595703.2724609.0898437.4135742.0898437s.2822266-.0302734.4135742-.0898438l11-5c.3574219-.1621093.5864258-.5175781.5864258-.9101562v-8.6851196c2.3607788-1.1264038 4-3.5299073 4-6.3148804zm-16-1.9013672 2.0736694.9419556c-.043396.3145141-.0736694.6331177-.0736694.9594116 0 1.6268921.5627441 3.1221924 1.4974365 4.3121948l-3.4974365 1.5891724-8.5834961-3.9013672zm-10 5.4540405 9 4.0909424v10.8032837l-9-4.0904541zm20 10.803772-9 4.0904541v-10.8032837l4.0744019-1.8517456c1.1203613.7618408 2.4716186 1.2081299 3.9255981 1.2081299.3403931 0 .6724854-.0327148 1-.079895zm-1-9.3564453c-2.7568359 0-5-2.2431641-5-5s2.2431641-5 5-5 5 2.2431641 5 5-2.2431641 5-5 5z"/><path d="m26 8h-2v-2c0-.5527344-.4477539-1-1-1s-1 .4472656-1 1v2h-2c-.5522461 0-1 .4472656-1 1s.4477539 1 1 1h2v2c0 .5527344.4477539 1 1 1s1-.4472656 1-1v-2h2c.5522461 0 1-.4472656 1-1s-.4477539-1-1-1z"/></g></svg>