<svg width="14" height="14" viewBox="0 0 14 14" fill="none" xmlns="http://www.w3.org/2000/svg">
<g clip-path="url(#clip0_2_1030)">
<path d="M12.4661 5.62197H8.31074C8.24591 5.62197 8.18374 5.59622 8.1379 5.55038C8.09206 5.50454 8.06631 5.44237 8.06631 5.37754V1.22217C8.06631 0.547226 7.51908 0 6.84414 0C6.1692 0 5.62197 0.547226 5.62197 1.22217V5.37754C5.62197 5.44237 5.59622 5.50454 5.55038 5.55038C5.50454 5.59622 5.44237 5.62197 5.37754 5.62197H1.22217C0.547226 5.62197 0 6.1692 0 6.84414C0 7.51908 0.547226 8.06631 1.22217 8.06631H5.37754C5.44237 8.06631 5.50454 8.09206 5.55038 8.1379C5.59622 8.18374 5.62197 8.24591 5.62197 8.31074V12.4661C5.62197 13.1411 6.1692 13.6883 6.84414 13.6883C7.51908 13.6883 8.06631 13.1411 8.06631 12.4661V8.31074C8.06631 8.24591 8.09206 8.18374 8.1379 8.1379C8.18374 8.09206 8.24591 8.06631 8.31074 8.06631H12.4661C13.1411 8.06631 13.6883 7.51908 13.6883 6.84414C13.6883 6.1692 13.1411 5.62197 12.4661 5.62197Z" fill="#DB2302"/>
</g>
<defs>
<clipPath id="clip0_2_1030">
<rect width="13.6883" height="13.6883" fill="white"/>
</clipPath>
</defs>
</svg>
