<svg width="25" height="25" viewBox="0 0 25 25" fill="none" xmlns="http://www.w3.org/2000/svg">
<path fill-rule="evenodd" clip-rule="evenodd" d="M12.5 21.875C11.464 21.875 10.4704 21.4634 9.73786 20.7309C9.0053 19.9983 8.59375 19.0048 8.59375 17.9688V5.46719C8.59396 4.84606 8.84079 4.25044 9.27999 3.81124C9.71919 3.37204 10.3148 3.12521 10.9359 3.125H10.9391C11.5602 3.125 12.156 3.37177 12.5952 3.81101C13.0345 4.25026 13.2812 4.846 13.2812 5.46719V16.4078C13.2812 16.5102 13.2611 16.6116 13.2219 16.7062C13.1827 16.8008 13.1253 16.8867 13.0529 16.9591C12.9805 17.0315 12.8945 17.089 12.7999 17.1281C12.7053 17.1673 12.604 17.1875 12.5016 17.1875H12.5C12.2928 17.1875 12.0941 17.1052 11.9476 16.9587C11.8011 16.8122 11.7188 16.6135 11.7188 16.4062V7.03125C11.7188 6.82405 11.6364 6.62534 11.4899 6.47882C11.3434 6.33231 11.1447 6.25 10.9375 6.25C10.7303 6.25 10.5316 6.33231 10.3851 6.47882C10.2386 6.62534 10.1562 6.82405 10.1562 7.03125V16.4062C10.1562 17.0279 10.4032 17.624 10.8427 18.0635C11.2823 18.5031 11.8784 18.75 12.5 18.75H12.5016C12.8091 18.75 13.1137 18.6894 13.3979 18.5717C13.682 18.454 13.9402 18.2815 14.1577 18.064C14.3752 17.8465 14.5478 17.5883 14.6655 17.3041C14.7832 17.02 14.8438 16.7154 14.8438 16.4078V5.46719C14.8438 4.4316 14.4324 3.43843 13.7001 2.70616C12.9678 1.97389 11.9746 1.5625 10.9391 1.5625H10.9359C9.90048 1.56291 8.90755 1.97443 8.17536 2.70661C7.44318 3.43879 7.03166 4.43173 7.03125 5.46719V17.9688C7.03125 19.4192 7.60742 20.8102 8.63301 21.8357C9.6586 22.8613 11.0496 23.4375 12.5 23.4375C13.9504 23.4375 15.3414 22.8613 16.367 21.8357C17.3926 20.8102 17.9688 19.4192 17.9688 17.9688V7.03125C17.9688 6.82405 17.8864 6.62534 17.7399 6.47882C17.5934 6.33231 17.3947 6.25 17.1875 6.25C16.9803 6.25 16.7816 6.33231 16.6351 6.47882C16.4886 6.62534 16.4062 6.82405 16.4062 7.03125V17.9688C16.4062 19.0048 15.9947 19.9983 15.2621 20.7309C14.5296 21.4634 13.536 21.875 12.5 21.875Z" fill="#BBC3D2"/>
</svg>
