<svg width="26" height="29" viewBox="0 0 26 29" fill="none" xmlns="http://www.w3.org/2000/svg">
<path d="M19.9375 7.5H19.6875V7.25C19.6875 5.31505 19.0059 3.66996 17.6367 2.3008C16.2675 0.931635 14.6225 0.25 12.6875 0.25C10.7525 0.25 9.10746 0.931635 7.7383 2.3008C6.36914 3.66996 5.6875 5.31505 5.6875 7.25V7.5H5.4375H0.25V24.4688C0.25 25.648 0.666972 26.6513 1.50783 27.4922C2.34869 28.333 3.35199 28.75 4.53125 28.75H20.8438C22.023 28.75 23.0263 28.333 23.8672 27.4922C24.708 26.6513 25.125 25.648 25.125 24.4688V7.5H19.9375ZM8.15625 7.5H7.90625V7.25C7.90625 5.93707 8.37665 4.80691 9.31053 3.87303C10.2444 2.93915 11.3746 2.46875 12.6875 2.46875C13.943 2.46875 14.8795 2.68804 15.3989 3.2075L15.8981 3.70665L16.0229 3.83143L16.0541 3.86263L16.0619 3.87043L16.0638 3.87238L16.0643 3.87287L16.0644 3.87299L16.0645 3.87302L15.8877 4.0498L16.0645 3.87303C16.9984 4.80691 17.4688 5.93707 17.4688 7.25V7.5H17.2188H8.15625ZM22.6562 9.71875H22.9062V9.96875V24.4688C22.9062 25.0284 22.6988 25.5161 22.2949 25.9199C21.8911 26.3238 21.4034 26.5312 20.8438 26.5312H4.53125C3.97162 26.5312 3.48391 26.3238 3.08006 25.9199C2.6762 25.5161 2.46875 25.0284 2.46875 24.4688V9.96875V9.71875H2.71875H5.4375H5.6875V9.96875V12.2344C5.6875 12.5464 5.79385 12.8036 6.01076 13.0205C6.22767 13.2374 6.48482 13.3438 6.79688 13.3438C7.10893 13.3438 7.36608 13.2374 7.58299 13.0205C7.7999 12.8036 7.90625 12.5464 7.90625 12.2344V9.96875V9.71875H8.15625H17.2188H17.4688V9.96875V12.2344C17.4688 12.5464 17.5751 12.8036 17.792 13.0205C18.0089 13.2374 18.2661 13.3438 18.5781 13.3438C18.8902 13.3438 19.1473 13.2374 19.3642 13.0205C19.5811 12.8036 19.6875 12.5464 19.6875 12.2344V9.96875V9.71875H19.9375H22.6562Z" fill="white" stroke="#022335" stroke-width="0.5"/>
</svg>
