<svg width="8" height="8" viewBox="0 0 8 8" fill="none" xmlns="http://www.w3.org/2000/svg">
<path d="M0.758362 7.90386C0.562233 7.91527 0.369339 7.85006 0.220356 7.722C-0.0734519 7.42644 -0.0734519 6.9491 0.220356 6.65354L6.65377 0.220102C6.95936 -0.0658453 7.43887 -0.0499497 7.72482 0.255636C7.98339 0.531976 7.99847 0.956716 7.76011 1.25067L1.28878 7.722C1.14173 7.84821 0.951919 7.91329 0.758362 7.90386Z" fill="#022335"/>
<path d="M7.18516 7.90388C6.98637 7.90304 6.79587 7.82412 6.65471 7.68413L0.221271 1.25067C-0.0509264 0.932802 -0.0139197 0.454436 0.303943 0.182213C0.587644 -0.0607378 1.00605 -0.0607378 1.28972 0.182213L7.76105 6.61566C8.06656 6.90168 8.08235 7.38122 7.79633 7.68673C7.78495 7.69888 7.7732 7.71063 7.76105 7.72201C7.68265 7.79018 7.59107 7.84151 7.492 7.87279C7.39293 7.90408 7.28849 7.91466 7.18516 7.90388Z" fill="#022335"/>
</svg>
