<svg width="12" height="16" viewBox="0 0 12 16" fill="none" xmlns="http://www.w3.org/2000/svg">
<path d="M6.13081 0.874259C6.24173 0.874259 6.34811 0.918323 6.42655 0.996757C6.50498 1.07519 6.54904 1.18157 6.54904 1.29249V1.96325C6.54904 2.10266 6.66215 2.21577 6.80156 2.21577C6.91249 2.21577 7.01887 2.25983 7.0973 2.33826C7.17573 2.4167 7.2198 2.52308 7.2198 2.634C7.2198 2.74492 7.17573 2.8513 7.0973 2.92974C7.01887 3.00817 6.91249 3.05223 6.80156 3.05223C6.73459 3.05223 6.67036 3.07884 6.62301 3.1262C6.57565 3.17355 6.54904 3.23778 6.54904 3.30475V12.6953C6.54904 12.8347 6.66215 12.9478 6.80156 12.9478C6.91249 12.9478 7.01887 12.9919 7.0973 13.0703C7.17573 13.1488 7.2198 13.2551 7.2198 13.3661C7.2198 13.477 7.17573 13.5834 7.0973 13.6618C7.01887 13.7402 6.91249 13.7843 6.80156 13.7843C6.73459 13.7843 6.67036 13.8109 6.62301 13.8582C6.57565 13.9056 6.54904 13.9698 6.54904 14.0368V14.7076C6.54904 14.8185 6.50498 14.9249 6.42655 15.0033C6.34811 15.0817 6.24173 15.1258 6.13081 15.1258C6.01989 15.1258 5.91351 15.0817 5.83507 15.0033C5.75664 14.9249 5.71258 14.8185 5.71258 14.7076V14.2045C5.71258 14.093 5.6683 13.9862 5.5895 13.9074C5.5107 13.8286 5.40381 13.7843 5.29237 13.7843H2.10629C1.63958 13.7843 1.19198 13.5989 0.861965 13.2689C0.53195 12.9389 0.346549 12.4913 0.346549 12.0245V3.97551C0.346549 3.50879 0.53195 3.0612 0.861965 2.73118C1.19198 2.40117 1.63958 2.21577 2.10629 2.21577H5.29237C5.40381 2.21577 5.5107 2.17149 5.5895 2.09269C5.6683 2.01389 5.71258 1.907 5.71258 1.79556V1.29249C5.71258 1.18157 5.75664 1.07519 5.83507 0.996757C5.91351 0.918323 6.01989 0.874259 6.13081 0.874259ZM5.71258 3.47244C5.71258 3.361 5.6683 3.25411 5.5895 3.17531C5.5107 3.09651 5.40381 3.05223 5.29237 3.05223H2.10629C1.59662 3.05223 1.18302 3.46584 1.18302 3.97551V12.0245C1.18302 12.5342 1.59662 12.9478 2.10629 12.9478H5.29237C5.40381 12.9478 5.5107 12.9035 5.5895 12.8247C5.6683 12.7459 5.71258 12.6391 5.71258 12.5276V3.47244ZM9.06634 2.634C9.06634 2.52308 9.11041 2.4167 9.18884 2.33826C9.26727 2.25983 9.37365 2.21577 9.48458 2.21577H10.1553C10.622 2.21577 11.0696 2.40117 11.3997 2.73118C11.7297 3.0612 11.9151 3.50879 11.9151 3.97551V4.64626C11.9151 4.75718 11.871 4.86356 11.7926 4.942C11.7141 5.02043 11.6078 5.06449 11.4968 5.06449C11.3859 5.06449 11.2795 5.02043 11.2011 4.942C11.1227 4.86356 11.0786 4.75718 11.0786 4.64626V3.97551C11.0786 3.46584 10.665 3.05223 10.1553 3.05223H9.48458C9.37365 3.05223 9.26727 3.00817 9.18884 2.92974C9.11041 2.8513 9.06634 2.74492 9.06634 2.634ZM11.4968 6.91104C11.6078 6.91104 11.7141 6.9551 11.7926 7.03354C11.871 7.11197 11.9151 7.21835 11.9151 7.32927V8.67078C11.9151 8.7817 11.871 8.88808 11.7926 8.96652C11.7141 9.04495 11.6078 9.08902 11.4968 9.08902C11.3859 9.08902 11.2795 9.04495 11.2011 8.96652C11.1227 8.88808 11.0786 8.7817 11.0786 8.67078V7.32927C11.0786 7.21835 11.1227 7.11197 11.2011 7.03354C11.2795 6.9551 11.3859 6.91104 11.4968 6.91104ZM11.4968 10.9356C11.6078 10.9356 11.7141 10.9796 11.7926 11.0581C11.871 11.1365 11.9151 11.2429 11.9151 11.3538V12.0245C11.9151 12.4913 11.7297 12.9389 11.3997 13.2689C11.0696 13.5989 10.622 13.7843 10.1553 13.7843H9.48458C9.37365 13.7843 9.26727 13.7402 9.18884 13.6618C9.11041 13.5834 9.06634 13.477 9.06634 13.3661C9.06634 13.2551 9.11041 13.1488 9.18884 13.0703C9.26727 12.9919 9.37365 12.9478 9.48458 12.9478H10.1553C10.665 12.9478 11.0786 12.5342 11.0786 12.0245V11.3538C11.0786 11.2429 11.1227 11.1365 11.2011 11.0581C11.2795 10.9796 11.3859 10.9356 11.4968 10.9356Z" fill="#7F818D" stroke="white" stroke-width="0.169661"/>
</svg>
