<svg width="23" height="23" viewBox="0 0 23 23" fill="none" xmlns="http://www.w3.org/2000/svg">
<path d="M11.5 1.75195C13.7498 1.7524 15.9301 2.53079 17.6716 3.95517C19.413 5.37955 20.6083 7.36229 21.0548 9.56728C21.5014 11.7723 21.1717 14.0638 20.1217 16.0535C19.0717 18.0432 17.366 19.6086 15.2937 20.4844C12.9108 21.4905 10.2259 21.5089 7.8296 20.5354C5.43326 19.562 3.52176 17.6765 2.51563 15.2937C1.50949 12.9108 1.49112 10.2259 2.46457 7.8296C3.43802 5.43326 5.32354 3.52176 7.70635 2.51562C8.90661 2.00832 10.1969 1.74857 11.5 1.75195ZM11.5 0C5.14895 0 0 5.14895 0 11.5C0 17.8511 5.14895 23 11.5 23C17.8511 23 23 17.8511 23 11.5C23 5.14895 17.8511 0 11.5 0Z" fill="#898989"/>
<path d="M13.1633 6.87462C13.1633 5.95579 12.4184 5.21094 11.4996 5.21094C10.5808 5.21094 9.83594 5.95579 9.83594 6.87462C9.83594 7.79345 10.5808 8.5383 11.4996 8.5383C12.4184 8.5383 13.1633 7.79345 13.1633 6.87462Z" fill="#898989"/>
<path d="M13.1633 11.4997C13.1633 10.5809 12.4184 9.83603 11.4996 9.83603C10.5808 9.83603 9.83594 10.5809 9.83594 11.4997C9.83594 12.4185 10.5808 13.1634 11.4996 13.1634C12.4184 13.1634 13.1633 12.4185 13.1633 11.4997Z" fill="#898989"/>
<path d="M13.1633 16.1267C13.1633 15.2078 12.4184 14.463 11.4996 14.463C10.5808 14.463 9.83594 15.2078 9.83594 16.1267C9.83594 17.0455 10.5808 17.7903 11.4996 17.7903C12.4184 17.7903 13.1633 17.0455 13.1633 16.1267Z" fill="#898989"/>
</svg>
