<svg clip-rule="evenodd" fill-rule="evenodd" stroke-linejoin="round" stroke-miterlimit="2" viewBox="0 0 510 510" xmlns="http://www.w3.org/2000/svg"><path d="m134.067 447.104 6.876 12.151c.004.006.008.013.011.019 5.497 9.777 2.012 22.252-7.709 27.742l-23.567 13.357c-.008.005-.016.01-.024.014-9.777 5.496-22.252 2.012-27.744-7.714l-69.304-122.457c-5.546-9.785-2.06-22.271 7.672-27.768l23.595-13.358.007-.004c9.728-5.494 22.207-2.04 27.747 7.688l.01.018 5.621 9.933 62.024-35.91c18.465-10.678 37.326-17.67 57.606-11.085 19.852 6.437 52.263 20.31 85.339 26.287.353.064.701.151 1.042.262 16.504 5.344 26.547 22.025 22.04 38.784-.773 2.88-1.827 5.533-3.144 7.934 3.911-1.03 7.731-2.612 11.481-4.797l84.033-48.942c30.179-17.581 50.289-15.744 61.678-8.103 9.751 6.542 14.262 17.715 13.97 28.68-.294 11.074-5.558 21.659-14.242 27.007l-152.483 93.882c-15.955 9.847-33.432 12.157-51.537 7.327l-.008-.003-107.409-28.786zm-48.928-86.454 41.047 72.529 16.331-9.43c1.837-1.061 4.021-1.349 6.071-.799l110.604 29.642c13.7 3.654 26.934 1.968 39.007-5.484l.007-.004 152.489-93.886c4.037-2.486 6.15-7.477 6.572-12.594.65-7.881-3.057-16.576-12.804-18.618-8.956-1.876-21.568 1.08-38.73 11.078l-84.031 48.94c-13.402 7.81-27.449 9.967-42.758 7.53-.009-.001-.018-.003-.027-.004l-10.419-1.695c-.003-.001-.006-.001-.01-.002-.108-.018-.216-.038-.323-.06-.004 0-.007-.001-.011-.002-18.958-3.891-36.54-9.619-56.049-14.862-4.264-1.146-6.796-5.538-5.65-9.802s5.538-6.796 9.802-5.65c19.076 5.127 36.27 10.748 54.79 14.574 9.594 1.069 16.604-2.924 18.81-11.139l.001-.004c2.238-8.321-2.969-16.398-11.057-19.251-33.673-6.177-66.636-20.154-86.85-26.708l-.004-.001c-15.798-5.13-30.27 1.398-44.654 9.717zm-27.418-15.963-.006-.01c-1.198-2.085-3.875-2.84-5.966-1.66l-23.588 13.354-.007.004c-2.086 1.178-2.816 3.856-1.628 5.951l.002.005 69.306 122.462.004.006c1.181 2.091 3.866 2.822 5.968 1.645l23.55-13.348.01-.006c2.092-1.181 2.823-3.867 1.644-5.97zm-9.148 13.055c5.349-.796 10.316 2.897 11.112 8.246.764 5.349-2.929 10.347-8.278 11.111-5.349.796-10.316-2.929-11.112-8.278-.764-5.349 2.929-10.315 8.278-11.079zm135.935-263.567c0-2.858 1.524-5.499 4-6.928l41.984-24.24 34.294-19.798 41.984-24.24c2.475-1.429 5.524-1.429 8 0l118.262 68.278c2.475 1.429 4 4.07 4 6.928v136.556c0 2.858-1.525 5.499-4 6.928l-118.262 68.278c-2.476 1.429-5.525 1.429-8 0l-118.262-68.278c-2.476-1.429-4-4.07-4-6.928zm49.984-15.002-25.984 15.002 102.262 59.04 25.984-15.002zm34.293-19.799-18.293 10.561 102.262 59.041 18.293-10.561zm144.247 34.801-102.262-59.04-25.985 15.002 102.262 59.04zm-94.262 190.977 102.262-59.04v-118.081l-25.984 15.002v49.164c0 2.858-1.525 5.499-4 6.928l-34.295 19.798c-2.475 1.429-5.524 1.429-7.999 0-2.476-1.43-4-4.07-4-6.929v-39.924l-25.984 15.002zm-118.262-177.121v118.081l102.262 59.04v-118.08zm178.54 24.24-18.294 10.561v35.307l18.294-10.561zm41.137-86.323c-1.143 4.265-5.533 6.799-9.798 5.657-4.265-1.143-6.8-5.533-5.657-9.798l7.737-28.878c1.143-4.264 5.533-6.799 9.798-5.656 4.265 1.142 6.8 5.533 5.657 9.798zm40.878 93.856c-4.264-1.147-6.794-5.54-5.647-9.804 1.147-4.263 5.54-6.794 9.803-5.647l28.898 7.773c4.264 1.147 6.795 5.54 5.648 9.804s-5.54 6.794-9.804 5.647zm-1.015-55.362c-3.824 2.207-8.72.895-10.928-2.929-2.208-3.823-.896-8.72 2.928-10.928l25.939-14.975c3.823-2.208 8.72-.896 10.928 2.928 2.207 3.824.895 8.72-2.928 10.928zm-243.238-42.635c1.142 4.265-1.392 8.655-5.657 9.798-4.265 1.142-8.655-1.392-9.798-5.657l-7.738-28.877c-1.143-4.265 1.392-8.656 5.657-9.798 4.265-1.143 8.655 1.392 9.798 5.656zm-60.49 82.546c4.264-1.147 8.656 1.384 9.803 5.647 1.147 4.264-1.383 8.657-5.647 9.804l-28.898 7.773c-4.263 1.147-8.656-1.383-9.803-5.647s1.383-8.657 5.647-9.804zm13.171-53.768c3.824 2.208 5.136 7.105 2.928 10.928-2.207 3.824-7.104 5.136-10.928 2.929l-25.938-14.976c-3.824-2.208-5.136-7.104-2.928-10.928 2.207-3.824 7.104-5.136 10.928-2.928z"/></svg>