<svg width="17" height="12" viewBox="0 0 17 12" fill="none" xmlns="http://www.w3.org/2000/svg">
<path d="M16.233 5.75925L16.233 5.75927C16.2841 5.82915 16.3117 5.91348 16.3117 6.00006C16.3117 6.08664 16.2841 6.17097 16.233 6.24086C16.1633 6.33606 15.2701 7.54136 13.8476 8.72173C12.4226 9.90411 10.4835 11.0474 8.31996 11.0474C6.15646 11.0474 4.21728 9.90412 2.79229 8.72172C1.36967 7.54128 0.476429 6.33588 0.406987 6.24079C0.355931 6.17084 0.328418 6.08648 0.328418 5.99989C0.328418 5.91332 0.355913 5.82898 0.406938 5.75905C0.47631 5.66414 1.36958 4.45872 2.79229 3.27822C4.21728 2.09585 6.15646 0.952563 8.31996 0.952563C10.4835 0.952563 12.4226 2.09585 13.8476 3.27825C15.2703 4.45876 16.1635 5.66423 16.233 5.75925ZM1.3201 5.91878L1.25353 5.99971L1.32019 6.08056C1.74047 6.59035 2.66043 7.62504 3.88669 8.53328C5.11121 9.44023 6.65489 10.2313 8.31996 10.2313C9.98847 10.2313 11.5324 9.44068 12.7563 8.53396C13.9818 7.62598 14.9001 6.59142 15.3198 6.08119L15.3864 6.00026L15.3197 5.91941C14.8993 5.40935 13.9793 4.37465 12.753 3.46648C11.5285 2.55959 9.98495 1.76869 8.31996 1.76869C6.65145 1.76869 5.10752 2.55928 3.88366 3.46599C2.65809 4.37397 1.73986 5.40852 1.3201 5.91878Z" fill="#7F818D" stroke="white" stroke-width="0.254492"/>
<path d="M5.23467 6.00008C5.23467 4.29936 6.61858 2.91545 8.3193 2.91545C10.02 2.91545 11.4039 4.29936 11.4039 6.00008C11.4039 7.7008 10.02 9.08471 8.3193 9.08471C6.61858 9.08471 5.23467 7.7008 5.23467 6.00008ZM6.05082 6.00008C6.05082 7.25105 7.06829 8.26856 8.3193 8.26856C9.5703 8.26856 10.5878 7.25105 10.5878 6.00008C10.5878 4.74911 9.57027 3.73161 8.3193 3.73161C7.06833 3.73161 6.05082 4.74911 6.05082 6.00008Z" fill="#7F818D" stroke="white" stroke-width="0.254492"/>
</svg>
