<svg width="17" height="16" viewBox="0 0 17 16" fill="none" xmlns="http://www.w3.org/2000/svg">
<path d="M8.5006 2.45227L8.35064 2.60223L8.20068 2.45227C7.33467 1.58626 6.30353 1.10956 5.09927 1.01692C3.89676 0.924421 2.86343 1.24658 1.98549 1.98114C1.24206 2.62164 0.752043 3.37002 0.507017 4.2276C0.259512 5.09387 0.250339 5.92844 0.475213 6.73595C0.70226 7.55125 1.09282 8.24373 1.6461 8.81774L7.27801 14.5462C7.58273 14.8506 7.93682 14.9985 8.35064 14.9985C8.76446 14.9985 9.11856 14.8506 9.42327 14.5462C9.42348 14.546 9.4237 14.5458 9.42391 14.5456L15.0545 8.81847C15.0547 8.81823 15.055 8.81798 15.0552 8.81774C15.6089 8.24325 15.9994 7.55576 16.2263 6.75137C16.4508 5.95544 16.442 5.12096 16.1941 4.24306C15.9489 3.37458 15.4587 2.62118 14.7158 1.98114C13.8379 1.24658 12.8045 0.924421 11.602 1.01692C10.3978 1.10956 9.36662 1.58626 8.5006 2.45227ZM14.2652 8.01861L14.2652 8.01862L14.2635 8.02032L8.60683 13.7413C8.55887 13.8011 8.47474 13.8775 8.35064 13.8775C8.22654 13.8775 8.14241 13.8011 8.09446 13.7413L2.4378 8.02032L2.43779 8.02033L2.43612 8.01861C1.77379 7.33343 1.44301 6.49116 1.44301 5.50523C1.44301 4.50507 1.85978 3.61994 2.66832 2.85631L2.67465 2.85033L2.68145 2.84489C3.3686 2.29517 4.16784 2.05473 5.06721 2.12304C5.9671 2.19138 6.73922 2.55777 7.37526 3.21594L8.35064 4.19132L9.32603 3.21594C9.96207 2.55777 10.7342 2.19138 11.6341 2.12304C12.5334 2.05473 13.3327 2.29517 14.0198 2.84489L14.0266 2.85033L14.033 2.85631C14.8415 3.61994 15.2583 4.50507 15.2583 5.50523C15.2583 6.49116 14.9275 7.33343 14.2652 8.01861Z" fill="#7F818D" stroke="white" stroke-width="0.424153"/>
</svg>
