<svg width="22" height="16" viewBox="0 0 22 16" fill="none" xmlns="http://www.w3.org/2000/svg">
<path d="M1.375 2.28571H20.625C21.45 2.28571 22 1.82857 22 1.14286C22 0.457143 21.45 0 20.625 0H1.375C0.55 0 0 0.457143 0 1.14286C0 1.82857 0.55 2.28571 1.375 2.28571ZM1.375 9.14286H20.625C21.45 9.14286 22 8.68571 22 8C22 7.31429 21.45 6.85714 20.625 6.85714H1.375C0.55 6.85714 0 7.31429 0 8C0 8.68571 0.55 9.14286 1.375 9.14286ZM1.375 16H20.625C21.45 16 22 15.5429 22 14.8571C22 14.1714 21.45 13.7143 20.625 13.7143H1.375C0.55 13.7143 0 14.1714 0 14.8571C0 15.5429 0.55 16 1.375 16Z" fill="white"/>
</svg>
