<svg width="27" height="28" viewBox="0 0 27 28" fill="none" xmlns="http://www.w3.org/2000/svg">
<path d="M2.08907 25.7425L2.06937 25.91H2.23805H24.638H24.8038L24.7873 25.7451C24.2197 20.069 19.3397 15.53 13.438 15.53C7.53516 15.53 2.76963 19.9578 2.08907 25.7425ZM13.438 11.05C10.3849 11.05 7.98805 8.65316 7.98805 5.6C7.98805 2.54684 10.3849 0.15 13.438 0.15C16.4912 0.15 18.888 2.54684 18.888 5.6C18.888 8.65316 16.4912 11.05 13.438 11.05ZM13.438 2.09C11.4512 2.09 9.92805 3.61316 9.92805 5.6C9.92805 7.58684 11.4512 9.11 13.438 9.11C15.4249 9.11 16.948 7.58684 16.948 5.6C16.948 3.61316 15.4249 2.09 13.438 2.09ZM0.148047 27.85V26.88C0.148047 19.5708 6.12889 13.59 13.438 13.59C20.7472 13.59 26.728 19.5708 26.728 26.88V27.85H0.148047Z" fill="white" stroke="#022335" stroke-width="0.3"/>
</svg>
