<svg width="10" height="20" viewBox="0 0 10 20" fill="none" xmlns="http://www.w3.org/2000/svg">
<path d="M8.05101 4.61854H7.25063V0.425392C7.25063 0.190454 7.06017 0 6.82523 0H2.57131C2.33637 0 2.14592 0.190454 2.14592 0.425392V4.61854H1.34553C0.634074 4.61854 0.0551758 5.19736 0.0551758 5.90886V18.7097C0.0551758 19.4211 0.634033 20 1.34553 20H8.05101C8.76247 20 9.34133 19.4212 9.34133 18.7097V5.9089C9.34133 5.1974 8.76251 4.61854 8.05101 4.61854ZM6.80396 7.12933V9.98108H2.59262V7.12933H6.80396ZM6.39984 0.850785V6.26194L2.9967 6.2619V0.850785H6.39984ZM8.49054 18.7097C8.49054 18.952 8.29336 19.1492 8.05101 19.1492H1.34553C1.10318 19.1492 0.90596 18.952 0.90596 18.7097V5.90886C0.90596 5.66651 1.10314 5.46933 1.34553 5.46933H2.14592V6.26295C2.04066 6.26805 1.94105 6.31207 1.86642 6.38648C1.82691 6.42598 1.79558 6.47288 1.77421 6.52449C1.75283 6.5761 1.74183 6.63142 1.74184 6.68729V10.4064C1.74184 10.6414 1.93229 10.8318 2.16723 10.8318H7.22936C7.46429 10.8318 7.65475 10.6414 7.65475 10.4064V6.68729C7.65475 6.45952 7.4756 6.27413 7.25063 6.26295V5.46933H8.05101C8.29336 5.46933 8.49054 5.66651 8.49054 5.9089V18.7097Z" fill="white"/>
<path d="M4.063 12.1433H2.15684C1.9219 12.1433 1.73145 12.3338 1.73145 12.5687C1.73145 12.8036 1.9219 12.9941 2.15684 12.9941H4.063C4.29794 12.9941 4.48839 12.8036 4.48839 12.5687C4.48839 12.3338 4.29794 12.1433 4.063 12.1433ZM7.23991 12.1433H5.33379C5.09885 12.1433 4.9084 12.3338 4.9084 12.5687C4.9084 12.8036 5.09885 12.9941 5.33379 12.9941H7.23991C7.47485 12.9941 7.6653 12.8036 7.6653 12.5687C7.6653 12.3338 7.47481 12.1433 7.23991 12.1433ZM4.063 14.3489H2.15684C1.9219 14.3489 1.73145 14.5393 1.73145 14.7743C1.73145 15.0092 1.9219 15.1997 2.15684 15.1997H4.063C4.29794 15.1997 4.48839 15.0092 4.48839 14.7743C4.48839 14.5393 4.29794 14.3489 4.063 14.3489ZM7.23991 14.3489H5.33379C5.09885 14.3489 4.9084 14.5393 4.9084 14.7743C4.9084 15.0092 5.09885 15.1997 5.33379 15.1997H7.23991C7.47485 15.1997 7.6653 15.0092 7.6653 14.7743C7.6653 14.5393 7.47481 14.3489 7.23991 14.3489ZM4.063 16.5977H2.15684C1.9219 16.5977 1.73145 16.7881 1.73145 17.0231C1.73145 17.258 1.9219 17.4485 2.15684 17.4485H4.063C4.29794 17.4485 4.48839 17.258 4.48839 17.0231C4.48839 16.7881 4.29794 16.5977 4.063 16.5977ZM7.23991 16.5977H5.33379C5.09885 16.5977 4.9084 16.7881 4.9084 17.0231C4.9084 17.258 5.09885 17.4485 5.33379 17.4485H7.23991C7.47485 17.4485 7.6653 17.258 7.6653 17.0231C7.6653 16.7881 7.47481 16.5977 7.23991 16.5977Z" fill="white"/>
</svg>
