<svg width="21" height="20" viewBox="0 0 21 20" fill="none" xmlns="http://www.w3.org/2000/svg">
<path d="M15.0288 18.7501C13.8226 18.7501 12.8413 17.7688 12.8413 16.5626V8.35447C12.2656 7.98877 11.7918 7.48336 11.4639 6.88527C11.1361 6.28719 10.9649 5.61588 10.9663 4.93384C10.9649 4.18526 11.1712 3.45098 11.5623 2.81265C11.9533 2.17433 12.5138 1.65701 13.1813 1.31822C13.2767 1.26974 13.3829 1.24651 13.4898 1.25073C13.5967 1.25495 13.7007 1.28649 13.792 1.34233C13.8832 1.39817 13.9586 1.47645 14.011 1.56971C14.0634 1.66298 14.0911 1.76811 14.0913 1.87509V4.57697L15.0288 4.95197L15.9663 4.57697V1.87509C15.9666 1.76811 15.9942 1.66298 16.0466 1.56971C16.099 1.47645 16.1744 1.39817 16.2657 1.34233C16.3569 1.28649 16.461 1.25495 16.5679 1.25073C16.6748 1.24651 16.7809 1.26974 16.8763 1.31822C17.5438 1.65717 18.1043 2.17462 18.4953 2.81303C18.8864 3.45145 19.0927 4.18581 19.0913 4.93447C19.0925 5.61647 18.9213 6.28772 18.5935 6.88577C18.2656 7.48383 17.7919 7.98927 17.2163 8.35509V16.5626C17.2163 17.7688 16.2351 18.7501 15.0288 18.7501ZM12.8413 3.16634C12.4432 3.65697 12.2163 4.27572 12.2163 4.93384C12.2163 5.99259 12.8044 6.95197 13.7513 7.43697C13.8537 7.48942 13.9396 7.5691 13.9996 7.66725C14.0596 7.76539 14.0913 7.87819 14.0913 7.99322V16.5626C14.0913 17.0795 14.5119 17.5001 15.0288 17.5001C15.5457 17.5001 15.9663 17.0795 15.9663 16.5626V7.99322C15.9663 7.87819 15.9981 7.76539 16.058 7.66725C16.118 7.5691 16.2039 7.48942 16.3063 7.43697C16.7686 7.20257 17.1567 6.84458 17.4277 6.40279C17.6987 5.96101 17.8419 5.45274 17.8413 4.93447C17.8425 4.29095 17.6217 3.66671 17.2163 3.16697V5.00009C17.2163 5.25572 17.0607 5.48509 16.8238 5.58072L15.2613 6.20572C15.1123 6.26574 14.9459 6.26574 14.7969 6.20572L13.2344 5.58072C13.1185 5.5342 13.0191 5.45405 12.949 5.35058C12.8789 5.24711 12.8414 5.12505 12.8413 5.00009V3.16634Z" fill="white"/>
<path d="M11.0126 18.75H9.67068C9.35617 18.7488 9.05356 18.6296 8.82276 18.4159C8.59196 18.2023 8.44981 17.9097 8.42443 17.5962L8.34568 16.5744C7.9162 16.444 7.50064 16.2715 7.10506 16.0594L6.32631 16.7262C6.08683 16.9301 5.77957 17.0365 5.46533 17.0246C5.15109 17.0127 4.85278 16.8832 4.62943 16.6619L3.67943 15.7113C3.45806 15.4878 3.32856 15.1895 3.31652 14.8752C3.30449 14.5608 3.41079 14.2535 3.61443 14.0138L4.28131 13.2356C4.06923 12.84 3.89672 12.4245 3.76631 11.995L2.74506 11.9169C2.43162 11.8917 2.13909 11.7496 1.92541 11.5189C1.71173 11.2882 1.59249 10.9857 1.59131 10.6712V9.32875C1.59131 8.67937 2.09818 8.13188 2.74568 8.0825L3.76693 8.00437C3.89693 7.575 4.06943 7.16 4.28193 6.76375L3.61443 5.98438C3.41074 5.74465 3.30445 5.43719 3.31661 5.12284C3.32876 4.8085 3.45846 4.51016 3.68006 4.28688L4.62881 3.3375C4.85218 3.116 5.15055 2.9864 5.4649 2.97437C5.77924 2.96233 6.08666 3.06872 6.32631 3.2725L7.10506 3.93937C7.50064 3.72729 7.9162 3.55479 8.34568 3.42438L8.42443 2.4025C8.45009 2.08934 8.59229 1.7972 8.82293 1.5838C9.05356 1.37041 9.35585 1.2513 9.67006 1.25H10.3413C10.5071 1.25 10.666 1.31585 10.7833 1.43306C10.9005 1.55027 10.9663 1.70924 10.9663 1.875C10.9663 2.04076 10.9005 2.19973 10.7833 2.31694C10.666 2.43415 10.5071 2.5 10.3413 2.5H9.67006L9.55756 3.96312C9.54727 4.09576 9.49493 4.22165 9.40815 4.32248C9.32137 4.42331 9.20468 4.49382 9.07506 4.52375C8.46987 4.66316 7.8923 4.90294 7.36631 5.23313C7.25355 5.30417 7.12096 5.33711 6.98807 5.32709C6.85518 5.31708 6.72902 5.26464 6.62818 5.1775L5.51256 4.22188L4.56381 5.17187L5.51943 6.28687C5.69756 6.49438 5.71943 6.79375 5.57443 7.025C5.24472 7.55124 5.00498 8.12873 4.86506 8.73375C4.83518 8.86351 4.76461 8.98032 4.66363 9.06713C4.56266 9.15393 4.43658 9.20618 4.30381 9.21625L2.84131 9.32875V10.6712L4.30381 10.7837C4.43655 10.7939 4.56258 10.8462 4.66354 10.933C4.76449 11.0198 4.83509 11.1365 4.86506 11.2662C5.00447 11.8714 5.24424 12.449 5.57443 12.975C5.64508 13.0878 5.67784 13.2203 5.66795 13.3531C5.65806 13.4858 5.60602 13.612 5.51943 13.7131L4.56381 14.8281L5.51318 15.7781L6.62818 14.8225C6.72916 14.7356 6.85528 14.6834 6.9881 14.6734C7.12092 14.6634 7.25346 14.6961 7.36631 14.7669C7.89631 15.0981 8.47131 15.3369 9.07506 15.4762C9.20468 15.5062 9.32137 15.5767 9.40815 15.6775C9.49493 15.7784 9.54727 15.9042 9.55756 16.0369L9.67006 17.5H11.0119C11.0176 17.4177 11.0396 17.3374 11.0765 17.2636C11.1134 17.1898 11.1645 17.1241 11.227 17.0702C11.2894 17.0163 11.3619 16.9752 11.4403 16.9495C11.5186 16.9237 11.6013 16.9137 11.6836 16.9201C11.7658 16.9264 11.846 16.949 11.9195 16.9865C11.9929 17.024 12.0583 17.0756 12.1117 17.1385C12.1651 17.2013 12.2056 17.2742 12.2307 17.3527C12.2558 17.4313 12.2652 17.5141 12.2582 17.5962C12.2328 17.9096 12.0908 18.2021 11.8601 18.4157C11.6294 18.6294 11.327 18.7487 11.0126 18.75Z" fill="white"/>
<path d="M5.96633 9.99991C5.96297 8.96488 6.32805 7.96242 6.99622 7.17195C7.6644 6.38148 8.59206 5.85457 9.61321 5.68554C9.69418 5.67159 9.77711 5.67383 9.85721 5.69212C9.93731 5.71041 10.013 5.7444 10.0799 5.79211C10.1468 5.83982 10.2035 5.90032 10.2469 5.9701C10.2903 6.03988 10.3194 6.11756 10.3326 6.19866C10.3599 6.36209 10.3212 6.52968 10.2249 6.66458C10.1287 6.79947 9.98287 6.89064 9.81946 6.91804C9.0904 7.03923 8.42822 7.4158 7.95131 7.98041C7.47441 8.54502 7.21389 9.26085 7.21633 9.99991C7.21633 12.158 9.36008 13.663 11.3832 12.9474C11.5378 12.8983 11.7054 12.9111 11.8507 12.9833C11.9959 13.0555 12.1075 13.1813 12.1617 13.3342C12.2159 13.487 12.2085 13.655 12.1412 13.8026C12.0738 13.9501 11.9517 14.0657 11.8007 14.1249C8.95508 15.1318 5.96633 13.0099 5.96633 9.99991Z" fill="white"/>
</svg>
