<svg width="14" height="20" viewBox="0 0 14 20" fill="none" xmlns="http://www.w3.org/2000/svg">
<path d="M11.127 5.19363C11.0609 5.08407 10.9606 4.9992 10.8417 4.95198C10.7227 4.90477 10.5916 4.89781 10.4683 4.93217C10.345 4.96653 10.2363 5.04032 10.1589 5.14226C10.0815 5.2442 10.0397 5.36868 10.0397 5.49667C10.0397 6.21183 9.45789 6.79355 8.74286 6.79355C8.0277 6.79355 7.44602 6.21183 7.44602 5.49667V0.585929C7.44599 0.470027 7.41161 0.356733 7.34721 0.260366C7.28282 0.164 7.1913 0.088888 7.08422 0.0445228C6.97714 0.000221133 6.85932 -0.0113449 6.74567 0.0112861C6.63201 0.0339172 6.52761 0.0897297 6.44567 0.171671C6.38004 0.237413 4.81738 1.80894 3.23445 4.18351C2.30106 5.58363 1.55613 6.97249 1.02055 8.31144C0.342149 10.0076 -0.00195312 11.6316 -0.00195312 13.138C-0.00195312 16.9217 3.07637 20 6.85992 20C10.6436 20 13.722 16.9217 13.722 13.138C13.722 10.7161 12.8488 8.0432 11.127 5.19363ZM6.85992 18.8281C3.72258 18.8281 1.16992 16.2755 1.16992 13.138C1.16992 10.0496 2.8159 6.92781 4.1968 4.85261C4.94524 3.72788 5.69949 2.77999 6.27399 2.10585V5.49667C6.27399 6.85792 7.38149 7.96542 8.74274 7.96542C9.57493 7.96542 10.3124 7.55156 10.7598 6.91878C11.9484 9.15707 12.5501 11.2448 12.5501 13.138C12.5501 16.2755 9.99758 18.8281 6.85992 18.8281Z" fill="white"/>
<path d="M10.1846 9.88892H7.67424C7.35061 9.88892 7.0883 10.1512 7.0883 10.4747C7.08815 10.7983 7.35061 11.0608 7.67408 11.0608H8.77014L6.26674 13.564L4.90596 12.2032C4.67725 11.9745 4.30615 11.9745 4.07744 12.2032L2.74592 13.5345C2.51701 13.7634 2.51701 14.1344 2.74576 14.3633C2.97467 14.5922 3.34561 14.592 3.57447 14.3633L4.49166 13.4462L5.85233 14.807C5.96223 14.9168 6.11127 14.9786 6.26668 14.9786C6.42209 14.9786 6.57113 14.9168 6.68104 14.807L9.59862 11.8895V12.9852C9.59862 13.3087 9.86096 13.5711 10.1846 13.5711C10.5082 13.5711 10.7705 13.3087 10.7705 12.9852V10.4749C10.7705 10.1512 10.5082 9.88892 10.1846 9.88892H10.1846Z" fill="white"/>
</svg>
