<svg width="19" height="18" viewBox="0 0 19 18" fill="none" xmlns="http://www.w3.org/2000/svg">
<path d="M17.8586 7.82912C17.858 7.82873 17.8576 7.82817 17.8572 7.82775L10.5146 0.485508C10.2016 0.172336 9.78553 0 9.34295 0C8.90033 0 8.48423 0.172336 8.17112 0.485473L0.832362 7.82402C0.829901 7.82648 0.827299 7.82909 0.824979 7.83158C0.182252 8.47796 0.183377 9.52675 0.828143 10.1715C1.12268 10.4662 1.51158 10.6368 1.92758 10.6548C1.9446 10.6564 1.96165 10.6572 1.97881 10.6572H2.27131V16.0606C2.27131 17.13 3.14142 18 4.21081 18H7.08346C7.37473 18 7.6108 17.7638 7.6108 17.4726V13.2363C7.6108 12.7484 8.00782 12.3515 8.49576 12.3515H10.1901C10.6781 12.3515 11.0749 12.7484 11.0749 13.2363V17.4727C11.0749 17.7638 11.311 18 11.6023 18H14.4749C15.5444 18 16.4144 17.13 16.4144 16.0606V10.6573H16.6858C17.1283 10.6573 17.5444 10.4849 17.8576 10.1717C18.5031 9.52594 18.5033 8.47522 17.8586 7.82909L17.8586 7.82912ZM17.1118 9.42599C17.056 9.48213 16.9896 9.52664 16.9165 9.55696C16.8434 9.58728 16.7649 9.60279 16.6858 9.60261H15.887C15.5958 9.60261 15.3597 9.83865 15.3597 10.13V16.0606C15.3597 16.5484 14.9628 16.9453 14.4749 16.9453H12.1296V13.2363C12.1296 12.1669 11.2596 11.2968 10.1901 11.2968H8.49579C7.42627 11.2968 6.55615 12.1669 6.55615 13.2363V16.9453H4.21088C3.72305 16.9453 3.32603 16.5484 3.32603 16.0606V10.1299C3.32603 9.83862 3.08996 9.60258 2.79869 9.60258H2.01368C2.00545 9.602 1.99721 9.60162 1.98897 9.60145C1.83185 9.59871 1.68451 9.53638 1.57412 9.42581C1.33928 9.19097 1.33928 8.80882 1.57412 8.57384C1.57423 8.57384 1.57423 8.5737 1.57437 8.57355L1.57479 8.57313L8.91707 1.23117C8.97284 1.17503 9.0392 1.13052 9.11231 1.10022C9.18542 1.06993 9.26381 1.05445 9.34295 1.05469C9.50376 1.05469 9.65496 1.1173 9.7688 1.23117L17.1094 8.57166L17.1129 8.57496C17.3465 8.81023 17.3461 9.1916 17.1118 9.42599Z" fill="white"/>
</svg>
