<svg width="20" height="22" viewBox="0 0 20 22" fill="none" xmlns="http://www.w3.org/2000/svg">
<path d="M14.0953 13.7067C14.1935 13.6152 14.2723 13.5048 14.327 13.3821C14.3817 13.2594 14.4111 13.127 14.4134 12.9927C14.4158 12.8585 14.3911 12.7251 14.3408 12.6006C14.2905 12.4761 14.2156 12.363 14.1207 12.268C14.0257 12.173 13.9126 12.0982 13.7881 12.0479C13.6636 11.9976 13.5302 11.9729 13.3959 11.9753C13.2617 11.9776 13.1292 12.007 13.0066 12.0617C12.8839 12.1163 12.7735 12.1951 12.682 12.2934L9.38863 15.5867L8.0953 14.2934C7.90573 14.1167 7.655 14.0206 7.39593 14.0251C7.13687 14.0297 6.88968 14.1347 6.70647 14.3179C6.52325 14.5011 6.4183 14.7483 6.41373 15.0073C6.40916 15.2664 6.50532 15.5171 6.68196 15.7067L8.68196 17.7067C8.86946 17.894 9.12363 17.9992 9.38863 17.9992C9.65363 17.9992 9.9078 17.894 10.0953 17.7067L14.0953 13.7067Z" fill="white" stroke="#022335" stroke-width="0.5"/>
<path fill-rule="evenodd" clip-rule="evenodd" d="M15.3355 1H4.7755C4.17817 1 3.62483 1.32 3.32883 1.84L0.942168 6.01733C0.798163 6.26906 0.722332 6.554 0.722168 6.844V8C0.722043 8.67594 0.908767 9.33877 1.26171 9.91525C1.61466 10.4917 2.12009 10.9594 2.72217 11.2667V18.6667C2.72217 19.956 3.76617 21 5.0555 21H15.0555C15.6743 21 16.2678 20.7542 16.7054 20.3166C17.143 19.879 17.3888 19.2855 17.3888 18.6667V11.2667C17.9909 10.9594 18.4963 10.4917 18.8493 9.91525C19.2022 9.33877 19.389 8.67594 19.3888 8V6.844C19.3887 6.554 19.3128 6.26906 19.1688 6.01733L16.7822 1.84C16.6365 1.58491 16.4259 1.37287 16.1719 1.22535C15.9178 1.07784 15.6293 1.00009 15.3355 1ZM4.96883 3H15.1422L17.3888 6.93333V8C17.3888 8.92 16.6422 9.66667 15.7222 9.66667H15.3888C14.4688 9.66667 13.7222 8.92 13.7222 8V7.33333C13.7222 7.06812 13.6168 6.81376 13.4293 6.62623C13.2417 6.43869 12.9874 6.33333 12.7222 6.33333C12.457 6.33333 12.2026 6.43869 12.0151 6.62623C11.8275 6.81376 11.7222 7.06812 11.7222 7.33333V8C11.7222 8.44203 11.5466 8.86595 11.234 9.17851C10.9215 9.49107 10.4975 9.66667 10.0555 9.66667C9.61347 9.66667 9.18955 9.49107 8.87699 9.17851C8.56443 8.86595 8.38883 8.44203 8.38883 8V7.33333C8.38883 7.06812 8.28348 6.81376 8.09594 6.62623C7.9084 6.43869 7.65405 6.33333 7.38883 6.33333C7.12362 6.33333 6.86926 6.43869 6.68173 6.62623C6.49419 6.81376 6.38883 7.06812 6.38883 7.33333V8C6.38883 8.92 5.64217 9.66667 4.72217 9.66667H4.38883C3.46883 9.66667 2.72217 8.92 2.72217 8V6.93333L4.96883 3ZM12.7222 10.516C13.0645 10.8798 13.4777 11.1696 13.9363 11.3675C14.395 11.5654 14.8893 11.6672 15.3888 11.6667V18.6667C15.3888 18.7551 15.3537 18.8399 15.2912 18.9024C15.2287 18.9649 15.1439 19 15.0555 19H5.0555C4.9671 19 4.88231 18.9649 4.8198 18.9024C4.75729 18.8399 4.72217 18.7551 4.72217 18.6667V11.6667C5.77283 11.6667 6.72083 11.2253 7.38883 10.516C7.73114 10.8798 8.14436 11.1696 8.603 11.3675C9.06165 11.5654 9.55598 11.6672 10.0555 11.6667C11.1062 11.6667 12.0542 11.2253 12.7222 10.516Z" fill="white" stroke="#022335" stroke-width="0.5"/>
</svg>
