<svg width="26" height="18" viewBox="0 0 26 18" fill="none" xmlns="http://www.w3.org/2000/svg">
<path fill-rule="evenodd" clip-rule="evenodd" d="M5.20794 12.0084C3.8511 11.7434 2.62852 11.0151 1.7494 9.94818C0.870281 8.88124 0.389268 7.54195 0.388672 6.15948C0.388672 2.87123 3.05775 0.202148 6.346 0.202148C9.63425 0.202148 12.3033 2.87123 12.3033 6.15948C12.3033 10.5415 10.8271 13.263 9.09437 14.9643C6.44162 17.5692 3.11955 17.7955 3.11955 17.7955C2.95409 17.8077 2.78856 17.7726 2.64234 17.6942C2.49612 17.6158 2.37526 17.4973 2.2939 17.3527C2.21255 17.2081 2.17407 17.0433 2.18296 16.8776C2.19186 16.712 2.24776 16.5523 2.34413 16.4172C2.34413 16.4172 3.92296 14.1947 4.9071 12.5506C5.00971 12.378 5.11349 12.1879 5.20794 12.0084ZM6.346 1.95122C4.02324 1.95122 2.13774 3.83672 2.13774 6.15948C2.13774 8.48224 4.02324 10.3677 6.346 10.3677C6.67599 10.3677 6.90687 10.503 7.07478 10.6966C7.21587 10.8598 7.3488 11.121 7.30333 11.5046C7.26368 11.837 6.9232 12.5879 6.4078 13.4496C6.01601 14.1026 5.53444 14.8442 5.08784 15.51C6.1251 15.103 7.0706 14.4929 7.86886 13.7155C9.35207 12.2602 10.5543 9.90949 10.5543 6.15948C10.554 5.04347 10.1105 3.97327 9.32135 3.18413C8.53222 2.395 7.46201 1.95153 6.346 1.95122ZM18.3633 12.0084C17.0064 11.7434 15.7839 11.0151 14.9047 9.94818C14.0256 8.88124 13.5446 7.54195 13.544 6.15948C13.544 2.87123 16.2131 0.202148 19.5013 0.202148C22.7896 0.202148 25.4587 2.87123 25.4587 6.15948C25.4587 10.5415 23.9825 13.263 22.2497 14.9643C19.597 17.5692 16.2749 17.7955 16.2749 17.7955C16.1094 17.8077 15.9439 17.7726 15.7977 17.6942C15.6515 17.6158 15.5306 17.4973 15.4492 17.3527C15.3679 17.2081 15.3294 17.0433 15.3383 16.8776C15.3472 16.712 15.4031 16.5523 15.4995 16.4172C15.4995 16.4172 17.0783 14.1947 18.0624 12.5506C18.1651 12.378 18.2688 12.1879 18.3633 12.0084ZM19.5013 1.95122C17.1786 1.95122 15.2931 3.83672 15.2931 6.15948C15.2931 8.48224 17.1786 10.3677 19.5013 10.3677C19.8313 10.3677 20.0622 10.503 20.2301 10.6966C20.3712 10.8598 20.5041 11.121 20.4587 11.5046C20.419 11.837 20.0785 12.5879 19.5631 13.4496C19.1713 14.1026 18.6898 14.8442 18.2432 15.51C19.2804 15.103 20.2259 14.4929 21.0242 13.7155C22.5074 12.2602 23.7096 9.90949 23.7096 6.15948C23.7093 5.04347 23.2658 3.97327 22.4767 3.18413C21.6876 2.395 20.6173 1.95153 19.5013 1.95122Z" fill="white"/>
</svg>
