<svg width="14" height="14" viewBox="0 0 14 14" fill="none" xmlns="http://www.w3.org/2000/svg">
<path d="M6.335 9.065L5.04 10.36C4.767 10.633 4.333 10.633 4.053 10.367C3.976 10.29 3.899 10.22 3.822 10.143C3.11414 9.43041 2.46127 8.66522 1.869 7.854C1.295 7.056 0.833 6.258 0.497 5.467C0.168 4.669 0 3.906 0 3.178C0 2.702 0.0839999 2.247 0.252 1.827C0.42 1.4 0.686 1.008 1.057 0.658C1.505 0.217 1.995 0 2.513 0C2.709 0 2.905 0.042 3.08 0.126C3.262 0.21 3.423 0.336 3.549 0.518L5.173 2.807C5.299 2.982 5.39 3.143 5.453 3.297C5.516 3.444 5.551 3.591 5.551 3.724C5.551 3.892 5.502 4.06 5.404 4.221C5.313 4.382 5.18 4.55 5.012 4.718L4.48 5.271C4.403 5.348 4.368 5.439 4.368 5.551C4.368 5.607 4.375 5.656 4.389 5.712C4.41 5.768 4.431 5.81 4.445 5.852C4.571 6.083 4.788 6.384 5.096 6.748C5.411 7.112 5.747 7.483 6.111 7.854C6.181 7.924 6.258 7.994 6.328 8.064C6.608 8.337 6.615 8.785 6.335 9.065ZM13.979 11.431C13.9781 11.6952 13.9183 11.9558 13.804 12.194C13.685 12.446 13.531 12.684 13.328 12.908C12.985 13.286 12.607 13.559 12.18 13.734C12.173 13.734 12.166 13.741 12.159 13.741C11.746 13.909 11.298 14 10.815 14C10.101 14 9.338 13.832 8.533 13.489C7.728 13.146 6.923 12.684 6.125 12.103C5.852 11.9 5.579 11.697 5.32 11.48L7.609 9.191C7.805 9.338 7.98 9.45 8.127 9.527C8.162 9.541 8.204 9.562 8.253 9.583C8.309 9.604 8.365 9.611 8.428 9.611C8.547 9.611 8.638 9.569 8.715 9.492L9.247 8.967C9.422 8.792 9.59 8.659 9.751 8.575C9.912 8.477 10.073 8.428 10.248 8.428C10.381 8.428 10.521 8.456 10.675 8.519C10.829 8.582 10.99 8.673 11.165 8.792L13.482 10.437C13.664 10.563 13.79 10.71 13.867 10.885C13.937 11.06 13.979 11.235 13.979 11.431Z" fill="#898989"/>
</svg>
