<svg width="15" height="15" viewBox="0 0 15 15" fill="none" xmlns="http://www.w3.org/2000/svg">
<path d="M7.5 0C6.01664 0 4.56659 0.439867 3.33323 1.26398C2.09986 2.08809 1.13856 3.25943 0.570907 4.62987C0.00324966 6.00032 -0.145275 7.50832 0.144114 8.96318C0.433503 10.418 1.14781 11.7544 2.1967 12.8033C3.2456 13.8522 4.58197 14.5665 6.03683 14.8559C7.49168 15.1453 8.99968 14.9968 10.3701 14.4291C11.7406 13.8614 12.9119 12.9001 13.736 11.6668C14.5601 10.4334 15 8.98336 15 7.5C14.9977 5.5116 14.2067 3.6053 12.8007 2.19929C11.3947 0.793275 9.48841 0.00234578 7.5 0ZM10.9091 8.18182H8.18182V10.9091C8.18182 11.0899 8.10999 11.2633 7.98212 11.3912C7.85425 11.5191 7.68083 11.5909 7.5 11.5909C7.31917 11.5909 7.14575 11.5191 7.01788 11.3912C6.89002 11.2633 6.81818 11.0899 6.81818 10.9091V8.18182H4.09091C3.91008 8.18182 3.73666 8.10998 3.60879 7.98212C3.48093 7.85425 3.40909 7.68083 3.40909 7.5C3.40909 7.31917 3.48093 7.14575 3.60879 7.01788C3.73666 6.89002 3.91008 6.81818 4.09091 6.81818H6.81818V4.09091C6.81818 3.91008 6.89002 3.73666 7.01788 3.60879C7.14575 3.48092 7.31917 3.40909 7.5 3.40909C7.68083 3.40909 7.85425 3.48092 7.98212 3.60879C8.10999 3.73666 8.18182 3.91008 8.18182 4.09091V6.81818H10.9091C11.0899 6.81818 11.2633 6.89002 11.3912 7.01788C11.5191 7.14575 11.5909 7.31917 11.5909 7.5C11.5909 7.68083 11.5191 7.85425 11.3912 7.98212C11.2633 8.10998 11.0899 8.18182 10.9091 8.18182Z" fill="white"/>
</svg>
