<svg width="85" height="15" viewBox="0 0 85 15" fill="none" xmlns="http://www.w3.org/2000/svg">
<path d="M15.6642 5.6253C15.6019 5.43344 15.4871 5.26285 15.3328 5.13285C15.1786 5.00284 14.991 4.91861 14.7914 4.88969L10.6664 4.29013L8.82147 0.555064C8.45739 -0.183696 7.24883 -0.183696 6.88475 0.555064L5.03984 4.29013L0.92462 4.88969C0.725128 4.91867 0.537739 5.00294 0.383681 5.13295C0.229623 5.26296 0.115055 5.43352 0.0529559 5.6253C-0.00948246 5.81704 -0.0168648 6.02244 0.0316483 6.21817C0.0801614 6.41389 0.182623 6.59207 0.327381 6.73245L3.31076 9.63264L2.60763 13.7372C2.57373 13.936 2.59601 14.1404 2.67196 14.3272C2.74791 14.514 2.8745 14.6759 3.03749 14.7947C3.20092 14.9128 3.39406 14.9829 3.59519 14.9973C3.79632 15.0116 3.99745 14.9695 4.17596 14.8757L7.85269 12.9368L11.5404 14.8757C11.6981 14.9589 11.871 15 12.0426 15C12.2713 14.9998 12.4942 14.9281 12.68 14.7948C12.8429 14.676 12.9695 14.5141 13.0454 14.3273C13.1214 14.1405 13.1437 13.9362 13.1099 13.7374L12.4067 9.6328L15.3901 6.73261C15.5347 6.59212 15.6371 6.41389 15.6855 6.21816C15.734 6.02243 15.7266 5.81704 15.6642 5.6253ZM32.9465 5.6253C32.8842 5.43344 32.7694 5.26285 32.6152 5.13285C32.4609 5.00284 32.2733 4.91861 32.0737 4.88969L27.9487 4.29013L26.1038 0.555064C25.7397 -0.183696 24.5311 -0.183696 24.1671 0.555064L22.3222 4.29013L18.2068 4.88969C18.0073 4.91867 17.8199 5.00294 17.6658 5.13295C17.5118 5.26296 17.3972 5.43352 17.3351 5.6253C17.2727 5.81704 17.2653 6.02244 17.3138 6.21817C17.3623 6.41389 17.4648 6.59207 17.6095 6.73245L20.5929 9.63264L19.8898 13.7372C19.8558 13.9361 19.878 14.1404 19.9539 14.3273C20.0299 14.5141 20.1566 14.676 20.3196 14.7947C20.4831 14.9128 20.6762 14.9829 20.8773 14.9973C21.0785 15.0116 21.2796 14.9695 21.4581 14.8757L25.1348 12.9368L28.8225 14.8757C28.9803 14.9589 29.1531 15 29.3248 15C29.5535 14.9998 29.7763 14.9281 29.9621 14.7948C30.1251 14.676 30.2516 14.5141 30.3276 14.3273C30.4035 14.1405 30.4258 13.9362 30.392 13.7374L29.6889 9.6328L32.6723 6.73261C32.817 6.59216 32.9194 6.41394 32.9678 6.2182C33.0163 6.02246 33.0089 5.81705 32.9465 5.6253ZM50.2288 5.6253C50.1665 5.43344 50.0517 5.26285 49.8975 5.13285C49.7432 5.00284 49.5557 4.91861 49.356 4.88969L45.2309 4.29013L43.3859 0.555064C43.0219 -0.183696 41.8133 -0.183696 41.4492 0.555064L39.6043 4.29013L35.4889 4.88969C35.2894 4.91867 35.102 5.00294 34.948 5.13295C34.7939 5.26296 34.6794 5.43352 34.6173 5.6253C34.5548 5.81704 34.5474 6.02244 34.596 6.21817C34.6445 6.41389 34.7469 6.59207 34.8917 6.73245L37.8751 9.63264L37.1719 13.7372C37.1379 13.9361 37.1601 14.1404 37.2361 14.3273C37.3121 14.5141 37.4387 14.676 37.6018 14.7947C37.7652 14.9128 37.9584 14.9829 38.1595 14.9973C38.3606 15.0116 38.5618 14.9695 38.7403 14.8757L42.4172 12.9368L46.1048 14.8757C46.2626 14.9589 46.4354 15 46.6071 15C46.8358 14.9998 47.0586 14.9281 47.2445 14.7948C47.4074 14.676 47.534 14.5141 47.6099 14.3273C47.6858 14.1405 47.7081 13.9362 47.6743 13.7374L46.9712 9.6328L49.9546 6.73261C50.0993 6.59216 50.2017 6.41394 50.2502 6.2182C50.2986 6.02246 50.2913 5.81705 50.2288 5.6253ZM67.5112 5.62414C67.4488 5.43228 67.3341 5.26169 67.1798 5.13169C67.0255 5.00169 66.838 4.91745 66.6383 4.88853L62.5133 4.28897L60.6684 0.55407C60.3044 -0.18469 59.0958 -0.18469 58.7317 0.55407L56.8868 4.28913L52.7714 4.88869C52.5719 4.91767 52.3845 5.00194 52.2305 5.13195C52.0764 5.26197 51.9618 5.43252 51.8997 5.62431C51.8373 5.81604 51.8299 6.02145 51.8784 6.21717C51.927 6.41289 52.0294 6.59108 52.1742 6.73145L55.1576 9.63164L54.4544 13.7363C54.4205 13.9351 54.4428 14.1394 54.5188 14.3262C54.5947 14.513 54.7213 14.6749 54.8843 14.7937C55.0477 14.9118 55.2409 14.9819 55.442 14.9962C55.6431 15.0105 55.8442 14.9684 56.0228 14.8747L59.6997 12.9358L63.3873 14.8747C63.5451 14.9579 63.7179 14.999 63.8896 14.999C64.1183 14.9988 64.3411 14.9271 64.527 14.7939C64.6899 14.675 64.8164 14.5131 64.8924 14.3263C64.9683 14.1395 64.9906 13.9352 64.9568 13.7364L64.2537 9.63181L67.2371 6.73162C67.3817 6.59112 67.4841 6.41286 67.5326 6.2171C67.581 6.02133 67.5736 5.8159 67.5112 5.62414ZM84.7935 5.6253C84.7312 5.43344 84.6164 5.26285 84.4621 5.13285C84.3079 5.00284 84.1203 4.91861 83.9207 4.88969L79.7957 4.2903L77.9508 0.555231C77.5867 -0.183529 76.3781 -0.183529 76.014 0.555231L74.1691 4.2903L70.0537 4.88969C69.8543 4.9187 69.6669 5.00299 69.5128 5.13299C69.3588 5.263 69.2442 5.43354 69.1821 5.6253C69.1196 5.81704 69.1123 6.02244 69.1608 6.21817C69.2093 6.41389 69.3117 6.59207 69.4565 6.73245L72.4399 9.63264L71.7367 13.7372C71.7028 13.936 71.7251 14.1404 71.8011 14.3272C71.877 14.514 72.0036 14.6759 72.1666 14.7947C72.3301 14.9127 72.5232 14.9829 72.7243 14.9972C72.9254 15.0115 73.1266 14.9694 73.3051 14.8757L76.982 12.9368L80.6696 14.8757C80.8274 14.9589 81.0002 15 81.1719 15C81.4006 14.9998 81.6234 14.9281 81.8093 14.7948C81.9722 14.676 82.0988 14.5141 82.1747 14.3273C82.2506 14.1405 82.273 13.9362 82.2391 13.7374L81.536 9.6328L84.5194 6.73261C84.664 6.59212 84.7664 6.41389 84.8148 6.21816C84.8633 6.02243 84.8559 5.81704 84.7935 5.6253ZM79.6195 8.48008C79.4937 8.6023 79.3996 8.75329 79.3452 8.92002C79.2908 9.08675 79.2778 9.26421 79.3073 9.43709L79.7372 11.9452L77.4829 10.7603C77.3282 10.6784 77.1557 10.6358 76.9807 10.636C76.8056 10.6358 76.6331 10.6784 76.4784 10.7603L74.2361 11.942L74.6659 9.43726C74.6956 9.26438 74.6826 9.08688 74.6282 8.92013C74.5738 8.75338 74.4796 8.6024 74.3537 8.48025L72.5348 6.71206L75.0418 6.34699C75.2149 6.32165 75.3793 6.25465 75.5208 6.15174C75.6623 6.04883 75.7767 5.9131 75.8541 5.75621L76.9807 3.47381L78.1072 5.75621C78.1845 5.9134 78.299 6.04936 78.4407 6.1523C78.5824 6.25525 78.7471 6.32207 78.9205 6.34699L81.4372 6.71322L79.6195 8.48008Z" fill="#7E7E7E"/>
<path d="M15.6642 5.6253C15.6019 5.43344 15.4871 5.26285 15.3328 5.13285C15.1786 5.00284 14.991 4.91861 14.7914 4.88969L10.6664 4.29013L8.82147 0.555064C8.45739 -0.183696 7.24883 -0.183696 6.88475 0.555064L5.03984 4.29013L0.92462 4.88969C0.725128 4.91867 0.537739 5.00294 0.383681 5.13295C0.229623 5.26296 0.115055 5.43352 0.0529559 5.6253C-0.00948246 5.81704 -0.0168648 6.02244 0.0316483 6.21817C0.0801614 6.41389 0.182623 6.59207 0.327381 6.73245L3.31076 9.63264L2.60763 13.7372C2.57373 13.936 2.59601 14.1404 2.67196 14.3272C2.74791 14.514 2.8745 14.6759 3.0375 14.7947C3.20092 14.9128 3.39406 14.9829 3.59519 14.9973C3.79632 15.0116 3.99745 14.9695 4.17596 14.8757L7.85269 12.9368L11.5404 14.8757C11.6981 14.9589 11.871 15 12.0426 15C12.2713 14.9998 12.4942 14.9281 12.68 14.7948C12.8429 14.676 12.9695 14.5141 13.0454 14.3273C13.1214 14.1405 13.1437 13.9362 13.1099 13.7374L12.4067 9.6328L15.3901 6.73261C15.5347 6.59212 15.6371 6.41389 15.6855 6.21816C15.734 6.02243 15.7266 5.81704 15.6642 5.6253ZM32.9465 5.6253C32.8842 5.43344 32.7694 5.26285 32.6152 5.13285C32.4609 5.00284 32.2733 4.91861 32.0737 4.88969L27.9487 4.29013L26.1038 0.555064C25.7397 -0.183696 24.5311 -0.183696 24.1671 0.555064L22.3222 4.29013L18.2068 4.88969C18.0073 4.91867 17.8199 5.00294 17.6658 5.13295C17.5118 5.26296 17.3972 5.43352 17.3351 5.6253C17.2727 5.81704 17.2653 6.02244 17.3138 6.21817C17.3623 6.41389 17.4648 6.59207 17.6095 6.73245L20.5929 9.63264L19.8898 13.7372C19.8558 13.9361 19.878 14.1404 19.9539 14.3273C20.0299 14.5141 20.1566 14.676 20.3196 14.7947C20.4831 14.9128 20.6762 14.9829 20.8773 14.9973C21.0785 15.0116 21.2796 14.9695 21.4581 14.8757L25.1348 12.9368L28.8225 14.8757C28.9803 14.9589 29.1531 15 29.3248 15C29.5535 14.9998 29.7763 14.9281 29.9621 14.7948C30.1251 14.676 30.2516 14.5141 30.3276 14.3273C30.4035 14.1405 30.4258 13.9362 30.392 13.7374L29.6889 9.6328L32.6723 6.73261C32.817 6.59216 32.9194 6.41394 32.9678 6.2182C33.0163 6.02246 33.0089 5.81705 32.9465 5.6253ZM50.2288 5.6253C50.1665 5.43344 50.0517 5.26285 49.8975 5.13285C49.7432 5.00284 49.5557 4.91861 49.356 4.88969L45.2309 4.29013L43.3859 0.555064C43.0219 -0.183696 41.8133 -0.183696 41.4492 0.555064L39.6043 4.29013L35.4889 4.88969C35.2894 4.91867 35.102 5.00294 34.948 5.13295C34.7939 5.26296 34.6794 5.43352 34.6173 5.6253C34.5548 5.81704 34.5474 6.02244 34.596 6.21817C34.6445 6.41389 34.7469 6.59207 34.8917 6.73245L37.8751 9.63264L37.1719 13.7372C37.1379 13.9361 37.1601 14.1404 37.2361 14.3273C37.3121 14.5141 37.4387 14.676 37.6018 14.7947C37.7652 14.9128 37.9584 14.9829 38.1595 14.9973C38.3606 15.0116 38.5618 14.9695 38.7403 14.8757L42.4172 12.9368L46.1048 14.8757C46.2626 14.9589 46.4354 15 46.6071 15C46.8358 14.9998 47.0586 14.9281 47.2445 14.7948C47.4074 14.676 47.534 14.5141 47.6099 14.3273C47.6858 14.1405 47.7082 13.9362 47.6743 13.7374L46.9712 9.6328L49.9546 6.73261C50.0993 6.59216 50.2017 6.41394 50.2502 6.2182C50.2986 6.02246 50.2913 5.81705 50.2288 5.6253ZM67.5112 5.62414C67.4488 5.43228 67.3341 5.26169 67.1798 5.13169C67.0255 5.00169 66.838 4.91745 66.6383 4.88853L62.5133 4.28897L60.6684 0.55407C60.3044 -0.18469 59.0958 -0.18469 58.7317 0.55407L56.8868 4.28913L52.7714 4.88869C52.5719 4.91767 52.3845 5.00194 52.2305 5.13195C52.0764 5.26197 51.9619 5.43252 51.8998 5.62431C51.8373 5.81604 51.8299 6.02145 51.8784 6.21717C51.927 6.41289 52.0294 6.59108 52.1742 6.73145L55.1576 9.63164L54.4544 13.7363C54.4205 13.9351 54.4428 14.1394 54.5188 14.3262C54.5947 14.513 54.7213 14.6749 54.8843 14.7937C55.0477 14.9118 55.2409 14.9819 55.442 14.9962C55.6431 15.0105 55.8442 14.9684 56.0228 14.8747L59.6997 12.9358L63.3873 14.8747C63.5451 14.9579 63.7179 14.999 63.8896 14.999C64.1183 14.9988 64.3411 14.9271 64.527 14.7939C64.6899 14.675 64.8164 14.5131 64.8924 14.3263C64.9683 14.1395 64.9906 13.9352 64.9568 13.7364L64.2537 9.63181L67.2371 6.73162C67.3817 6.59112 67.4841 6.41286 67.5326 6.2171C67.581 6.02133 67.5736 5.8159 67.5112 5.62414Z" fill="#FCB800"/>
</svg>
