<svg width="21" height="21" viewBox="0 0 21 21" fill="none" xmlns="http://www.w3.org/2000/svg">
<path d="M10.5 1.59961C12.5541 1.60001 14.5449 2.31072 16.1349 3.61124C17.7249 4.91177 18.8162 6.72209 19.224 8.73535C19.6317 10.7486 19.3307 12.8409 18.372 14.6576C17.4133 16.4743 15.8559 17.9035 13.9638 18.7031C11.7882 19.6218 9.33674 19.6385 7.14877 18.7497C4.9608 17.8609 3.21552 16.1394 2.29688 13.9638C1.37823 11.7882 1.36146 9.33674 2.25026 7.14877C3.13906 4.9608 4.86063 3.21552 7.03623 2.29688C8.13212 1.83368 9.31025 1.59652 10.5 1.59961ZM10.5 0C4.70121 0 0 4.70121 0 10.5C0 16.2988 4.70121 21 10.5 21C16.2988 21 21 16.2988 21 10.5C21 4.70121 16.2988 0 10.5 0Z" fill="#CFCCCC"/>
<path d="M12.0185 6.27683C12.0185 5.4379 11.3384 4.75781 10.4995 4.75781C9.66055 4.75781 8.98047 5.4379 8.98047 6.27683C8.98047 7.11575 9.66055 7.79584 10.4995 7.79584C11.3384 7.79584 12.0185 7.11575 12.0185 6.27683Z" fill="#CFCCCC"/>
<path d="M12.0185 10.4995C12.0185 9.66055 11.3384 8.98047 10.4995 8.98047C9.66055 8.98047 8.98047 9.66055 8.98047 10.4995C8.98047 11.3384 9.66055 12.0185 10.4995 12.0185C11.3384 12.0185 12.0185 11.3384 12.0185 10.4995Z" fill="#CFCCCC"/>
<path d="M12.0185 14.7231C12.0185 13.8842 11.3384 13.2041 10.4995 13.2041C9.66055 13.2041 8.98047 13.8842 8.98047 14.7231C8.98047 15.562 9.66055 16.2421 10.4995 16.2421C11.3384 16.2421 12.0185 15.562 12.0185 14.7231Z" fill="#CFCCCC"/>
</svg>
