<svg width="36" height="26" viewBox="0 0 36 26" fill="none" xmlns="http://www.w3.org/2000/svg">
<path d="M30.9636 0H4.49091C2.00909 0 0 2.00909 0 4.49091V21.5091C0 23.9909 2.00909 26 4.49091 26H30.9636C33.4455 26 35.4545 23.9909 35.4545 21.5091V4.49091C35.4545 2.00909 33.4455 0 30.9636 0ZM33.0909 21.5091C33.0909 22.6791 32.1336 23.6364 30.9636 23.6364H4.49091C3.32091 23.6364 2.36364 22.6791 2.36364 21.5091V4.49091C2.36364 3.32091 3.32091 2.36364 4.49091 2.36364H30.9636C32.1336 2.36364 33.0909 3.32091 33.0909 4.49091V21.5091Z" fill="#FCB800"/>
<path d="M10.6378 18.9089H5.91056C5.59712 18.9089 5.29653 19.0334 5.07489 19.2551C4.85326 19.4767 4.72874 19.7773 4.72874 20.0908C4.72874 20.4042 4.85326 20.7048 5.07489 20.9264C5.29653 21.1481 5.59712 21.2726 5.91056 21.2726H10.6378C10.9513 21.2726 11.2519 21.1481 11.4735 20.9264C11.6951 20.7048 11.8197 20.4042 11.8197 20.0908C11.8197 19.7773 11.6951 19.4767 11.4735 19.2551C11.2519 19.0334 10.9513 18.9089 10.6378 18.9089ZM29.5469 5.90894H5.91056C5.59712 5.90894 5.29653 6.03345 5.07489 6.25508C4.85326 6.47672 4.72874 6.77732 4.72874 7.09075C4.72874 7.40419 4.85326 7.70479 5.07489 7.92642C5.29653 8.14806 5.59712 8.27257 5.91056 8.27257H29.5469C29.8604 8.27257 30.161 8.14806 30.3826 7.92642C30.6042 7.70479 30.7287 7.40419 30.7287 7.09075C30.7287 6.77732 30.6042 6.47672 30.3826 6.25508C30.161 6.03345 29.8604 5.90894 29.5469 5.90894Z" fill="#FCB800"/>
</svg>
