<svg width="24" height="24" viewBox="0 0 24 24" fill="none" xmlns="http://www.w3.org/2000/svg">
<path d="M12 1C5.93457 1 1 5.93457 1 12C1 18.0654 5.93457 23 12 23C18.0654 23 23 18.0654 23 12C23 5.93457 18.0654 1 12 1ZM12 21.625C6.69276 21.625 2.375 17.3072 2.375 12C2.375 6.69276 6.69276 2.375 12 2.375C17.3072 2.375 21.625 6.69276 21.625 12C21.625 17.3072 17.3072 21.625 12 21.625ZM17.7946 15.3516C16.5926 17.4332 14.4265 18.676 12.0002 18.676C9.57377 18.6761 7.4075 17.4333 6.20545 15.3516C6.01557 15.0228 6.12819 14.6023 6.45699 14.4124C6.78587 14.2226 7.20632 14.3352 7.39611 14.664C8.34963 16.3152 10.0708 17.3011 12.0001 17.301C13.9294 17.301 15.6504 16.3152 16.6038 14.664C16.7937 14.3351 17.2142 14.2225 17.543 14.4124C17.8718 14.6023 17.9844 15.0227 17.7946 15.3516ZM6.09945 9.29052C6.09945 8.53203 6.71652 7.91492 7.47505 7.91492C8.23357 7.91492 8.85065 8.53199 8.85065 9.29052C8.85065 10.049 8.23357 10.6661 7.47505 10.6661C6.71652 10.6661 6.09945 10.049 6.09945 9.29052ZM17.9006 9.29052C17.9006 10.049 17.2835 10.6661 16.525 10.6661C15.7665 10.6661 15.1494 10.049 15.1494 9.29052C15.1494 8.53199 15.7665 7.91492 16.525 7.91492C17.2835 7.91496 17.9006 8.53203 17.9006 9.29052Z" fill="#BBC3D2" stroke="#BBC3D2" stroke-width="0.5"/>
</svg>
