<svg width="35" height="35" viewBox="0 0 35 35" fill="none" xmlns="http://www.w3.org/2000/svg">
<circle cx="17.5" cy="17.5" r="17.5" fill="#DB2302" fill-opacity="0.03"/>
<path d="M23.75 13.4849C21.2525 13.2374 18.74 13.1099 16.235 13.1099C14.75 13.1099 13.265 13.1849 11.78 13.3349L10.25 13.4849" stroke="#DB2302" stroke-width="1.5" stroke-linecap="round" stroke-linejoin="round"/>
<path d="M14.375 12.7275L14.54 11.745C14.66 11.0325 14.75 10.5 16.0175 10.5H17.9825C19.25 10.5 19.3475 11.0625 19.46 11.7525L19.625 12.7275" stroke="#DB2302" stroke-width="1.5" stroke-linecap="round" stroke-linejoin="round"/>
<path d="M22.1383 15.855L21.6508 23.4075C21.5683 24.585 21.5008 25.5 19.4083 25.5H14.5933C12.5008 25.5 12.4333 24.585 12.3508 23.4075L11.8633 15.855" stroke="#DB2302" stroke-width="1.5" stroke-linecap="round" stroke-linejoin="round"/>
<path d="M15.748 21.375H18.2455" stroke="#DB2302" stroke-width="1.5" stroke-linecap="round" stroke-linejoin="round"/>
<path d="M15.125 18.375H18.875" stroke="#DB2302" stroke-width="1.5" stroke-linecap="round" stroke-linejoin="round"/>
</svg>
