<svg width="20" height="20" viewBox="0 0 20 20" fill="none" xmlns="http://www.w3.org/2000/svg">
<path d="M10 0C4.47801 0 0 4.47801 0 10C0 15.522 4.47801 20 10 20C15.522 20 20 15.522 20 10C20 4.47801 15.522 0 10 0ZM7.09414 15.1172H4.65867V7.79008H7.0941L7.09414 15.1172ZM5.87645 6.78953H5.86059C5.04332 6.78953 4.51477 6.22695 4.51477 5.52383C4.51477 4.80484 5.05949 4.25781 5.89266 4.25781C6.72578 4.25781 7.23848 4.80484 7.25434 5.52383C7.25434 6.22695 6.72578 6.78957 5.87645 6.78957V6.78953ZM15.8759 15.1172H13.4407V11.1973C13.4407 10.2123 13.0881 9.54039 12.2069 9.54039C11.5341 9.54039 11.1335 9.99359 10.9574 10.4311C10.893 10.5876 10.8773 10.8064 10.8773 11.0254V15.1172H8.44195C8.44195 15.1172 8.47387 8.47746 8.44195 7.79008H10.8773V8.8275C11.2009 8.32828 11.78 7.61812 13.0721 7.61812C14.6745 7.61812 15.8759 8.66531 15.8759 10.9158V15.1172Z" fill="black"/>
</svg>
