<svg width="35" height="35" viewBox="0 0 35 35" fill="none" xmlns="http://www.w3.org/2000/svg">
<circle opacity="0.05" cx="17.5" cy="17.5" r="17.5" fill="#022335"/>
<path d="M16.25 10.5H14.75C11 10.5 9.5 12 9.5 15.75V20.25C9.5 24 11 25.5 14.75 25.5H19.25C23 25.5 24.5 24 24.5 20.25V18.75" stroke="#022335" stroke-width="1.5" stroke-linecap="round" stroke-linejoin="round"/>
<path d="M20.0304 11.2649L14.1204 17.1749C13.8954 17.3999 13.6704 17.8424 13.6254 18.1649L13.3029 20.4224C13.1829 21.2399 13.7604 21.8099 14.5779 21.6974L16.8354 21.3749C17.1504 21.3299 17.5929 21.1049 17.8254 20.8799L23.7354 14.9699C24.7554 13.9499 25.2354 12.7649 23.7354 11.2649C22.2354 9.76495 21.0504 10.2449 20.0304 11.2649Z" stroke="#022335" stroke-width="1.5" stroke-miterlimit="10" stroke-linecap="round" stroke-linejoin="round"/>
<path d="M19.1816 12.1123C19.6841 13.9048 21.0866 15.3073 22.8866 15.8173" stroke="#022335" stroke-width="1.5" stroke-miterlimit="10" stroke-linecap="round" stroke-linejoin="round"/>
</svg>
