<svg width="20" height="20" viewBox="0 0 20 20" fill="none" xmlns="http://www.w3.org/2000/svg">
<path d="M11.9141 10C11.9141 11.0571 11.0571 11.9141 10 11.9141C8.94289 11.9141 8.08594 11.0571 8.08594 10C8.08594 8.94289 8.94289 8.08594 10 8.08594C11.0571 8.08594 11.9141 8.94289 11.9141 10Z" fill="black"/>
<path d="M14.477 6.61346C14.3849 6.36404 14.2381 6.13842 14.0474 5.95318C13.8622 5.76244 13.6366 5.61566 13.3871 5.52365C13.1848 5.4451 12.8809 5.35154 12.321 5.32607C11.7154 5.29846 11.5338 5.29248 10.0006 5.29248C8.46727 5.29248 8.2857 5.2983 7.68023 5.32592C7.12039 5.35154 6.81625 5.44506 6.6141 5.52365C6.36464 5.61562 6.13901 5.76241 5.95383 5.95318C5.76309 6.13842 5.61626 6.36404 5.52414 6.61346C5.44559 6.8158 5.35203 7.1199 5.32656 7.67975C5.29895 8.28521 5.29297 8.46678 5.29297 10.0001C5.29297 11.5333 5.29895 11.7149 5.32656 12.3205C5.35203 12.8804 5.44559 13.1844 5.52414 13.3867C5.61621 13.6361 5.76298 13.8617 5.95367 14.0469C6.13888 14.2377 6.36451 14.3845 6.61395 14.4765C6.81629 14.5552 7.12039 14.6487 7.68023 14.6742C8.2857 14.7018 8.46711 14.7076 10.0005 14.7076C11.534 14.7076 11.7155 14.7018 12.3209 14.6742C12.8807 14.6487 13.1848 14.5552 13.3871 14.4765C13.6348 14.3809 13.8597 14.2346 14.0474 14.0469C14.2351 13.8592 14.3814 13.6343 14.477 13.3867C14.5555 13.1843 14.6491 12.8804 14.6747 12.3205C14.7023 11.7149 14.7081 11.5333 14.7081 10.0001C14.7081 8.46678 14.7023 8.28521 14.6747 7.67975C14.6492 7.1199 14.5557 6.81576 14.477 6.61346ZM10.0006 12.9486C8.37207 12.9486 7.05187 11.6285 7.05187 9.99998C7.05187 8.37143 8.37207 7.05139 10.0006 7.05139C11.6291 7.05139 12.9492 8.37143 12.9492 9.99998C12.9492 11.6285 11.6291 12.9486 10.0006 12.9486ZM13.0658 7.62389C12.6853 7.62389 12.3768 7.31533 12.3768 6.93482C12.3768 6.55432 12.6853 6.24572 13.0658 6.24572C13.4464 6.24572 13.7549 6.55424 13.7549 6.93479C13.7547 7.31533 13.4464 7.62389 13.0658 7.62389Z" fill="black"/>
<path d="M10 0C4.47801 0 0 4.47801 0 10C0 15.522 4.47801 20 10 20C15.522 20 20 15.522 20 10C20 4.47801 15.522 0 10 0ZM15.7075 12.3674C15.6798 12.9787 15.5826 13.396 15.4407 13.7613C15.2931 14.1427 15.0676 14.4892 14.7784 14.7784C14.4892 15.0676 14.1427 15.2931 13.7613 15.4407C13.3961 15.5826 12.9787 15.6796 12.3675 15.7075C11.7552 15.7355 11.5596 15.7422 10.0002 15.7422C8.44055 15.7422 8.24508 15.7355 7.63258 15.7075C7.02148 15.6796 6.60402 15.5826 6.23883 15.4407C5.85563 15.2965 5.50852 15.0705 5.22172 14.7783C4.92964 14.4915 4.70364 14.1444 4.55949 13.7613C4.41758 13.3961 4.32039 12.9787 4.29262 12.3675C4.26437 11.755 4.25781 11.5595 4.25781 10C4.25781 8.44055 4.26438 8.24492 4.29246 7.63262C4.3202 7.02133 4.41727 6.60402 4.55918 6.23871C4.70338 5.85554 4.92947 5.50847 5.22168 5.22172C5.50844 4.92954 5.85553 4.70348 6.23871 4.55934C6.60402 4.41742 7.02133 4.32039 7.63262 4.29246C8.24492 4.26453 8.44055 4.25781 10 4.25781C11.5595 4.25781 11.7551 4.26453 12.3674 4.29258C12.9787 4.32039 13.396 4.41742 13.7613 4.55918C14.1445 4.7034 14.4916 4.92949 14.7785 5.22168C15.0706 5.50848 15.2965 5.85557 15.4407 6.23871C15.5827 6.60402 15.6798 7.02133 15.7077 7.63262C15.7356 8.24492 15.7422 8.44055 15.7422 10C15.7422 11.5595 15.7356 11.7551 15.7075 12.3674Z" fill="black"/>
</svg>
