<svg width="17" height="17" viewBox="0 0 17 17" fill="none" xmlns="http://www.w3.org/2000/svg">
<path d="M11.7899 0.642578H5.20563C2.34562 0.642578 0.640625 2.34758 0.640625 5.20758V11.7919C0.640625 14.6519 2.34562 16.3569 5.20563 16.3569H11.7899C14.6499 16.3569 16.3549 14.6519 16.3549 11.7919V5.20758C16.3549 2.34758 14.6499 0.642578 11.7899 0.642578ZM6.90277 10.7783L5.13491 12.5461C5.01705 12.664 4.86777 12.719 4.71848 12.719C4.5692 12.719 4.41205 12.664 4.30205 12.5461L3.71277 11.9569C3.47705 11.729 3.47705 11.3519 3.71277 11.124C3.94062 10.8961 4.30991 10.8961 4.54562 11.124L4.71848 11.2969L6.06991 9.94544C6.29777 9.71758 6.66705 9.71758 6.90277 9.94544C7.13063 10.1733 7.13063 10.5504 6.90277 10.7783ZM6.90277 5.27829L5.13491 7.04615C5.01705 7.16401 4.86777 7.21901 4.71848 7.21901C4.5692 7.21901 4.41205 7.16401 4.30205 7.04615L3.71277 6.45686C3.47705 6.22901 3.47705 5.85186 3.71277 5.62401C3.94062 5.39615 4.30991 5.39615 4.54562 5.62401L4.71848 5.79686L6.06991 4.44544C6.29777 4.21758 6.66705 4.21758 6.90277 4.44544C7.13063 4.67329 7.13063 5.05044 6.90277 5.27829ZM12.8663 12.1297H8.74134C8.4192 12.1297 8.15205 11.8626 8.15205 11.5404C8.15205 11.2183 8.4192 10.9511 8.74134 10.9511H12.8663C13.1963 10.9511 13.4556 11.2183 13.4556 11.5404C13.4556 11.8626 13.1963 12.1297 12.8663 12.1297ZM12.8663 6.62972H8.74134C8.4192 6.62972 8.15205 6.36258 8.15205 6.04043C8.15205 5.71829 8.4192 5.45115 8.74134 5.45115H12.8663C13.1963 5.45115 13.4556 5.71829 13.4556 6.04043C13.4556 6.36258 13.1963 6.62972 12.8663 6.62972Z" fill="#DB2302"/>
</svg>
