<svg width="23" height="33" viewBox="0 0 23 33" fill="none" xmlns="http://www.w3.org/2000/svg">
<path d="M18.3769 8.44071C18.2694 8.26266 18.1065 8.12472 17.9132 8.04799C17.7198 7.97125 17.5067 7.95994 17.3063 8.01579C17.1059 8.07163 16.9293 8.19156 16.8036 8.35724C16.6778 8.52291 16.6097 8.72521 16.6098 8.93323C16.6098 10.0955 15.6642 11.0409 14.5022 11.0409C13.3399 11.0409 12.3945 10.0955 12.3945 8.93323V0.952255C12.3945 0.76389 12.3386 0.579764 12.2339 0.423149C12.1293 0.266534 11.9806 0.144461 11.8065 0.0723586C11.6325 0.000359387 11.441 -0.0184378 11.2563 0.0183423C11.0716 0.0551224 10.9019 0.145829 10.7687 0.279001C10.6621 0.385846 8.12245 2.9399 5.54987 6.79906C4.0329 9.07454 2.82225 11.3317 1.95181 13.5078C0.849275 16.2644 0.290039 18.9038 0.290039 21.3519C0.290039 27.5012 5.29294 32.5041 11.442 32.5041C17.5913 32.5041 22.5942 27.5012 22.5942 21.3519C22.5942 17.4159 21.1752 13.0719 18.3769 8.44071ZM11.442 30.5996C6.34317 30.5996 2.19458 26.451 2.19458 21.3519C2.19458 16.3327 4.86963 11.2591 7.11387 7.88649C8.33024 6.05858 9.55606 4.51806 10.4897 3.42244V8.93323C10.4897 11.1455 12.2896 12.9455 14.502 12.9455C15.8544 12.9455 17.053 12.2728 17.7801 11.2444C19.7119 14.8821 20.6897 18.2751 20.6897 21.3519C20.6897 26.451 16.5413 30.5996 11.442 30.5996Z" fill="#7F818D"/>
<path d="M16.8446 16.0723H12.7647C12.2387 16.0723 11.8124 16.4986 11.8124 17.0243C11.8121 17.5503 12.2387 17.9768 12.7644 17.9768H14.5457L10.4772 22.045L8.26563 19.8335C7.89393 19.4618 7.29082 19.4618 6.91912 19.8335L4.75512 21.9972C4.3831 22.3692 4.3831 22.972 4.75487 23.344C5.12689 23.716 5.72974 23.7157 6.10169 23.344L7.59231 21.8536L9.80367 24.0651C9.98229 24.2437 10.2245 24.344 10.4771 24.344C10.7297 24.344 10.9719 24.2437 11.1505 24.0651L15.8922 19.3236V21.1044C15.8922 21.6302 16.3185 22.0566 16.8444 22.0566C17.3705 22.0566 17.7967 21.6302 17.7967 21.1044V17.0245C17.7967 16.4986 17.3705 16.0723 16.8444 16.0723H16.8446Z" fill="#7F818D"/>
</svg>
