<svg width="20" height="33" viewBox="0 0 20 33" fill="none" xmlns="http://www.w3.org/2000/svg">
<path d="M16.3309 0H3.44118C2.52884 0.00102757 1.65416 0.363909 1.00903 1.00903C0.363909 1.65416 0.00102757 2.52884 0 3.44118V29.5588C0.00102757 30.4712 0.363909 31.3458 1.00903 31.991C1.65416 32.6361 2.52884 32.999 3.44118 33H16.3309C17.2433 32.999 18.118 32.6361 18.7631 31.991C19.4082 31.3458 19.7711 30.4712 19.7721 29.5588V3.44118C19.7711 2.52884 19.4082 1.65416 18.7631 1.00903C18.118 0.363909 17.2433 0.00102757 16.3309 0ZM13.7601 1.23529V2.03365C13.7598 2.1949 13.6956 2.34947 13.5816 2.46347C13.4675 2.57746 13.3129 2.64158 13.1516 2.64176H6.62224C6.46101 2.64158 6.30644 2.57745 6.19244 2.46345C6.07843 2.34944 6.01431 2.19487 6.01412 2.03365V1.23529H13.7601ZM18.5365 29.5588C18.5358 30.1437 18.3032 30.7044 17.8897 31.1179C17.4761 31.5314 16.9154 31.7641 16.3306 31.7647H3.44118C2.85634 31.7641 2.29565 31.5314 1.8821 31.1179C1.46856 30.7044 1.23595 30.1437 1.23529 29.5588V3.44118C1.23595 2.85634 1.46856 2.29565 1.8821 1.8821C2.29565 1.46856 2.85634 1.23595 3.44118 1.23529H4.77741V2.03365C4.77797 2.52238 4.97237 2.99093 5.31795 3.33652C5.66354 3.6821 6.13209 3.8765 6.62082 3.87706H13.1502C13.639 3.8765 14.1076 3.68211 14.4532 3.33654C14.7989 2.99096 14.9933 2.52241 14.994 2.03365V1.23529H16.3309C16.9157 1.23604 17.4763 1.4687 17.8898 1.88223C18.3033 2.29576 18.5358 2.8564 18.5365 3.44118V29.5588Z" fill="#7F818D"/>
</svg>
