<svg width="40" height="33" viewBox="0 0 40 33" fill="none" xmlns="http://www.w3.org/2000/svg">
<path d="M37.125 0H2.22115C1.63227 0.000650901 1.06769 0.234874 0.65128 0.65128C0.234874 1.06769 0.000650901 1.63227 0 2.22115V25.7019C0.000650901 26.2908 0.234874 26.8554 0.65128 27.2718C1.06769 27.6882 1.63227 27.9224 2.22115 27.9231H15.0912L14.7104 29.8269H12.0577C11.8894 29.8269 11.728 29.8938 11.609 30.0128C11.4899 30.1318 11.4231 30.2932 11.4231 30.4615V32.3654C11.4231 32.5337 11.4899 32.6951 11.609 32.8141C11.728 32.9331 11.8894 33 12.0577 33H27.2885C27.4568 33 27.6182 32.9331 27.7372 32.8141C27.8562 32.6951 27.9231 32.5337 27.9231 32.3654V30.4615C27.9231 30.2932 27.8562 30.1318 27.7372 30.0128C27.6182 29.8938 27.4568 29.8269 27.2885 29.8269H24.6358L24.255 27.9231H37.125C37.7139 27.9224 38.2785 27.6882 38.6949 27.2718C39.1113 26.8554 39.3455 26.2908 39.3462 25.7019V2.22115C39.3455 1.63227 39.1113 1.06769 38.6949 0.65128C38.2785 0.234874 37.7139 0.000650901 37.125 0ZM26.6538 31.0962V31.7308H12.6923V31.0962H26.6538ZM16.005 29.8269L16.3858 27.9231H22.9604L23.3412 29.8269H16.005ZM38.0769 25.7019C38.0767 25.9543 37.9764 26.1963 37.7979 26.3748C37.6194 26.5533 37.3774 26.6536 37.125 26.6538H2.22115C1.96875 26.6536 1.72675 26.5533 1.54827 26.3748C1.3698 26.1963 1.26944 25.9543 1.26923 25.7019V24.1154H38.0769V25.7019ZM38.0769 22.8462H1.26923V2.22115C1.26944 1.96875 1.3698 1.72675 1.54827 1.54827C1.72675 1.3698 1.96875 1.26944 2.22115 1.26923H37.125C37.3774 1.26944 37.6194 1.3698 37.7979 1.54827C37.9764 1.72675 38.0767 1.96875 38.0769 2.22115V22.8462Z" fill="#7F818D"/>
<path d="M20.3077 24.75H19.0384C18.8701 24.75 18.7087 24.8169 18.5897 24.9359C18.4707 25.0549 18.4038 25.2163 18.4038 25.3846C18.4038 25.5529 18.4707 25.7143 18.5897 25.8334C18.7087 25.9524 18.8701 26.0192 19.0384 26.0192H20.3077C20.476 26.0192 20.6374 25.9524 20.7564 25.8334C20.8754 25.7143 20.9423 25.5529 20.9423 25.3846C20.9423 25.2163 20.8754 25.0549 20.7564 24.9359C20.6374 24.8169 20.476 24.75 20.3077 24.75Z" fill="#7F818D"/>
</svg>
