<svg width="26" height="33" viewBox="0 0 26 33" fill="none" xmlns="http://www.w3.org/2000/svg">
<path d="M24.75 0H0.55C0.404131 0 0.264236 0.0579462 0.161091 0.161091C0.0579464 0.264236 0 0.404131 0 0.55V30.25C0 30.3959 0.0579464 30.5358 0.161091 30.6389C0.264236 30.742 0.404131 30.8 0.55 30.8V32.45C0.55 32.5959 0.607946 32.7358 0.711091 32.8389C0.814236 32.942 0.954131 33 1.1 33H2.75C2.85173 33.0004 2.95154 32.9723 3.03808 32.9189C3.12461 32.8654 3.1944 32.7887 3.2395 32.6975L4.191 30.8H21.109L22.0605 32.6975C22.1056 32.7887 22.1754 32.8654 22.2619 32.9189C22.3485 32.9723 22.4483 33.0004 22.55 33H24.2C24.3459 33 24.4858 32.942 24.5889 32.8389C24.692 32.7358 24.75 32.5959 24.75 32.45V30.8C24.8959 30.8 25.0358 30.742 25.1389 30.6389C25.2421 30.5358 25.3 30.3959 25.3 30.25V0.55C25.3 0.404131 25.2421 0.264236 25.1389 0.161091C25.0358 0.0579462 24.8959 0 24.75 0ZM1.1 1.1H12.1V24.2H1.1V1.1ZM2.409 31.9H1.65V30.8H2.959L2.409 31.9ZM23.65 31.9H22.891L22.341 30.8H23.65V31.9ZM24.2 29.7H1.1V25.3H24.2V29.7ZM24.2 24.2H13.2V1.1H24.2V24.2Z" fill="#7F818D"/>
<path d="M10.9999 26.3996H14.2999V27.4996H10.9999V26.3996ZM9.8999 9.34961H10.9999V12.6496H9.8999V9.34961ZM14.2999 9.34961H15.3999V12.6496H14.2999V9.34961Z" fill="#7F818D"/>
</svg>
