<svg width="40" height="33" viewBox="0 0 40 33" fill="none" xmlns="http://www.w3.org/2000/svg">
<path d="M29.6678 33H9.64518C9.2211 33 8.87735 32.6562 8.87735 32.2322V13.4079L6.05026 15.6555C5.97134 15.7183 5.88083 15.7648 5.78391 15.7926C5.68698 15.8204 5.58553 15.8288 5.48535 15.8174C5.38517 15.8059 5.28823 15.7749 5.20006 15.726C5.11188 15.6771 5.0342 15.6113 4.97146 15.5323L0.166819 9.48896C-0.097085 9.15702 -0.0418778 8.67398 0.28998 8.41007L8.32566 2.02147C8.36236 1.99237 8.4016 1.96657 8.44291 1.94461C10.6982 0.745105 14.9949 0 19.6565 0C24.3181 0 28.6149 0.745182 30.8701 1.94469C30.9114 1.96665 30.9506 1.99245 30.9872 2.02155L39.023 8.41015C39.3549 8.67406 39.4101 9.1571 39.1462 9.48903L34.3415 15.5324C34.2148 15.6918 34.03 15.7943 33.8277 15.8174C33.6254 15.8405 33.4222 15.7823 33.2628 15.6556L30.4357 13.408V32.2322C30.4356 32.6562 30.0919 33 29.6678 33ZM10.4131 31.4643H28.9V11.8166C28.9001 11.6721 28.9408 11.5306 29.0176 11.4083C29.0944 11.286 29.2042 11.1878 29.3342 11.1251C29.4643 11.0623 29.6095 11.0375 29.753 11.0535C29.8965 11.0695 30.0326 11.1257 30.1457 11.2156L33.6174 13.9757L37.4664 9.13437L30.0884 3.26866C28.0237 2.19869 24.0387 1.53567 19.6565 1.53567C15.2743 1.53567 11.2893 2.19869 9.22464 3.26866L1.84668 9.13437L5.69568 13.9757L9.16736 11.2156C9.28041 11.1257 9.41652 11.0695 9.56006 11.0535C9.7036 11.0375 9.84875 11.0623 9.97883 11.1251C10.1089 11.1878 10.2187 11.286 10.2955 11.4083C10.3723 11.5306 10.413 11.6721 10.413 11.8166V31.4643H10.4131Z" fill="#7F818D"/>
<path d="M9.64435 12.5845C9.26396 12.5845 8.93372 12.302 8.88381 11.9147L8.44584 8.51542C8.39163 8.0948 8.6887 7.70996 9.10924 7.65575C9.52971 7.60147 9.9147 7.89862 9.96891 8.31916L10.4069 11.7184C10.4611 12.1391 10.164 12.5239 9.74347 12.5781C9.71015 12.5824 9.67706 12.5845 9.64435 12.5845ZM29.6689 12.5845C29.6361 12.5845 29.6032 12.5824 29.5698 12.5781C29.1491 12.5239 28.8521 12.1391 28.9064 11.7184L29.3443 8.31916C29.3985 7.89854 29.7835 7.60185 30.204 7.65575C30.6246 7.70996 30.9216 8.0948 30.8674 8.51542L30.4294 11.9147C30.3796 12.3019 30.0492 12.5845 29.6689 12.5845ZM19.6566 6.42469C16.3019 6.42469 13.6741 4.66735 13.6741 2.42397C13.6741 1.77362 13.9038 1.13117 14.3383 0.566123C14.4008 0.484975 14.4788 0.417127 14.5678 0.366571C14.6568 0.316015 14.755 0.283771 14.8567 0.271736C16.3804 0.0914487 17.9953 0 19.6565 0C21.3178 0 22.9327 0.0914487 24.4564 0.271736C24.5581 0.283761 24.6563 0.316001 24.7453 0.366557C24.8344 0.417114 24.9124 0.484966 24.9748 0.566123C25.4093 1.13109 25.639 1.77354 25.639 2.42397C25.6391 4.66735 23.0113 6.42469 19.6566 6.42469ZM15.3888 1.75696C15.2699 1.97563 15.2098 2.199 15.2098 2.42397C15.2098 3.21722 15.9391 3.78787 16.3739 4.05738C17.2389 4.59364 18.4048 4.88902 19.6566 4.88902C20.9084 4.88902 22.0743 4.59364 22.9394 4.05738C23.3741 3.78787 24.1034 3.2173 24.1034 2.42397C24.1034 2.199 24.0434 1.97556 23.9244 1.75696C22.5641 1.60999 21.1303 1.53567 19.6566 1.53567C18.183 1.53567 16.7492 1.61007 15.3888 1.75696Z" fill="#7F818D"/>
</svg>
