<svg width="31" height="36" viewBox="0 0 31 36" fill="none" xmlns="http://www.w3.org/2000/svg">
<path d="M23.3141 2.86993C22.2435 2.58821 21.2293 3.26434 20.9476 4.27852C20.6096 5.68711 19.2573 9.68751 17.4543 11.3215C17.0036 11.4905 15.8767 12.223 12.3834 14.8148L9.73524 11.2088C9.28449 10.6454 8.55202 10.3073 7.8759 10.42L5.73484 6.75764C7.03074 5.68711 7.31246 4.05315 6.41096 2.41918C5.39678 0.785214 3.03034 -0.679721 1.34003 0.334465C-0.293932 1.29231 -0.350275 4.05315 0.720254 5.85614C1.62175 7.37742 3.14303 8.05355 4.83334 7.37742L6.91806 10.9271C6.18559 11.6032 6.0729 12.6737 6.69268 13.5189L10.5241 18.7588C11.2002 19.6603 12.4961 19.8294 13.3976 19.0969C14.4118 18.1954 14.9752 17.7447 15.2569 17.4629C15.9894 19.2096 16.2148 20.6182 15.4823 22.9846C14.8625 25.013 13.7356 27.0414 12.0453 28.3373C10.9748 29.1824 9.34083 30.422 10.4677 32.1686C11.1438 33.2392 12.4961 33.5209 13.5666 32.8448C15.764 31.4362 17.6797 29.1261 18.9193 26.4216C19.0883 29.1824 18.6375 31.2108 17.6797 32.1686C16.8345 33.0138 16.7782 34.4224 17.6797 35.3239C18.5248 36.2254 19.9334 36.2254 20.8349 35.3239C25.2297 30.9854 23.2014 19.2096 20.8913 13.4062C23.4267 10.4763 24.7227 5.68711 24.8353 5.12368C25.0044 4.22218 24.3846 3.15165 23.3141 2.86993ZM1.6781 5.29271C0.832941 3.82777 0.945629 1.85574 1.90347 1.29231C3.03034 0.672527 4.777 1.91209 5.50946 3.0953C6.35462 4.56024 5.6785 5.63077 4.777 6.1942C3.65012 6.81398 2.46691 6.58861 1.6781 5.29271ZM23.6521 4.95464C23.5394 5.51808 22.2435 10.3073 19.7081 13.0118C19.539 13.1808 19.4827 13.4062 19.5954 13.6316C19.5954 13.6879 19.6517 13.6879 19.6517 13.7443C21.8491 19.1532 23.8775 30.6474 19.9334 34.5914C19.539 34.9858 18.8066 34.9858 18.3558 34.5914C17.9051 34.1407 17.9051 33.4645 18.3558 33.0138C19.9898 31.3798 20.1025 28.1682 19.8771 25.7455C19.8771 25.4637 19.5954 25.2384 19.3137 25.2384H18.4685C18.2431 25.2384 18.0178 25.351 17.9614 25.5764C16.8345 28.2809 14.9752 30.5347 12.8341 31.9433C12.327 32.2813 11.6509 32.1123 11.3129 31.6052C10.8058 30.8727 11.3129 30.3093 12.6088 29.2388C14.5244 27.7738 15.764 25.5201 16.4401 23.3227C17.4543 20.0547 16.7219 18.8152 16.0457 16.6741C15.8204 16.167 15.4823 15.998 14.9752 16.2234C14.8062 16.2797 14.9752 16.2234 12.6088 18.2517C12.2707 18.5335 11.6509 18.4771 11.4255 18.1391L7.59418 12.8991C7.31246 12.5047 7.42515 11.9976 7.76321 11.7722C8.10127 11.4905 8.66471 11.6032 8.89009 11.9413L11.8763 15.998C12.0453 16.2234 12.4397 16.3361 12.6651 16.1107C14.8625 14.4204 17.398 12.6174 17.9051 12.392C18.0178 12.392 18.0741 12.3357 18.1868 12.2793C20.6659 10.0819 22.0745 4.67293 22.0745 4.61658C22.1872 4.16583 22.6379 3.94046 23.0887 3.9968C23.4831 4.05315 23.7648 4.5039 23.6521 4.95464Z" fill="#7F818D"/>
<path d="M14.073 11.3779C16.0451 11.3779 17.679 9.80031 17.679 7.77194C17.679 5.74357 16.0451 4.22229 14.073 4.22229C12.101 4.22229 10.467 5.79991 10.467 7.77194C10.467 9.74397 12.101 11.3779 14.073 11.3779ZM14.073 5.34916C15.4253 5.34916 16.5522 6.47604 16.5522 7.82828C16.5522 9.18053 15.4253 10.3074 14.073 10.3074C12.7208 10.3074 11.5939 9.18053 11.5939 7.82828C11.5939 6.47604 12.7208 5.34916 14.073 5.34916ZM28.2716 0.447266C27.0321 0.447266 26.0179 1.46145 26.0179 2.70101C26.0179 3.94057 27.0321 4.95476 28.2716 4.95476C29.5112 4.95476 30.5254 3.94057 30.5254 2.70101C30.5254 1.46145 29.5112 0.447266 28.2716 0.447266ZM28.2716 3.82789C27.6519 3.82789 27.1448 3.32079 27.1448 2.70101C27.1448 2.08123 27.6519 1.57414 28.2716 1.57414C28.8914 1.57414 29.3985 2.08123 29.3985 2.70101C29.3985 3.32079 28.8914 3.82789 28.2716 3.82789Z" fill="#7F818D"/>
</svg>
