<svg width="38" height="33" viewBox="0 0 38 33" fill="none" xmlns="http://www.w3.org/2000/svg">
<path d="M37.8057 29.1249H37.805L37.8063 29.139C37.8101 29.1794 37.8101 29.2201 37.8063 29.2604L37.8051 29.2739L37.8062 29.2874C37.8083 29.311 37.8089 29.3347 37.8083 29.3583C37.744 29.4493 37.6578 29.5229 37.5573 29.572L37.4732 29.6131V29.7067V29.7459L37.4216 29.7827L37.3118 29.8559H36.7831C33.8855 28.8927 30.8098 28.5863 27.779 28.959C24.7545 29.3309 21.8506 30.3698 19.2768 32.0004H18.7109L18.5998 31.9387C16.0191 30.2647 13.0937 29.1951 10.0419 28.8097C6.99644 28.425 3.9036 28.7316 0.993109 29.7063H0.462177L0.371039 29.6494L0.303121 29.5984V29.5737V29.5221L0.271369 29.4814C0.239016 29.44 0.211818 29.3946 0.190435 29.3465L0.190748 29.3464L0.186013 29.3374C0.172806 29.3124 0.161253 29.2864 0.151451 29.2597C0.149128 29.225 0.149594 29.1902 0.15285 29.1556L0.153507 29.1556V29.1415V6.15844C0.169182 6.11355 0.189631 6.07044 0.214516 6.02987L0.240038 5.98826L0.236183 5.9396C0.234222 5.91484 0.233596 5.89001 0.234303 5.86521L0.29362 5.77031L0.344548 5.70239H0.385957H0.427511L0.463141 5.68101L0.616762 5.58883C1.52837 5.26116 2.45649 4.98134 3.3973 4.75052L3.51156 4.72249V4.60484V0.831215C3.51156 0.455218 3.81623 0.150342 4.19214 0.15C10.0158 0.201694 15.4685 3.01693 18.883 7.73486L19.0039 7.90188L19.1256 7.73546C22.5735 3.0212 28.0433 0.209768 33.8836 0.15C34.2594 0.150394 34.564 0.45525 34.564 0.831215V4.72118V4.83898L34.6785 4.8669C35.6117 5.09466 36.5331 5.36857 37.4393 5.68762L37.5732 5.77694L37.611 5.80214H37.6564H37.6978L37.7487 5.87004L37.8081 5.96504C37.8088 5.98972 37.8082 6.01444 37.8062 6.03907L37.805 6.05293L37.8065 6.06676C37.8112 6.11165 37.8112 6.15693 37.8065 6.20182L37.8057 6.20959V6.2174V29.1249ZM1.49934 28.0112V28.2079L1.68906 28.1558C6.29156 26.8919 11.179 27.1467 15.6252 28.8823L15.7856 28.6363C12.7266 25.5876 8.58865 23.8699 4.27152 23.8549L4.2511 23.8345L4.18381 23.8385C4.17003 23.8393 4.15596 23.8397 4.14161 23.8397C3.76539 23.839 3.46099 23.5334 3.46169 23.1573V23.157V6.33374V6.13897L3.27338 6.18871C2.68304 6.34466 2.12547 6.51186 1.60099 6.69046L1.49934 6.72507V6.83245V28.0112ZM3.31169 6.48891V23.157L4.2093 24.0048C8.38292 24.0034 12.3917 25.6086 15.4087 28.4786C15.5174 28.5192 15.626 28.5606 15.7343 28.6028L15.6797 28.7426L15.5738 28.8488C15.4925 28.7677 15.4104 28.6876 15.3275 28.6085C10.9947 27.0009 6.26765 26.7769 1.79934 27.9705V28.0112H1.64934L1.60962 27.8665C1.62286 27.8629 1.6361 27.8593 1.64934 27.8557V6.83245C2.12563 6.67027 2.6298 6.5174 3.16169 6.3738V6.33374H3.31169L3.35 6.47876C3.33721 6.48214 3.32444 6.48552 3.31169 6.48891ZM18.0575 29.0207L18.3234 29.3443V28.9255V9.29282V9.24744L18.2982 9.20967C16.8263 6.99986 14.8662 5.15796 12.5692 3.82627C10.2722 2.49458 7.69978 1.70874 5.05072 1.52945L4.89059 1.51861V1.67911V22.276V22.418L5.03243 22.4257C7.54195 22.5625 9.99565 23.2194 12.2379 24.3547C14.4801 25.49 16.4618 27.0789 18.0575 29.0207ZM19.7024 28.9919V29.4088L19.968 29.0875C21.5721 27.147 23.5603 25.5593 25.8077 24.4243C28.055 23.2892 30.5129 22.6314 33.0267 22.4921L33.1684 22.4843V22.3424V1.67903V1.52903H33.0184H33.0018V1.52863L32.9908 1.52943C30.3434 1.72343 27.7745 2.51528 25.4772 3.84541C23.18 5.17553 21.2143 7.00931 19.7281 9.20876L19.7024 9.24682V9.29274V28.9919ZM36.3037 28.1559L36.3231 28.1612H36.3432H36.3433H36.4933V28.0112V6.83245V6.72441L36.3908 6.69018C35.8337 6.50407 35.2705 6.33678 34.7021 6.18859L34.5142 6.13962V6.33374V23.1571C34.5142 23.5333 34.2092 23.8383 33.833 23.8383H33.8328C29.482 23.8453 25.3099 25.5696 22.2236 28.6362L22.3836 28.8825C26.8265 27.1573 31.7055 26.9027 36.3037 28.1559Z" fill="#7F818D" stroke="white" stroke-width="0.3"/>
</svg>
