<svg width="39" height="30" viewBox="0 0 39 30" fill="none" xmlns="http://www.w3.org/2000/svg">
<path d="M36.7932 11.1304L36.7934 11.1303L35.9571 10.2448L35.9361 10.2226L35.9255 10.194L32.9905 2.28263C32.5125 1.00514 31.2895 0.158018 29.9249 0.15H8.9612C7.59778 0.15 6.37453 1.00424 5.89609 2.28234C5.89606 2.28244 5.89602 2.28253 5.89598 2.28263L3.00201 10.0955L2.98955 10.1292L2.96322 10.1535L1.75801 11.2686L1.75347 11.2728L1.75339 11.2727C0.737365 12.1379 0.15 13.4079 0.15 14.7413V26.2684C0.158012 28.0712 1.62397 29.5294 3.42706 29.5294H5.59153C7.39466 29.5294 8.86063 28.0712 8.86859 26.2683C8.86859 26.2682 8.86859 26.2681 8.86859 26.268L8.86859 24.5962V24.4462H9.01859H29.3514H29.5014V24.5962L29.5014 26.268C29.5014 26.2682 29.5014 26.2683 29.5014 26.2685C29.5095 28.0713 30.9754 29.5294 32.7785 29.5294H34.9429C36.7459 29.5294 38.2118 28.0714 38.22 26.2687C38.22 26.2685 38.22 26.2683 38.22 26.268M36.7932 11.1304L38.37 26.2687L38.22 26.268M36.7932 11.1304L36.7988 11.1357C37.7037 12.0009 38.2119 13.1916 38.22 14.4383M36.7932 11.1304L38.22 14.4383M38.22 26.268V14.4389M38.22 26.268V14.4389M38.22 14.4389C38.22 14.4387 38.22 14.4385 38.22 14.4383M38.22 14.4389L38.22 14.4383M7.15648 2.73471L7.15624 2.73534L4.59824 9.62226L4.52313 9.82449H4.73886H21.1199H21.2494L21.2683 9.69633C21.6194 7.3104 23.4947 5.43514 25.8806 5.08403L25.8809 5.08398C28.8734 4.63711 31.6583 6.70388 32.0971 9.69625L32.116 9.82449H32.2456H34.1559H34.3716L34.2965 9.62226L31.7385 2.73533L31.738 2.73416C31.4536 1.98746 30.7338 1.48974 29.9335 1.48974H8.9612C8.16176 1.48974 7.44116 1.97854 7.15648 2.73471ZM30.573 9.82449H30.7581L30.7198 9.64343C30.3796 8.03598 29.1292 6.78536 27.5297 6.44505L27.5292 6.44495C25.2922 5.97713 23.0972 7.40608 22.6292 9.64378L22.5914 9.82449H22.776H30.573ZM7.52885 26.2699V26.2687V24.5962V24.4462H7.37885H3.42706C2.80077 24.4462 2.1834 24.2951 1.72149 23.9949L1.48974 23.8442V24.1206L1.48974 26.2687L1.48975 26.2699C1.49864 27.3363 2.36104 28.1896 3.42706 28.1896H5.59153C6.65755 28.1896 7.51995 27.3363 7.52885 26.2699ZM36.8803 26.2699V26.2687V24.1206V23.8442L36.6485 23.9949C36.1866 24.2951 35.5692 24.4462 34.9429 24.4462H30.9912H30.8412V24.5962L30.8411 26.2687L30.8412 26.27C30.85 27.3277 31.712 28.1896 32.7785 28.1896H34.9429C36.009 28.1896 36.8714 27.3363 36.8803 26.2699ZM36.8815 21.0519H36.8721V14.4379C36.8721 13.557 36.5065 12.7108 35.8689 12.1014C35.8612 12.0916 35.8537 12.0841 35.848 12.0788C35.8415 12.0728 35.835 12.0675 35.8303 12.0639L35.8233 12.0564L35.0363 11.212L34.9918 11.1642H34.9265H3.87799H3.81851L3.77519 11.205L2.66016 12.2544L2.66012 12.2544L2.6569 12.2576L2.62849 12.286C1.90923 12.8964 1.48974 13.7972 1.48974 14.7413L1.48974 21.2019L1.48975 21.2031C1.49864 22.2704 2.37025 23.1149 3.42763 23.1064H34.9424C36.0002 23.1149 36.8714 22.2617 36.8802 21.2031L36.8815 21.0519Z" fill="#7F818D" stroke="white" stroke-width="0.3"/>
<path d="M10.0023 19.0071H10.1523V18.8571V16.2335V16.0835H10.0023H5.49302H5.34302V16.2335V18.8571V19.0071H5.49302H10.0023ZM32.8767 19.0071H33.0267V18.8571V16.2335V16.0835H32.8767H28.3674H28.2174V16.2335V18.8571V19.0071H28.3674H32.8767ZM4.67314 14.7438H10.8222C11.1903 14.7438 11.4921 15.0455 11.4921 15.4136V19.677C11.4921 20.045 11.1903 20.3468 10.8222 20.3468H4.67314C4.30506 20.3468 4.00327 20.045 4.00327 19.677V15.4136C4.00327 15.0455 4.30506 14.7438 4.67314 14.7438ZM27.5476 14.7438H33.6966C34.0647 14.7438 34.3665 15.0455 34.3665 15.4136V19.677C34.3665 20.045 34.0647 20.3468 33.6966 20.3468H27.5476C27.1795 20.3468 26.8777 20.045 26.8777 19.677V15.4136C26.8777 15.0455 27.1795 14.7438 27.5476 14.7438ZM15.2249 18.1872H23.1449C23.5129 18.1872 23.8147 18.489 23.8147 18.8571C23.8147 19.2252 23.5129 19.527 23.1449 19.527H15.2249C14.8568 19.527 14.555 19.2252 14.555 18.8571C14.555 18.489 14.8568 18.1872 15.2249 18.1872ZM15.2249 15.6456H23.1449C23.5129 15.6456 23.8147 15.9474 23.8147 16.3155C23.8147 16.6836 23.5129 16.9854 23.1449 16.9854H15.2249C14.8568 16.9854 14.555 16.6836 14.555 16.3155C14.555 15.9474 14.8568 15.6456 15.2249 15.6456Z" fill="#7F818D" stroke="white" stroke-width="0.3"/>
</svg>
