<svg width="16" height="16" viewBox="0 0 16 16" fill="none" xmlns="http://www.w3.org/2000/svg">
<path d="M4.17392 0H0.463769C0.207628 0 0 0.207629 0 0.463769V4.17392C0 4.43006 0.207628 4.63769 0.463769 4.63769H4.17392C4.43006 4.63769 4.63769 4.43006 4.63769 4.17392V0.463769C4.63769 0.207629 4.43006 0 4.17392 0ZM9.73914 0H6.02899C5.77285 0 5.56523 0.207629 5.56523 0.463769V4.17392C5.56523 4.43006 5.77285 4.63769 6.02899 4.63769H9.73914C9.99528 4.63769 10.2029 4.43006 10.2029 4.17392V0.463769C10.2029 0.207629 9.99528 0 9.73914 0ZM4.17392 5.56523H0.463769C0.207628 5.56523 0 5.77285 0 6.02899V9.73914C0 9.99528 0.207628 10.2029 0.463769 10.2029H4.17392C4.43006 10.2029 4.63769 9.99528 4.63769 9.73914V6.02899C4.63769 5.77285 4.43006 5.56523 4.17392 5.56523ZM9.73914 5.56523H6.02899C5.77285 5.56523 5.56523 5.77285 5.56523 6.02899V9.73914C5.56523 9.99528 5.77285 10.2029 6.02899 10.2029H9.73914C9.99528 10.2029 10.2029 9.99528 10.2029 9.73914V6.02899C10.2029 5.77285 9.99528 5.56523 9.73914 5.56523ZM15.3044 0H11.5942C11.3381 0 11.1305 0.207629 11.1305 0.463769V4.17392C11.1305 4.43006 11.3381 4.63769 11.5942 4.63769H15.3044C15.5605 4.63769 15.7681 4.43006 15.7681 4.17392V0.463769C15.7681 0.207629 15.5605 0 15.3044 0ZM15.3044 5.56523H11.5942C11.3381 5.56523 11.1305 5.77285 11.1305 6.02899V9.73914C11.1305 9.99528 11.3381 10.2029 11.5942 10.2029H15.3044C15.5605 10.2029 15.7681 9.99528 15.7681 9.73914V6.02899C15.7681 5.77285 15.5605 5.56523 15.3044 5.56523ZM4.17392 11.3623H0.463769C0.207628 11.3623 0 11.5699 0 11.8261V15.5362C0 15.7924 0.207628 16 0.463769 16H4.17392C4.43006 16 4.63769 15.7924 4.63769 15.5362V11.8261C4.63769 11.5699 4.43006 11.3623 4.17392 11.3623ZM9.73914 11.3623H6.02899C5.77285 11.3623 5.56523 11.5699 5.56523 11.8261V15.5362C5.56523 15.7924 5.77285 16 6.02899 16H9.73914C9.99528 16 10.2029 15.7924 10.2029 15.5362V11.8261C10.2029 11.5699 9.99528 11.3623 9.73914 11.3623ZM15.3044 11.3623H11.5942C11.3381 11.3623 11.1305 11.5699 11.1305 11.8261V15.5362C11.1305 15.7924 11.3381 16 11.5942 16H15.3044C15.5605 16 15.7681 15.7924 15.7681 15.5362V11.8261C15.7681 11.5699 15.5605 11.3623 15.3044 11.3623Z" fill="#DB2302"/>
</svg>
