<svg width="33" height="28" viewBox="0 0 33 28" fill="none" xmlns="http://www.w3.org/2000/svg">
<path d="M16.1931 3.11428L16.0163 3.29105L15.8395 3.11428C14.1312 1.4059 12.0931 0.463375 9.71588 0.280514C7.34076 0.0978127 5.29193 0.73538 3.55313 2.19056C2.08747 3.45304 1.11696 4.93273 0.631685 6.63118C0.143492 8.33986 0.124494 9.9907 0.56964 11.5892C1.01734 13.1968 1.78875 14.5656 2.8829 15.7006C2.88319 15.7009 2.88348 15.7012 2.88377 15.7015L13.8181 26.8232C13.8183 26.8235 13.8185 26.8237 13.8188 26.8239C14.4399 27.4447 15.1683 27.75 16.0163 27.75C16.8643 27.75 17.5927 27.4447 18.2138 26.8239C18.2141 26.8237 18.2143 26.8235 18.2145 26.8232L29.1488 15.7015C29.1491 15.7012 29.1494 15.7009 29.1497 15.7005C30.2444 14.565 31.0157 13.2062 31.4632 11.6196C31.9079 10.043 31.8893 8.39225 31.4007 6.66168C30.9152 4.94221 29.9445 3.45253 28.4795 2.1906C26.7407 0.73539 24.6919 0.0978107 22.3167 0.280514C19.9395 0.463375 17.9015 1.4059 16.1931 3.11428ZM27.3836 13.9238L27.3816 13.9258L16.3925 25.0397C16.3133 25.1406 16.1895 25.25 16.0163 25.25C15.8431 25.25 15.7193 25.1406 15.6401 25.0397L4.65103 13.9258L4.65102 13.9258L4.64906 13.9238C3.39358 12.625 2.7663 11.0305 2.7663 9.15625C2.7663 7.26518 3.55224 5.58747 5.09465 4.13075L5.10211 4.1237L5.11013 4.11728C6.41123 3.07641 7.92222 2.62109 9.62899 2.75072C11.3364 2.88039 12.799 3.57421 14.0071 4.82476L16.0163 6.83395L18.0255 4.82473C19.2336 3.5742 20.6963 2.88039 22.4036 2.75072C24.1104 2.62109 25.6214 3.07641 26.9225 4.11728L26.9305 4.1237L26.938 4.13075C28.4804 5.58747 29.2663 7.26518 29.2663 9.15625C29.2663 11.0305 28.639 12.625 27.3835 13.9238L27.3836 13.9238Z" fill="white" stroke="#022335" stroke-width="0.5"/>
</svg>
