<svg width="23" height="23" viewBox="0 0 23 23" fill="none" xmlns="http://www.w3.org/2000/svg">
<path d="M19.7259 7.71864V3.37853C19.7259 0.883616 17.9846 0 16.3473 0H6.62755C4.99026 0 3.24902 0.883616 3.24902 3.37853V7.71864C2.05354 8.03051 1.16992 9.09605 1.16992 10.3955V17.3605C1.16992 19.4136 2.54732 20.2192 3.89874 20.2972V22.0644C3.89874 22.5842 4.31455 23 4.83433 23H5.79591C6.31568 23 6.7315 22.5842 6.7315 22.0644V20.2972H16.2694V22.0644C16.2694 22.5842 16.6852 23 17.205 23H18.1665C18.6863 23 19.1021 22.5842 19.1021 22.0644V20.2972C21.1033 20.1932 21.8309 18.7379 21.8309 17.3605V10.3695C21.779 9.09605 20.8953 8.00452 19.7259 7.71864ZM4.18461 3.37853C4.18461 1.24746 5.71794 0.909605 6.62755 0.909605H16.3473C17.2569 0.909605 18.7903 1.22147 18.7903 3.35254V7.61469C17.3869 7.74463 16.2694 8.91412 16.2694 10.3695V11.0192H6.70551V10.3695C6.70551 8.91412 5.588 7.74463 4.18461 7.61469V3.37853ZM16.2434 11.9548V15.1774H6.70551V11.9548H16.2434ZM5.79591 22.0644H4.83433V20.2972H5.79591V22.0644ZM18.1405 22.0644H17.179V20.2972H18.1405V22.0644ZM20.8953 17.3605H20.8694C20.8694 18.2701 20.5315 19.3876 18.8422 19.3876H18.1405H17.179H5.79591H4.83433H4.13263C3.22303 19.3876 2.10552 19.0497 2.10552 17.3605V10.3695C2.10552 9.35593 2.93715 8.52429 3.95071 8.52429C4.96427 8.52429 5.79591 9.35593 5.79591 10.3695V15.6452C5.79591 15.9051 6.00382 16.113 6.26371 16.113H16.7372C16.997 16.113 17.205 15.9051 17.205 15.6452V10.3695C17.205 9.35593 18.0366 8.52429 19.0501 8.52429C20.0637 8.52429 20.8953 9.35593 20.8953 10.3695V17.3605Z" fill="#5168F4"/>
</svg>
