<svg width="11" height="11" viewBox="0 0 11 11" fill="none" xmlns="http://www.w3.org/2000/svg">
<g clip-path="url(#clip0_0_198)">
<path d="M9.48879 1.19318H7.99731V0.894886C7.99731 0.401446 7.59587 0 7.10243 0H4.71606C4.22262 0 3.82118 0.401446 3.82118 0.894886V1.19318H2.3297C1.83626 1.19318 1.43481 1.59463 1.43481 2.08807C1.43481 2.48436 1.69383 2.8211 2.05139 2.93843L2.58345 9.36123C2.62177 9.82138 3.01349 10.1818 3.47523 10.1818H8.34326C8.80502 10.1818 9.19674 9.82138 9.23508 9.36109L9.7671 2.93841C10.1247 2.8211 10.3837 2.48436 10.3837 2.08807C10.3837 1.59463 9.98223 1.19318 9.48879 1.19318ZM4.41777 0.894886C4.41777 0.730406 4.55158 0.596591 4.71606 0.596591H7.10243C7.26691 0.596591 7.40072 0.730406 7.40072 0.894886V1.19318H4.41777V0.894886ZM8.64052 9.31171C8.62773 9.46507 8.49718 9.58523 8.34326 9.58523H3.47523C3.32133 9.58523 3.19076 9.46507 3.17801 9.31185L2.65373 2.98295H9.16476L8.64052 9.31171ZM9.48879 2.38636H2.3297C2.16522 2.38636 2.03141 2.25255 2.03141 2.08807C2.03141 1.92359 2.16522 1.78977 2.3297 1.78977H9.48879C9.65327 1.78977 9.78709 1.92359 9.78709 2.08807C9.78709 2.25255 9.65327 2.38636 9.48879 2.38636Z" fill="#FF0000"/>
<path d="M4.71562 8.67243L4.41733 3.85993C4.40712 3.69549 4.2648 3.57042 4.10115 3.58066C3.93671 3.59087 3.81169 3.73242 3.82187 3.89684L4.12016 8.70936C4.12997 8.86751 4.2613 8.9892 4.4176 8.9892C4.59036 8.9892 4.72622 8.84371 4.71562 8.67243Z" fill="#FF0000"/>
<path d="M5.90914 3.58008C5.7444 3.58008 5.61084 3.71363 5.61084 3.87837V8.69087C5.61084 8.85561 5.7444 8.98917 5.90914 8.98917C6.07387 8.98917 6.20743 8.85561 6.20743 8.69087V3.87837C6.20743 3.71363 6.07387 3.58008 5.90914 3.58008Z" fill="#FF0000"/>
<path d="M7.71758 3.58066C7.55352 3.57046 7.41159 3.69548 7.40141 3.85992L7.10312 8.67242C7.09296 8.83684 7.21798 8.9784 7.3824 8.9886C7.54692 8.99878 7.68839 8.87369 7.69857 8.70933L7.99687 3.89683C8.00705 3.73239 7.88202 3.59084 7.71758 3.58066Z" fill="#FF0000"/>
</g>
<defs>
<clipPath id="clip0_0_198">
<rect width="10.1818" height="10.1818" fill="white" transform="translate(0.818359)"/>
</clipPath>
</defs>
</svg>
