<svg xmlns="http://www.w3.org/2000/svg" version="1.1" xmlns:xlink="http://www.w3.org/1999/xlink" width="512" height="512" x="0" y="0" viewBox="0 0 512 512" style="enable-background:new 0 0 512 512" xml:space="preserve"><g><path d="M484.701 23.039c-12.128-12.128-28.253-18.807-45.404-18.807s-33.276 6.679-45.403 18.807c-7.799 7.799-13.208 17.218-16.159 27.26H332.14c-5.554 0-10.565 2.076-14.494 6.003l-142.86 142.861c-7.992 7.992-7.992 20.996 0 28.988l88.154 88.154c3.996 3.996 9.244 5.994 14.493 5.994s10.499-1.998 14.495-5.994l2.017-2.017 46.235 26.694a20.368 20.368 0 0 0 10.214 2.742c7.09 0 13.995-3.677 17.788-10.245l95.294-165.055c2.777-4.81 3.486-10.188 2.049-15.555l-22.608-84.374c-1.287-4.803-4.212-8.955-8.258-11.825-3.866-3.927-9.236-6.371-15.169-6.371h-26.991a50.005 50.005 0 0 1 11.295-17.36c9.483-9.484 22.092-14.707 35.504-14.707s26.021 5.223 35.506 14.707c9.483 9.483 14.706 22.093 14.706 35.505s-5.223 26.021-14.706 35.505a6.999 6.999 0 0 0 0 9.899 6.973 6.973 0 0 0 4.949 2.05 6.979 6.979 0 0 0 4.949-2.05c12.129-12.128 18.808-28.253 18.808-45.404s-6.679-33.276-18.808-45.404zm-32.7 133.452c.482 1.799.282 3.32-.649 4.932l-95.294 165.056a6.506 6.506 0 0 1-8.878 2.379l-42.986-24.818 130.595-130.595c3.927-3.928 6.003-8.94 6.003-14.494V114.66zm-32.512-92.192c4.026 0 7.303 3.276 7.303 7.302v87.35c0 1.861-.587 3.279-1.902 4.595L282.03 306.405a6.506 6.506 0 0 1-9.191 0l-88.154-88.154a6.506 6.506 0 0 1 0-9.189l142.86-142.86c1.316-1.317 2.734-1.904 4.596-1.904h43.108A64.52 64.52 0 0 0 376 79.186a25.679 25.679 0 0 0-2.919 2.512c-4.851 4.85-7.521 11.298-7.521 18.156s2.671 13.306 7.521 18.156c5.005 5.005 11.58 7.508 18.155 7.508s13.151-2.502 18.157-7.508c10.01-10.011 10.01-26.3 0-36.311-5.466-5.466-12.804-7.94-19.969-7.437a50.426 50.426 0 0 1-.145-9.963h30.212zm-38.763 30.484a63.807 63.807 0 0 0 5.259 9.47 7 7 0 1 0 11.613-7.818 49.81 49.81 0 0 1-4.408-8.078 11.596 11.596 0 0 1 6.302 3.241c4.552 4.553 4.553 11.961 0 16.513-4.551 4.552-11.96 4.554-16.515 0a11.603 11.603 0 0 1-3.42-8.256c0-1.788.412-3.509 1.168-5.073zm-47.713 94.695 9.628-26.692c1.488-4.128.485-8.619-2.616-11.719-3.102-3.103-7.595-4.108-11.72-2.617l-26.692 9.629-22.409-17.404c-3.465-2.693-8.047-3.127-11.959-1.134-3.908 1.993-6.249 5.954-6.107 10.337l.908 28.362-23.475 15.933c-3.635 2.464-5.465 6.689-4.776 11.018.684 4.334 3.728 7.786 7.943 9.009l27.255 7.9 7.901 27.257c1.223 4.213 4.674 7.256 9.004 7.94.604.096 1.204.143 1.799.143 3.677 0 7.102-1.791 9.221-4.915l15.936-23.479 28.361.909c4.425.159 8.349-2.203 10.337-6.109 1.993-3.91 1.559-8.491-1.133-11.955l-17.405-22.411zm-23.563 25.451a7.035 7.035 0 0 0-6.017 3.065l-14.753 21.737-7.314-25.232a7 7 0 0 0-4.773-4.774l-25.232-7.314 21.736-14.753a6.998 6.998 0 0 0 3.065-6.016l-.841-26.257 20.748 16.114a7.002 7.002 0 0 0 6.669 1.056l24.712-8.914-8.914 24.712a7 7 0 0 0 1.057 6.668l16.114 20.749zm120.968 111.617c-18.51 10.686-64.359 33.051-98.932 46.227 1.218-6.365.089-13.005-3.403-18.882-5.147-8.661-14.21-13.628-24.227-13.293-42.799-.022-70.505-11.515-94.951-21.655-22.29-9.247-41.542-17.232-64.358-11.711-22.977 5.561-47.415 24.568-78.92 61.449-8.209-3.849-18.303-2.414-25.074 4.358l-30.011 30.01a6.998 6.998 0 0 0 0 9.9l92.769 92.769a7 7 0 0 0 9.899 0l30.009-30.011c4.172-4.171 6.47-9.733 6.47-15.661 0-2.669-.49-5.255-1.382-7.682 19.052-7.912 40.31-8.59 67.451-6.967 6.131.367 12.568.885 19.383 1.435 16.182 1.303 32.92 2.654 49.089 2.293 34.014-.752 54.476-10.299 81.811-24.78 27.843-14.748 87.229-49.978 98.341-64.584 7.92-10.412 8.367-22.443 1.138-30.651-6.635-7.534-20.062-11.247-35.1-2.564zM133.319 465.808l-25.06 25.061-82.869-82.87 25.062-25.061c3.175-3.175 8.344-3.177 11.522 0l71.346 71.347c1.527 1.527 2.368 3.573 2.368 5.761s-.841 4.234-2.369 5.762zm319.918-114.522c-7.784 10.232-57.652 41.567-93.751 60.689-25.565 13.543-44.638 22.471-75.566 23.155-15.474.34-31.827-.977-47.656-2.252-6.889-.555-13.396-1.079-19.671-1.455-24.195-1.446-51.858-1.962-76.902 9.435l-63.265-63.266c62.1-72.683 85.374-63.033 127.115-45.718 24.406 10.125 54.78 22.724 100.439 22.724.088 0 .176-.002.265-.005 4.87-.197 9.293 2.227 11.803 6.451 2.51 4.223 2.519 9.251.023 13.45-4.588 7.719-21.288 11.714-44.67 10.698-21.979-.959-44.091-6.204-52.769-10.72a7 7 0 0 0-6.462 12.419c11.825 6.153 36.479 11.321 58.621 12.288 2.471.107 5.023.17 7.624.17 11.793 0 24.522-1.297 34.584-5.525 35.017-9.867 100.347-41.256 124.418-55.153 8.138-4.698 14.823-3.452 17.594-.307 2.707 3.073 2.043 7.904-1.774 12.923zM96.043 177.177a7 7 0 0 1 7-7h59.999a7 7 0 1 1 0 14h-59.999a7 7 0 0 1-7-7zm66.999 70.7a7 7 0 1 1 0 14h-39.3a7 7 0 1 1 0-14zm-131.8-70.7a7 7 0 0 1 7-7h26.399a7 7 0 1 1 0 14H38.242a7 7 0 0 1-7-7zm40.199 38.85a7 7 0 0 1 7-7h65.101a7 7 0 1 1 0 14H78.441a7 7 0 0 1-7-7z" fill="#ffffff" opacity="1" data-original="#000000"></path></g></svg>