<svg width="23" height="23" viewBox="0 0 23 23" fill="none" xmlns="http://www.w3.org/2000/svg">
<path d="M21.3959 5.256H14.9591V3.57727C14.9602 3.50806 14.9474 3.43933 14.9214 3.3752C14.8954 3.31107 14.8567 3.25286 14.8076 3.20407C14.7585 3.15527 14.7 3.1169 14.6358 3.09125C14.5715 3.06561 14.5027 3.05322 14.4335 3.05483H8.56667C8.49748 3.05322 8.42867 3.06561 8.36438 3.09125C8.3001 3.1169 8.24166 3.15527 8.19257 3.20407C8.14348 3.25286 8.10476 3.31107 8.07873 3.3752C8.0527 3.43933 8.03989 3.50806 8.04108 3.57727V5.256H1.60423C1.5353 5.2538 1.46665 5.2656 1.40241 5.2907C1.33818 5.3158 1.27971 5.35367 1.23053 5.40202C1.18136 5.45036 1.1425 5.50819 1.11632 5.57198C1.09013 5.63578 1.07716 5.70423 1.07819 5.77318V19.423C1.07706 19.4922 1.08991 19.561 1.11599 19.6251C1.14207 19.6893 1.18083 19.7475 1.22996 19.7962C1.27908 19.845 1.33756 19.8834 1.40187 19.909C1.46618 19.9347 1.53501 19.9471 1.60423 19.9455H21.3959C21.4651 19.9471 21.534 19.9347 21.5983 19.909C21.6626 19.8834 21.7211 19.845 21.7702 19.7962C21.8193 19.7475 21.8581 19.6893 21.8841 19.6251C21.9102 19.561 21.9231 19.4922 21.9219 19.423V5.77318C21.923 5.70423 21.91 5.63578 21.8838 5.57198C21.8576 5.50819 21.8188 5.45036 21.7696 5.40202C21.7204 5.35367 21.662 5.3158 21.5977 5.2907C21.5335 5.2656 21.4648 5.2538 21.3959 5.256ZM6.85614 18.8673L2.15632 14.1711V11.0251L6.85614 6.33412H16.144L20.8438 11.0251V14.1711L16.144 18.8673H6.85614ZM20.8438 6.33412V9.5004L17.6687 6.33412H20.8438ZM9.11921 4.13295H13.8809V5.256H9.11921V4.13295ZM2.15632 6.33412H5.33144L2.15632 9.5004V6.33412ZM2.15632 18.8673V15.6958L5.33144 18.8673H2.15632ZM20.8438 18.8673H17.6687L20.8438 15.6958V18.8673Z" fill="#5168F4"/>
</svg>
