<svg width="26" height="26" viewBox="0 0 26 26" fill="none" xmlns="http://www.w3.org/2000/svg">
<path d="M22.2202 5.6875H18.7314L18.3251 4.46875C18.1293 3.87698 17.7518 3.36207 17.2463 2.99736C16.7408 2.63265 16.1331 2.43673 15.5098 2.4375H10.4902C9.86703 2.43703 9.25959 2.63307 8.75429 2.99776C8.24899 3.36244 7.87156 3.87718 7.67569 4.46875L7.26863 5.6875H3.77975C2.99305 5.68836 2.23882 6.00126 1.68254 6.55754C1.12626 7.11382 0.81336 7.86805 0.8125 8.65475V20.5985C0.81422 21.3846 1.1275 22.138 1.68368 22.6936C2.23987 23.2492 2.99361 23.5616 3.77975 23.5625H22.2235C23.0096 23.5608 23.763 23.2475 24.3186 22.6913C24.8742 22.1351 25.1866 21.3814 25.1875 20.5953V8.6515C25.1858 7.86537 24.8725 7.11197 24.3163 6.55639C23.7601 6.00081 23.0064 5.68836 22.2202 5.6875V5.6875ZM23.5625 20.5953C23.5621 20.9511 23.4205 21.2923 23.1689 21.5439C22.9173 21.7955 22.5761 21.9371 22.2202 21.9375H3.77975C3.4239 21.9371 3.08274 21.7955 2.83111 21.5439C2.57948 21.2923 2.43793 20.9511 2.4375 20.5953V8.6515C2.43879 8.29621 2.58072 7.95589 2.83226 7.70496C3.08379 7.45404 3.42446 7.31293 3.77975 7.3125H7.85444C8.02489 7.31237 8.19099 7.25864 8.32923 7.1589C8.46746 7.05916 8.57082 6.91848 8.62469 6.75675L9.217 4.97981C9.30594 4.71254 9.47681 4.48008 9.70536 4.31541C9.9339 4.15075 10.2085 4.06226 10.4902 4.0625H15.5098C15.7916 4.06219 16.0664 4.15076 16.2949 4.31559C16.5235 4.48042 16.6943 4.71314 16.783 4.98063L17.3753 6.75675C17.4292 6.91848 17.5325 7.05916 17.6708 7.1589C17.809 7.25864 17.9751 7.31237 18.1456 7.3125H22.2202C22.5761 7.31293 22.9173 7.45449 23.1689 7.70611C23.4205 7.95774 23.5621 8.2989 23.5625 8.65475V20.5953Z" fill="white"/>
<path d="M13 8.125C11.7948 8.125 10.6166 8.48239 9.61449 9.15198C8.61238 9.82157 7.83133 10.7733 7.37011 11.8868C6.90889 13.0003 6.78821 14.2255 7.02334 15.4076C7.25847 16.5897 7.83884 17.6755 8.69107 18.5277C9.54329 19.3799 10.6291 19.9603 11.8112 20.1954C12.9932 20.4305 14.2185 20.3099 15.332 19.8486C16.4455 19.3874 17.3972 18.6064 18.0668 17.6043C18.7363 16.6021 19.0937 15.424 19.0937 14.2188C19.092 12.6031 18.4495 11.0541 17.307 9.91172C16.1646 8.76929 14.6156 8.12672 13 8.125V8.125ZM13 18.6875C12.1162 18.6875 11.2522 18.4254 10.5173 17.9344C9.78241 17.4433 9.20964 16.7454 8.87141 15.9289C8.53319 15.1123 8.44469 14.2138 8.61712 13.3469C8.78954 12.4801 9.21515 11.6838 9.84012 11.0589C10.4651 10.4339 11.2613 10.0083 12.1282 9.83587C12.995 9.66344 13.8936 9.75193 14.7101 10.0902C15.5267 10.4284 16.2246 11.0012 16.7156 11.736C17.2067 12.4709 17.4687 13.3349 17.4687 14.2188C17.4675 15.4035 16.9962 16.5394 16.1585 17.3772C15.3207 18.215 14.1848 18.6862 13 18.6875V18.6875Z" fill="white"/>
<path d="M21.125 10.5625C21.5737 10.5625 21.9375 10.1987 21.9375 9.75C21.9375 9.30127 21.5737 8.9375 21.125 8.9375C20.6763 8.9375 20.3125 9.30127 20.3125 9.75C20.3125 10.1987 20.6763 10.5625 21.125 10.5625Z" fill="white"/>
</svg>
