<svg xmlns="http://www.w3.org/2000/svg" version="1.1" xmlns:xlink="http://www.w3.org/1999/xlink" width="512" height="512" x="0" y="0" viewBox="0 0 512 512" style="enable-background:new 0 0 512 512" xml:space="preserve" class=""><g><path d="M37.243 489.137h166.088c8.284 0 15-6.716 15-15V308.05c0-8.284-6.716-15-15-15H37.243c-8.284 0-15 6.716-15 15v166.087c0 8.284 6.716 15 15 15zm15-166.087h136.088v136.087H52.243zM203.331 57.26H37.243c-8.284 0-15 6.716-15 15v166.088c0 8.284 6.716 15 15 15h166.088c8.284 0 15-6.716 15-15V72.26c0-8.284-6.716-15-15-15zm-15 166.088H52.243V87.26h136.088zM367.921 27.256c-5.857-5.858-15.355-5.858-21.213 0L229.267 144.698a15 15 0 0 0 0 21.212l117.442 117.442c2.929 2.929 6.768 4.394 10.606 4.394s7.678-1.464 10.606-4.394L485.363 165.91a15 15 0 0 0 0-21.212zm-10.606 224.277-96.229-96.229 96.229-96.228 96.229 96.228zM440.359 489.137c8.284 0 15-6.716 15-15V308.05c0-8.284-6.716-15-15-15H274.271c-8.284 0-15 6.716-15 15v166.087c0 8.284 6.716 15 15 15zM289.271 323.05h136.088v136.087H289.271z" fill="#ffffff" opacity="1" data-original="#000000" class=""></path></g></svg>