<svg width="21" height="21" viewBox="0 0 21 21" fill="none" xmlns="http://www.w3.org/2000/svg">
<path d="M10.5 0C4.71031 0 0 4.71031 0 10.5C0 16.2896 4.71031 20.9999 10.5 20.9999C16.2896 20.9999 20.9999 16.2896 20.9999 10.5C20.9999 4.71031 16.2897 0 10.5 0ZM10.5 19.6181C5.47221 19.6181 1.38187 15.5277 1.38187 10.5C1.38187 5.47221 5.47221 1.38187 10.5 1.38187C15.5277 1.38187 19.618 5.47221 19.618 10.5C19.618 15.5277 15.5277 19.6181 10.5 19.6181Z" fill="#5168F4"/>
<path d="M11.1904 9.88012V5.95719C11.5814 6.10239 11.9225 6.36879 12.1597 6.72906C12.3697 7.04778 12.7982 7.13602 13.1168 6.92618C13.4355 6.71633 13.5237 6.28785 13.3138 5.96913C12.8174 5.21542 12.0525 4.70373 11.1904 4.5234V3.4258C11.1904 3.04421 10.8811 2.73486 10.4995 2.73486C10.1179 2.73486 9.80857 3.04421 9.80857 3.4258V4.52133C8.27933 4.84014 7.12695 6.19823 7.12695 7.82064C7.12695 9.44306 8.27943 10.8013 9.80857 11.1202V15.0431C9.4176 14.8979 9.07648 14.6315 8.83929 14.2712C8.62934 13.9525 8.20086 13.8642 7.88224 14.0741C7.56353 14.2839 7.47528 14.7124 7.68523 15.0311C8.18162 15.7849 8.94648 16.2965 9.80857 16.4769V17.5744C9.80857 17.956 10.1179 18.2653 10.4995 18.2653C10.8811 18.2653 11.1904 17.956 11.1904 17.5744V16.479C12.7197 16.1601 13.8721 14.8021 13.8721 13.1796C13.8721 11.5572 12.7197 10.1989 11.1904 9.88012ZM8.50882 7.82064C8.50882 6.96655 9.05111 6.2387 9.80857 5.95768V9.6836C9.05111 9.40259 8.50882 8.67474 8.50882 7.82064ZM11.1904 15.0425V11.3166C11.9479 11.5976 12.4902 12.3254 12.4902 13.1795C12.4902 14.0336 11.948 14.7615 11.1904 15.0425Z" fill="#5168F4"/>
</svg>
