<svg width="1162" height="1162" viewBox="0 0 1162 1162" fill="none" xmlns="http://www.w3.org/2000/svg">
<rect x="0.5" y="0.487305" width="1160.63" height="1160.63" fill="#939393"/>
<g clip-path="url(#clip0_40_25)">
<path d="M580.816 324.803C506.377 324.803 445.816 385.364 445.816 459.803C445.816 534.242 506.377 594.803 580.816 594.803C655.255 594.803 715.816 534.242 715.816 459.803C715.816 385.364 655.255 324.803 580.816 324.803Z" fill="white"/>
<path d="M748.782 682.998C711.822 645.47 662.825 624.803 610.816 624.803H550.816C498.808 624.803 449.81 645.47 412.85 682.998C376.071 720.342 355.816 769.636 355.816 821.803C355.816 830.087 362.532 836.803 370.816 836.803H790.816C799.1 836.803 805.816 830.087 805.816 821.803C805.816 769.636 785.561 720.342 748.782 682.998Z" fill="white"/>
</g>
<defs>
<clipPath id="clip0_40_25">
<rect width="512" height="512" fill="white" transform="translate(324.816 324.803)"/>
</clipPath>
</defs>
</svg>
