<svg width="1161" height="1162" viewBox="0 0 1161 1162" fill="none" xmlns="http://www.w3.org/2000/svg">
<rect x="0.290039" y="0.487305" width="1160.63" height="1160.63" fill="#939393"/>
<g clip-path="url(#clip0_40_57)">
<path d="M821.599 806.804H805.599V551.812C805.599 545.211 801.399 539.511 795.398 537.711L655.604 490.913V836.803H821.599C830 836.803 836.599 830.202 836.599 821.804C836.598 813.403 829.999 806.804 821.599 806.804ZM775.6 806.804H745.601V746.806H715.602V806.804H685.603V731.806C685.603 723.405 692.202 716.806 700.603 716.806H760.601C769.002 716.806 775.601 723.405 775.601 731.806V806.804H775.6ZM760.601 686.808H700.603C692.202 686.808 685.603 680.207 685.603 671.808C685.603 663.407 692.202 656.808 700.603 656.808H760.601C769.002 656.808 775.601 663.407 775.601 671.808C775.6 680.207 769.001 686.808 760.601 686.808ZM760.601 626.81H700.603C692.202 626.81 685.603 620.209 685.603 611.81C685.603 603.409 692.202 596.81 700.603 596.81H760.601C769.002 596.81 775.601 603.409 775.601 611.81C775.6 620.209 769.001 626.81 760.601 626.81Z" fill="white"/>
<path d="M616.004 415.715L376.012 325.718C365.813 322.118 355.613 329.618 355.613 339.819V806.804H339.613C331.212 806.804 324.613 813.403 324.613 821.804C324.613 830.203 331.212 836.803 339.613 836.803H625.604C625.604 739.399 625.604 674.715 625.604 429.816C625.604 423.515 621.704 417.815 616.004 415.715ZM475.608 806.804H415.61V731.806C415.61 723.405 422.209 716.806 430.61 716.806H475.609V806.804H475.608ZM460.609 686.808H430.61C422.209 686.808 415.61 680.207 415.61 671.808C415.61 663.407 422.209 656.808 430.61 656.808H460.609C469.01 656.808 475.609 663.407 475.609 671.808C475.608 680.207 469.01 686.808 460.609 686.808ZM460.609 626.81H430.61C422.209 626.81 415.61 620.209 415.61 611.81C415.61 603.409 422.209 596.81 430.61 596.81H460.609C469.01 596.81 475.609 603.409 475.609 611.81C475.608 620.209 469.01 626.81 460.609 626.81ZM460.609 566.812H430.61C422.209 566.812 415.61 560.211 415.61 551.812C415.61 543.411 422.209 536.812 430.61 536.812H460.609C469.01 536.812 475.609 543.411 475.609 551.812C475.608 560.211 469.01 566.812 460.609 566.812ZM460.609 506.814H430.61C422.209 506.814 415.61 500.213 415.61 491.814C415.61 483.413 422.209 476.814 430.61 476.814H460.609C469.01 476.814 475.609 483.413 475.609 491.814C475.608 500.213 469.01 506.814 460.609 506.814ZM565.606 806.804H505.608V716.807H550.607C559.008 716.807 565.607 723.406 565.607 731.807V806.804H565.606ZM550.606 686.808H520.607C512.206 686.808 505.607 680.207 505.607 671.808C505.607 663.407 512.206 656.808 520.607 656.808H550.606C559.007 656.808 565.606 663.407 565.606 671.808C565.606 680.207 559.007 686.808 550.606 686.808ZM550.606 626.81H520.607C512.206 626.81 505.607 620.209 505.607 611.81C505.607 603.409 512.206 596.81 520.607 596.81H550.606C559.007 596.81 565.606 603.409 565.606 611.81C565.606 620.209 559.007 626.81 550.606 626.81ZM550.606 566.812H520.607C512.206 566.812 505.607 560.211 505.607 551.812C505.607 543.411 512.206 536.812 520.607 536.812H550.606C559.007 536.812 565.606 543.411 565.606 551.812C565.606 560.211 559.007 566.812 550.606 566.812ZM550.606 506.814H520.607C512.206 506.814 505.607 500.213 505.607 491.814C505.607 483.413 512.206 476.814 520.607 476.814H550.606C559.007 476.814 565.606 483.413 565.606 491.814C565.606 500.213 559.007 506.814 550.606 506.814Z" fill="white"/>
</g>
<defs>
<clipPath id="clip0_40_57">
<rect width="512" height="512" fill="white" transform="translate(324.605 324.803)"/>
</clipPath>
</defs>
</svg>
