<svg width="25" height="25" viewBox="0 0 25 25" fill="none" xmlns="http://www.w3.org/2000/svg">
<path d="M3.12547 17.709H15.6255C15.891 17.7093 16.1463 17.8109 16.3394 17.9932C16.5325 18.1755 16.6486 18.4246 16.6642 18.6896C16.6798 18.9546 16.5935 19.2156 16.4231 19.4192C16.2527 19.6228 16.011 19.7537 15.7473 19.785L15.6255 19.7923H3.12547C2.85997 19.792 2.60461 19.6904 2.41155 19.5081C2.21849 19.3258 2.10231 19.0767 2.08675 18.8117C2.07119 18.5467 2.15743 18.2857 2.32783 18.0821C2.49824 17.8785 2.73996 17.7476 3.0036 17.7163L3.12547 17.709H15.6255H3.12547ZM3.12547 13.5423H21.8755C22.141 13.5426 22.3963 13.6443 22.5894 13.8265C22.7825 14.0088 22.8986 14.2579 22.9142 14.5229C22.9298 14.788 22.8435 15.049 22.6731 15.2526C22.5027 15.4562 22.261 15.587 21.9973 15.6184L21.8755 15.6257H3.12547C2.85997 15.6254 2.60461 15.5237 2.41155 15.3414C2.21849 15.1592 2.10231 14.9101 2.08675 14.645C2.07119 14.38 2.15743 14.119 2.32783 13.9154C2.49824 13.7118 2.73996 13.581 3.0036 13.5496L3.12547 13.5423H21.8755H3.12547ZM3.12547 9.37565H21.8755C22.141 9.37595 22.3963 9.47761 22.5894 9.65987C22.7825 9.84213 22.8986 10.0912 22.9142 10.3563C22.9298 10.6213 22.8435 10.8823 22.6731 11.0859C22.5027 11.2895 22.261 11.4203 21.9973 11.4517L21.8755 11.459H3.12547C2.85997 11.4587 2.60461 11.357 2.41155 11.1748C2.21849 10.9925 2.10231 10.7434 2.08675 10.4784C2.07119 10.2133 2.15743 9.95234 2.32783 9.74874C2.49824 9.54515 2.73996 9.4143 3.0036 9.38294L3.12547 9.37565H21.8755H3.12547ZM3.12547 5.20898H21.8755C22.141 5.20928 22.3963 5.31094 22.5894 5.4932C22.7825 5.67546 22.8986 5.92456 22.9142 6.1896C22.9298 6.45465 22.8435 6.71563 22.6731 6.91923C22.5027 7.12282 22.261 7.25367 21.9973 7.28503L21.8755 7.29232H3.12547C2.85997 7.29202 2.60461 7.19036 2.41155 7.0081C2.21849 6.82584 2.10231 6.57674 2.08675 6.3117C2.07119 6.04665 2.15743 5.78567 2.32783 5.58208C2.49824 5.37848 2.73996 5.24763 3.0036 5.21628L3.12547 5.20898H21.8755H3.12547Z" fill="#5168F4"/>
</svg>
