<?xml version="1.0"?>
<svg xmlns="http://www.w3.org/2000/svg" xmlns:xlink="http://www.w3.org/1999/xlink" xmlns:svgjs="http://svgjs.com/svgjs" version="1.1" width="512" height="512" x="0" y="0" viewBox="0 0 64 64" style="enable-background:new 0 0 512 512" xml:space="preserve" class=""><g><g xmlns="http://www.w3.org/2000/svg" id="Drag"><path d="m58.99524 35.14819-5.76618 6.36781c-2.63394 2.91206-7.14975-1.04477-4.44836-4.02832l1.79889-1.98682h-15.5788v15.07842l1.98682-1.79882c2.93649-2.66345 6.97258 1.7826 4.02838 4.44836l-6.36493 5.76312a3.99048 3.99048 0 0 1 -5.29919.00293l-6.36786-5.766c-2.94822-2.6694 1.09411-7.1098 4.02838-4.44836l1.98682 1.79882v-15.07848h-15.5788l1.79889 1.98682c2.71155 2.99477-1.84129 6.91067-4.44836 4.02832l-5.76325-6.36487a3.99154 3.99154 0 0 1 -.00293-5.29912l5.76618-6.36774c2.66019-2.94079 7.11319 1.08515 4.44836 4.02832l-1.79889 1.98682h15.5788v-16.07868l-1.98682 1.79882c-2.93586 2.66274-6.97333-1.78206-4.02838-4.44836l6.36493-5.76312a3.99039 3.99039 0 0 1 5.29919-.00293l6.36786 5.766c2.99736 2.71375-1.15336 7.05452-4.02838 4.44836l-1.98682-1.79882v16.07872h15.5788l-1.79889-1.98682c-2.66145-2.93944 1.7855-6.97465 4.44836-4.02832l5.76325 6.36481a3.99154 3.99154 0 0 1 .00293 5.29913z" fill="#5168f4" data-original="#000000" class=""/></g></g></svg>
