<svg width="24" height="24" viewBox="0 0 24 24" fill="none" xmlns="http://www.w3.org/2000/svg">
<path d="M18.9998 20.0008H4.99981C4.73459 20.0008 4.48024 20.1062 4.2927 20.2937C4.10517 20.4813 3.99981 20.7356 3.99981 21.0008C3.99981 21.2661 4.10517 21.5204 4.2927 21.7079C4.48024 21.8955 4.73459 22.0008 4.99981 22.0008H18.9998C19.265 22.0008 19.5194 21.8955 19.7069 21.7079C19.8945 21.5204 19.9998 21.2661 19.9998 21.0008C19.9998 20.7356 19.8945 20.4813 19.7069 20.2937C19.5194 20.1062 19.265 20.0008 18.9998 20.0008ZM4.99981 18.0008H5.08981L9.25981 17.6208C9.71661 17.5753 10.1438 17.3741 10.4698 17.0508L19.4698 8.05083C19.8191 7.6818 20.0079 7.18934 19.9948 6.68137C19.9817 6.1734 19.7677 5.69134 19.3998 5.34083L16.6598 2.60083C16.3022 2.26493 15.8336 2.07219 15.3431 2.05929C14.8527 2.04638 14.3746 2.2142 13.9998 2.53083L4.99981 11.5308C4.67657 11.8568 4.47531 12.284 4.42981 12.7408L3.99981 16.9108C3.98634 17.0573 4.00534 17.2049 4.05547 17.3432C4.1056 17.4815 4.18561 17.607 4.28981 17.7108C4.38325 17.8035 4.49406 17.8768 4.6159 17.9266C4.73774 17.9764 4.8682 18.0016 4.99981 18.0008ZM15.2698 4.00083L17.9998 6.73083L15.9998 8.68083L13.3198 6.00083L15.2698 4.00083ZM6.36981 12.9108L11.9998 7.32083L14.6998 10.0208L9.09981 15.6208L6.09981 15.9008L6.36981 12.9108Z" fill="#5168F4"/>
</svg>
