<svg width="20" height="20" viewBox="0 0 20 20" fill="none" xmlns="http://www.w3.org/2000/svg">
<g clip-path="url(#clip0_333_1269)">
<path d="M17.4455 4.85906L12.7581 0.17168C12.647 0.0604688 12.495 0 12.3438 0H4.14062C3.17137 0 2.38281 0.788555 2.38281 1.75781V18.2422C2.38281 19.2114 3.17137 20 4.14062 20H15.8594C16.8286 20 17.6172 19.2114 17.6172 18.2422V5.27344C17.6172 5.11266 17.5491 4.96262 17.4455 4.85906ZM12.9297 2.00051L15.6167 4.6875H13.5156C13.1925 4.6875 12.9297 4.42465 12.9297 4.10156V2.00051ZM15.8594 18.8281H4.14062C3.81754 18.8281 3.55469 18.5653 3.55469 18.2422V1.75781C3.55469 1.43473 3.81754 1.17188 4.14062 1.17188H11.7578V4.10156C11.7578 5.07082 12.5464 5.85938 13.5156 5.85938H16.4453V18.2422C16.4453 18.5653 16.1825 18.8281 15.8594 18.8281Z" fill="white"/>
<path d="M13.5156 9.45312H7.65625C7.33266 9.45312 7.07031 9.71547 7.07031 10.0391C7.07031 10.3627 7.33266 10.625 7.65625 10.625H13.5156C13.8392 10.625 14.1016 10.3627 14.1016 10.0391C14.1016 9.71547 13.8392 9.45312 13.5156 9.45312Z" fill="white"/>
<path d="M13.5156 11.7969H7.65625C7.33266 11.7969 7.07031 12.0592 7.07031 12.3828C7.07031 12.7064 7.33266 12.9688 7.65625 12.9688H13.5156C13.8392 12.9688 14.1016 12.7064 14.1016 12.3828C14.1016 12.0592 13.8392 11.7969 13.5156 11.7969Z" fill="white"/>
<path d="M13.5156 14.1406H7.65625C7.33266 14.1406 7.07031 14.403 7.07031 14.7266C7.07031 15.0502 7.33266 15.3125 7.65625 15.3125H13.5156C13.8392 15.3125 14.1016 15.0502 14.1016 14.7266C14.1016 14.403 13.8392 14.1406 13.5156 14.1406Z" fill="white"/>
<path d="M5.3125 10.625C5.6361 10.625 5.89844 10.3627 5.89844 10.0391C5.89844 9.71546 5.6361 9.45312 5.3125 9.45312C4.9889 9.45312 4.72656 9.71546 4.72656 10.0391C4.72656 10.3627 4.9889 10.625 5.3125 10.625Z" fill="white"/>
<path d="M5.3125 12.9688C5.6361 12.9688 5.89844 12.7064 5.89844 12.3828C5.89844 12.0592 5.6361 11.7969 5.3125 11.7969C4.9889 11.7969 4.72656 12.0592 4.72656 12.3828C4.72656 12.7064 4.9889 12.9688 5.3125 12.9688Z" fill="white"/>
<path d="M5.3125 15.3125C5.6361 15.3125 5.89844 15.0502 5.89844 14.7266C5.89844 14.403 5.6361 14.1406 5.3125 14.1406C4.9889 14.1406 4.72656 14.403 4.72656 14.7266C4.72656 15.0502 4.9889 15.3125 5.3125 15.3125Z" fill="white"/>
</g>
<defs>
<clipPath id="clip0_333_1269">
<rect width="20" height="20" fill="white"/>
</clipPath>
</defs>
</svg>
