<svg width="23" height="23" viewBox="0 0 23 23" fill="none" xmlns="http://www.w3.org/2000/svg">
<g opacity="0.7">
<path d="M8.21459 11.5C9.02704 11.5 9.82124 11.2591 10.4968 10.8077C11.1723 10.3563 11.6988 9.71471 12.0096 8.96409C12.3205 8.21347 12.4018 7.38752 12.2433 6.5907C12.0847 5.79387 11.6934 5.06196 11.1189 4.48752C10.5444 3.91308 9.81237 3.52192 9.01551 3.36351C8.21866 3.2051 7.39272 3.28654 6.64216 3.59755C5.8916 3.90856 5.25012 4.43516 4.79885 5.11076C4.34758 5.78635 4.10679 6.5806 4.10693 7.39304C4.10808 8.48205 4.54123 9.52611 5.31134 10.2961C6.08145 11.0661 7.12559 11.499 8.21459 11.5ZM8.21459 4.72289C8.7427 4.72289 9.25894 4.87949 9.69805 5.17289C10.1372 5.46629 10.4794 5.88331 10.6815 6.37122C10.8836 6.85913 10.9365 7.39601 10.8334 7.91397C10.7304 8.43193 10.4761 8.9077 10.1027 9.28113C9.72925 9.65456 9.25347 9.90887 8.73551 10.0119C8.21755 10.1149 7.68067 10.062 7.19277 9.85995C6.70486 9.65785 6.28784 9.31561 5.99444 8.8765C5.70104 8.4374 5.54443 7.92115 5.54443 7.39304C5.545 6.68505 5.82651 6.00622 6.32713 5.50559C6.82776 5.00496 7.5066 4.72346 8.21459 4.72289Z" fill="white"/>
<path d="M16.8906 11.8594C17.4948 11.8594 18.0854 11.6802 18.5877 11.3446C19.0901 11.0089 19.4816 10.5318 19.7128 9.97366C19.944 9.41549 20.0045 8.8013 19.8866 8.20875C19.7688 7.6162 19.4778 7.0719 19.0506 6.6447C18.6234 6.21749 18.0791 5.92656 17.4866 5.8087C16.894 5.69083 16.2798 5.75132 15.7216 5.98253C15.1635 6.21373 14.6864 6.60525 14.3507 7.10759C14.0151 7.60993 13.8359 8.20053 13.8359 8.80469C13.8369 9.61455 14.159 10.391 14.7317 10.9636C15.3043 11.5363 16.0808 11.8584 16.8906 11.8594ZM16.8906 7.1875C17.2105 7.1875 17.5231 7.28235 17.7891 7.46005C18.055 7.63774 18.2623 7.89031 18.3847 8.18582C18.5071 8.48132 18.5391 8.80648 18.4767 9.12018C18.4143 9.43389 18.2603 9.72204 18.0341 9.94821C17.808 10.1744 17.5198 10.3284 17.2061 10.3908C16.8924 10.4532 16.5673 10.4212 16.2718 10.2988C15.9763 10.1764 15.7237 9.96909 15.546 9.70315C15.3683 9.4372 15.2734 9.12454 15.2734 8.80469C15.2738 8.3759 15.4443 7.96478 15.7475 7.66158C16.0507 7.35838 16.4618 7.18788 16.8906 7.1875Z" fill="white"/>
<path d="M16.8906 12.7003C16.1654 12.7025 15.448 12.8506 14.7812 13.1358C14.1144 13.4211 13.5118 13.8376 13.0094 14.3606C11.9142 13.4503 10.5823 12.8707 9.16976 12.6897C7.75719 12.5087 6.32228 12.7337 5.03292 13.3384C3.74356 13.9432 2.65308 14.9026 1.88907 16.1044C1.12506 17.3063 0.719124 18.7008 0.71875 20.1249C0.71875 20.3156 0.794475 20.4984 0.929267 20.6332C1.06406 20.768 1.24688 20.8437 1.4375 20.8437H14.9931C15.1838 20.8437 15.3666 20.768 15.5014 20.6332C15.6361 20.4984 15.7119 20.3156 15.7119 20.1249C15.7107 19.6838 15.6705 19.2437 15.5918 18.8096H21.5625C21.7531 18.8096 21.9359 18.7339 22.0707 18.5991C22.2055 18.4643 22.2812 18.2815 22.2812 18.0909C22.2797 16.6617 21.7113 15.2914 20.7007 14.2808C19.6901 13.2702 18.3198 12.7018 16.8906 12.7003ZM2.19866 19.4062C2.36043 18.0283 2.99048 16.7478 3.9834 15.7788C4.97632 14.8099 6.27187 14.2113 7.6533 14.0833C9.03472 13.9553 10.4182 14.3055 11.5723 15.0754C12.7264 15.8454 13.5811 16.9883 13.9933 18.313C14.1082 18.6687 14.1879 19.0349 14.2312 19.4062H2.19866ZM15.1735 17.3721C14.8923 16.6546 14.5017 15.985 14.0156 15.3869C14.5152 14.8537 15.153 14.4695 15.858 14.2773C16.563 14.085 17.3075 14.0922 18.0086 14.2979C18.7098 14.5037 19.3401 14.9 19.8293 15.4428C20.3186 15.9856 20.6476 16.6535 20.7798 17.3721H15.1735Z" fill="white"/>
</g>
</svg>
