<svg width="239" height="240" viewBox="0 0 239 240" fill="none" xmlns="http://www.w3.org/2000/svg">
<circle cx="119.5" cy="119.816" r="119.497" fill="#5168F4" fill-opacity="0.1"/>
<circle cx="119.499" cy="119.816" r="93.7434" fill="#5168F4" fill-opacity="0.1"/>
<g clip-path="url(#clip0_1_58)">
<path d="M164.661 152.16C170.879 143.246 174.529 132.407 174.529 120.714C174.529 90.3225 149.891 65.6851 119.5 65.6851C89.1076 65.6851 64.4702 90.3225 64.4702 120.714C64.4702 132.407 68.1201 143.246 74.3382 152.16H164.661Z" fill="#D8ECFE"/>
<path d="M83.6845 162.492C93.3101 170.751 105.821 175.744 119.5 175.744C133.178 175.744 145.689 170.751 155.315 162.492H83.6845Z" fill="#596CA9"/>
<path d="M167.895 152.16V90.1227C167.895 88.1378 166.286 86.529 164.302 86.529H74.6972C72.7123 86.529 71.1035 88.1378 71.1035 90.1227V152.16H167.895Z" fill="#8D9CDB"/>
<path d="M78.291 145.946C77.6295 145.946 77.0931 145.409 77.0931 144.748V93.7165C77.0931 93.0548 77.6295 92.5186 78.291 92.5186H84.9244V90.1227C84.9244 88.1378 86.5332 86.529 88.5181 86.529H74.6972C72.7123 86.529 71.1035 88.1378 71.1035 90.1227V152.16H84.9244V145.946H78.291Z" fill="#7A8CCB"/>
<path d="M160.588 98.9875H78.6025L77.0932 99.2272V144.748C77.0932 145.409 77.6295 145.946 78.291 145.946H160.708C161.369 145.946 161.905 145.409 161.905 144.748V99.2269L160.588 98.9875Z" fill="#C4E2FF"/>
<path d="M86.4818 144.748V99.2266H77.0932V144.748C77.0932 145.409 77.6295 145.945 78.291 145.945H87.6797C87.0182 145.945 86.4818 145.409 86.4818 144.748Z" fill="#B3DAFE"/>
<path d="M174.604 151.935H64.3954C63.0722 151.935 61.9995 153.008 61.9995 154.331V160.321C61.9995 161.644 63.0722 162.716 64.3954 162.716H174.604C175.927 162.716 177 161.644 177 160.32V154.331C177 153.008 175.927 151.935 174.604 151.935V151.935Z" fill="#9FACED"/>
<path d="M75.4761 160.32V154.331C75.4761 153.008 76.5488 151.935 77.872 151.935H64.3954C63.0722 151.935 61.9995 153.008 61.9995 154.331V160.321C61.9995 161.644 63.0722 162.716 64.3954 162.716H77.872C76.5488 162.716 75.4761 161.644 75.4761 160.32V160.32Z" fill="#8D9CDB"/>
<path d="M160.708 92.5186H78.291C77.6293 92.5186 77.0932 93.055 77.0932 93.7164V99.2268H161.906V93.7164C161.906 93.0547 161.369 92.5186 160.708 92.5186V92.5186Z" fill="#26A6FE"/>
<path d="M106.577 151.935L108.867 155.714C109.519 156.789 110.684 157.445 111.941 157.445H127.059C128.316 157.445 129.481 156.789 130.132 155.714L132.423 151.935H106.577Z" fill="#7A8CCB"/>
<path d="M167.454 158.449C168.384 158.449 169.138 157.695 169.138 156.764C169.138 155.834 168.384 155.08 167.454 155.08C166.523 155.08 165.769 155.834 165.769 156.764C165.769 157.695 166.523 158.449 167.454 158.449Z" fill="#97D729"/>
<path d="M161.838 158.449C162.769 158.449 163.523 157.695 163.523 156.764C163.523 155.834 162.769 155.08 161.838 155.08C160.908 155.08 160.154 155.834 160.154 156.764C160.154 157.695 160.908 158.449 161.838 158.449Z" fill="white"/>
<path d="M87.6797 92.5186H78.291C77.6293 92.5186 77.0932 93.055 77.0932 93.7164V99.2268H86.4818V93.7164C86.4818 93.0547 87.0182 92.5186 87.6797 92.5186Z" fill="#0593FC"/>
<path d="M88.0542 73.3218H150.945V145.945H88.0542V73.3218Z" fill="#F5F8F9"/>
<path d="M150.945 73.3218H88.0542V66.1343C88.0542 64.8938 89.0598 63.8882 90.3003 63.8882H148.699C149.939 63.8882 150.945 64.8938 150.945 66.1343V73.3218Z" fill="#FD4755"/>
<path d="M88.0542 73.3218H97.0386V145.945H88.0542V73.3218Z" fill="#E8EDF2"/>
<path d="M99.2847 63.8882H90.3003C89.0598 63.8882 88.0542 64.8938 88.0542 66.1343V73.3218H97.0386V66.1343C97.0386 64.8938 98.0442 63.8882 99.2847 63.8882Z" fill="#FB2B3A"/>
<path d="M93.7817 70.4019C94.7121 70.4019 95.4663 69.6476 95.4663 68.7173C95.4663 67.7869 94.7121 67.0327 93.7817 67.0327C92.8514 67.0327 92.0972 67.7869 92.0972 68.7173C92.0972 69.6476 92.8514 70.4019 93.7817 70.4019Z" fill="white"/>
<path d="M98.9478 70.4019C99.8781 70.4019 100.632 69.6476 100.632 68.7173C100.632 67.7869 99.8781 67.0327 98.9478 67.0327C98.0174 67.0327 97.2632 67.7869 97.2632 68.7173C97.2632 69.6476 98.0174 70.4019 98.9478 70.4019Z" fill="white"/>
<path d="M104.114 70.4019C105.044 70.4019 105.798 69.6476 105.798 68.7173C105.798 67.7869 105.044 67.0327 104.114 67.0327C103.183 67.0327 102.429 67.7869 102.429 68.7173C102.429 69.6476 103.183 70.4019 104.114 70.4019Z" fill="white"/>
<path d="M119.5 106.339C127.191 106.339 133.425 100.105 133.425 92.4136C133.425 84.7226 127.191 78.4878 119.5 78.4878C111.809 78.4878 105.574 84.7226 105.574 92.4136C105.574 100.105 111.809 106.339 119.5 106.339Z" fill="white"/>
<path d="M110.066 92.4136C110.066 85.4875 115.123 79.7449 121.746 78.6706C121.014 78.552 120.265 78.4878 119.5 78.4878C111.808 78.4878 105.574 84.7225 105.574 92.4136C105.574 100.105 111.808 106.339 119.5 106.339C120.265 106.339 121.014 106.275 121.746 106.157C115.123 105.082 110.066 99.3396 110.066 92.4136Z" fill="#F5F8F9"/>
<path d="M119.5 106.339C123.348 106.339 126.831 104.778 129.352 102.255C127.803 99.3356 124.735 97.346 121.199 97.346H117.8C114.265 97.346 111.196 99.3356 109.648 102.255C112.168 104.778 115.652 106.339 119.5 106.339Z" fill="#26A6FE"/>
<path d="M119.499 100.269C123.837 100.269 127.354 96.7518 127.354 92.4137C127.354 88.0756 123.837 84.5589 119.499 84.5589C115.161 84.5589 111.645 88.0756 111.645 92.4137C111.645 96.7518 115.161 100.269 119.499 100.269Z" fill="#0593FC"/>
<path d="M116.355 92.4137C116.355 88.8961 118.667 85.9191 121.855 84.9185C121.111 84.6851 120.32 84.5589 119.499 84.5589C115.161 84.5589 111.645 88.0756 111.645 92.4137C111.645 96.7518 115.161 100.269 119.499 100.269C120.32 100.269 121.111 100.142 121.855 99.9087C118.667 98.9083 116.355 95.9313 116.355 92.4137Z" fill="#0182FC"/>
<path d="M119.5 108.024C110.892 108.024 103.889 101.021 103.889 92.4136C103.889 83.8061 110.892 76.8032 119.5 76.8032C128.107 76.8032 135.11 83.8061 135.11 92.4136C135.11 101.021 128.107 108.024 119.5 108.024ZM119.5 80.1724C112.75 80.1724 107.258 85.6636 107.258 92.4136C107.258 99.1635 112.75 104.655 119.5 104.655C126.249 104.655 131.741 99.1635 131.741 92.4136C131.741 85.6636 126.249 80.1724 119.5 80.1724Z" fill="#C4E2FF"/>
<path d="M135.671 115.548H103.328C102.397 115.548 101.643 114.794 101.643 113.864C101.643 112.933 102.397 112.179 103.328 112.179H135.671C136.602 112.179 137.356 112.933 137.356 113.864C137.356 114.794 136.602 115.548 135.671 115.548Z" fill="#C4E2FF"/>
<path d="M128.259 121.837H110.74C109.809 121.837 109.055 121.083 109.055 120.153C109.055 119.222 109.809 118.468 110.74 118.468H128.259C129.19 118.468 129.944 119.222 129.944 120.153C129.944 121.083 129.19 121.837 128.259 121.837Z" fill="#C4E2FF"/>
<path d="M140.164 141.154H98.8354C98.2153 141.154 97.7124 140.651 97.7124 140.031V127.003C97.7124 126.383 98.2153 125.88 98.8354 125.88H140.164C140.784 125.88 141.287 126.383 141.287 127.003V140.031C141.287 140.651 140.784 141.154 140.164 141.154Z" fill="#C4E2FF"/>
<path d="M104.451 140.031V127.003C104.451 126.383 104.954 125.88 105.574 125.88H98.8354C98.2153 125.88 97.7124 126.383 97.7124 127.003V140.031C97.7124 140.651 98.2153 141.154 98.8354 141.154H105.574C104.954 141.154 104.451 140.651 104.451 140.031Z" fill="#B3DAFE"/>
</g>
<defs>
<clipPath id="clip0_1_58">
<rect width="115" height="115" fill="white" transform="translate(61.9995 62.3159)"/>
</clipPath>
</defs>
</svg>
