<svg width="11" height="11" viewBox="0 0 11 11" fill="none" xmlns="http://www.w3.org/2000/svg">
<g clip-path="url(#clip0_0_180)">
<path d="M9.91063 1.65235L8.52221 0.262759C8.1724 -0.0873621 7.56383 -0.0880346 7.21265 0.263431L0.992794 6.54467C0.96522 6.57249 0.945327 6.60665 0.93448 6.64418L0.00888167 9.88661C-0.0141791 9.96735 0.00842609 10.0544 0.0678678 10.1139C0.111928 10.158 0.170915 10.1818 0.231484 10.1818C0.252723 10.1818 0.2742 10.1788 0.294983 10.1729L3.53462 9.24654C3.57213 9.2357 3.60625 9.21578 3.63404 9.18819L9.91063 2.96235C10.0856 2.7873 10.1818 2.55478 10.1818 2.30736C10.1818 2.05994 10.0856 1.8274 9.91063 1.65235ZM6.20427 1.94672L7.05606 2.79852L2.60887 7.24574L2.28971 6.6072C2.25038 6.52877 2.17039 6.47929 2.0827 6.47929H1.71212L6.20427 1.94672ZM0.568415 9.61341L0.869832 8.55828L1.62353 9.31197L0.568415 9.61341ZM3.23971 8.85028L2.13256 9.16656L1.01525 8.04925L1.33152 6.94209H1.93963L2.33848 7.7398C2.36084 7.78456 2.39722 7.82094 2.44198 7.8433L3.23969 8.24215V8.85028H3.23971ZM3.70253 8.4697V8.09912C3.70253 8.01143 3.65305 7.93145 3.57462 7.89212L2.93608 7.57295L7.38327 3.12575L8.23507 3.97755L3.70253 8.4697ZM9.58409 2.64056L8.56376 3.65179L6.53 1.61803L7.54056 0.598388C7.71548 0.423469 8.02008 0.423469 8.195 0.598388L9.58342 1.98681C9.67087 2.07426 9.71901 2.19041 9.71901 2.31402C9.71901 2.43763 9.67087 2.55379 9.58409 2.64056Z" fill="#5168F4"/>
</g>
<defs>
<clipPath id="clip0_0_180">
<rect width="10.1818" height="10.1818" fill="white"/>
</clipPath>
</defs>
</svg>
