<svg width="22" height="22" viewBox="0 0 22 22" fill="none" xmlns="http://www.w3.org/2000/svg">
<g clip-path="url(#clip0_1_72)">
<path d="M15.8326 22C11.9759 22 7.85735 20.5828 4.63719 17.3628C1.42239 14.1479 0 10.0322 0 6.16743C0 2.76134 2.75567 0 6.16743 0C6.431 0 6.66798 0.160445 6.76586 0.405152L9.52733 7.30881C9.65955 7.63933 9.4988 8.0144 9.16833 8.14662L6.13486 9.35997C6.34945 12.8498 9.15075 15.6509 12.64 15.8652L13.8534 12.8318C13.9853 12.5018 14.3603 12.3405 14.6912 12.4727L21.5948 15.2341C21.8395 15.332 22 15.569 22 15.8326C22 19.2387 19.2443 22 15.8326 22V22ZM5.73848 1.30754C3.27001 1.52114 1.28906 3.59111 1.28906 6.16743C1.28906 10.0522 2.80182 13.7044 5.54873 16.4512C8.29559 19.1981 11.9478 20.7109 15.8326 20.7109C18.4081 20.7109 20.4787 18.7311 20.6925 16.2615L14.8109 13.9089L13.6695 16.7623C13.5717 17.007 13.3347 17.1674 13.0711 17.1674C8.52805 17.1674 4.83257 13.4719 4.83257 8.92959C4.83257 8.66607 4.99301 8.42832 5.23772 8.33048L8.0911 7.1891L5.73848 1.30754Z" fill="#5168F4"/>
</g>
<defs>
<clipPath id="clip0_1_72">
<rect width="22" height="22" fill="white"/>
</clipPath>
</defs>
</svg>
