<svg xmlns="http://www.w3.org/2000/svg" version="1.1" xmlns:xlink="http://www.w3.org/1999/xlink" width="512" height="512" x="0" y="0" viewBox="0 0 96 96" style="enable-background:new 0 0 512 512" xml:space="preserve"><g><path d="m90.895 25.211-42-21a2.004 2.004 0 0 0-1.789 0l-42 21A2 2 0 0 0 4 27v42a2 2 0 0 0 1.105 1.789l42 21a1.998 1.998 0 0 0 1.79 0l42-21A2 2 0 0 0 92 69V27a2 2 0 0 0-1.105-1.789zM48 8.236 85.528 27 77.5 31.014 39.973 12.25zm13.5 30.778L23.972 20.25 35.5 14.486 73.028 33.25zm1.5 3.722 12-6v14.877l-3.838-2.741a2.006 2.006 0 0 0-1.506-.343 2.007 2.007 0 0 0-1.301.832L63 57.098zm-43.5-20.25L57.027 41.25 48 45.764 10.472 27zM8 30.236l38 19v37.527l-38-19zm42 56.528V49.236l9-4.5V63.5a2 2 0 0 0 3.645 1.139l7.845-11.331 5.349 3.82A1.997 1.997 0 0 0 79 55.5V34.736l9-4.5v37.527z" fill="#ffffff" opacity="1" data-original="#000000"></path></g></svg>