<svg width="20" height="20" viewBox="0 0 20 20" fill="none" xmlns="http://www.w3.org/2000/svg">
<g clip-path="url(#clip0_334_1303)">
<path d="M17.4513 5.385C17.42 5.30875 17.3737 5.24 17.3162 5.1825L12.3175 0.18375C12.26 0.12625 12.1913 0.08 12.115 0.04875C12.04 0.0175 11.9588 0 11.875 0H3.75C3.06125 0 2.5 0.56125 2.5 1.25V18.75C2.5 19.4387 3.06125 20 3.75 20H16.25C16.9387 20 17.5 19.4387 17.5 18.75V5.625C17.5 5.54125 17.4825 5.46 17.4513 5.385ZM12.5 2.13375L15.3663 5H12.5V2.13375ZM16.25 18.75H3.75V1.25H11.25V5C11.25 5.68875 11.8113 6.25 12.5 6.25H16.25V18.75Z" fill="white"/>
<path d="M6.875 12.5C6.53 12.5 6.25 12.78 6.25 13.125V16.875C6.25 17.22 6.53 17.5 6.875 17.5C7.22 17.5 7.5 17.22 7.5 16.875V13.125C7.5 12.78 7.22 12.5 6.875 12.5Z" fill="white"/>
<path d="M13.125 7.5C12.78 7.5 12.5 7.78 12.5 8.125V16.875C12.5 17.22 12.78 17.5 13.125 17.5C13.47 17.5 13.75 17.22 13.75 16.875V8.125C13.75 7.78 13.47 7.5 13.125 7.5Z" fill="white"/>
<path d="M10 10C9.655 10 9.375 10.28 9.375 10.625V16.875C9.375 17.22 9.655 17.5 10 17.5C10.345 17.5 10.625 17.22 10.625 16.875V10.625C10.625 10.28 10.345 10 10 10Z" fill="white"/>
</g>
<defs>
<clipPath id="clip0_334_1303">
<rect width="20" height="20" fill="white"/>
</clipPath>
</defs>
</svg>
