<svg width="20" height="20" viewBox="0 0 20 20" fill="none" xmlns="http://www.w3.org/2000/svg">
<path d="M17.9945 18.336C17.5988 18.6143 17.3129 18.8153 16.6649 18.8153C16.0169 18.8153 15.731 18.6143 15.3353 18.336C14.8965 18.0275 14.3503 17.6436 13.3318 17.6436C12.3131 17.6436 11.767 18.0275 11.3283 18.336C10.9326 18.6143 10.6467 18.8153 9.99877 18.8153C9.35088 18.8153 9.06499 18.6143 8.66929 18.336C8.2305 18.0275 7.68441 17.6436 6.66586 17.6436C5.64723 17.6436 5.10118 18.0275 4.6624 18.336C4.26669 18.6143 3.9808 18.8153 3.33291 18.8153C2.68502 18.8153 2.39917 18.6143 2.00346 18.336C1.56468 18.0275 1.01863 17.6436 0 17.6436V18.8153C0.647848 18.8153 0.933784 19.0163 1.32948 19.2946C1.76827 19.6031 2.31436 19.9871 3.33291 19.9871C4.35154 19.9871 4.89759 19.6031 5.33638 19.2946C5.73208 19.0164 6.01797 18.8153 6.66586 18.8153C7.31375 18.8153 7.5996 19.0163 7.99531 19.2946C8.43409 19.6031 8.98018 19.9871 9.99873 19.9871C11.0173 19.9871 11.5634 19.6031 12.0022 19.2946C12.3979 19.0164 12.6838 18.8153 13.3317 18.8153C13.9796 18.8153 14.2656 19.0163 14.6613 19.2946C15.1001 19.6031 15.6462 19.9871 16.6649 19.9871C17.6835 19.9871 18.2296 19.6031 18.6684 19.2946C19.0641 19.0164 19.35 18.8153 19.998 18.8153V17.6436C18.9794 17.6436 18.4333 18.0275 17.9945 18.336Z" fill="white"/>
<path d="M19.3926 4.27958C18.7483 2.89783 17.6613 1.8119 16.2974 1.17253L16.5737 0.413591L15.4725 0.0126953L15.1961 0.772027C12.0123 -0.0706245 8.64348 1.64526 7.49564 4.799L7.25911 5.44887L7.93903 5.57536C9.03782 5.77977 10.0883 6.16211 11.0613 6.7118L11.1981 6.78906L11.3552 6.78754C11.3749 6.78734 11.3947 6.78726 11.4144 6.78726C11.9316 6.78726 12.4426 6.8534 12.9363 6.9809L10.2061 14.482C10.137 14.4811 10.068 14.4799 9.99887 14.4799C8.18852 14.4799 6.4106 14.7763 4.71448 15.361C3.64593 15.7293 2.62316 16.2078 1.65723 16.7889C2.10351 16.9745 2.43234 17.2054 2.67714 17.3776C2.73062 17.4151 2.77593 17.4469 2.81656 17.4747C3.54628 17.0772 4.30784 16.7406 5.09635 16.4688C6.66935 15.9265 8.3188 15.6517 9.99887 15.6517C11.6789 15.6517 13.3283 15.9265 14.9014 16.4687C15.6899 16.7405 16.4514 17.0772 17.1812 17.4747C17.2217 17.4469 17.267 17.4152 17.3204 17.3777C17.5652 17.2055 17.8942 16.9745 18.3405 16.7888C17.3746 16.2078 16.3519 15.7293 15.2833 15.3609C14.0369 14.9313 12.7462 14.658 11.431 14.5429L14.0375 7.38156C14.5152 7.6096 14.9647 7.90054 15.373 8.24995L15.4924 8.3521L15.6468 8.38081C16.7456 8.58522 17.7961 8.96756 18.7691 9.51725L19.3713 9.8574L19.6079 9.20748C20.1966 7.58984 20.1201 5.83977 19.3926 4.27958ZM18.6975 8.158C17.8446 7.7464 16.9452 7.44472 16.0137 7.2582C14.7393 6.21469 13.1487 5.63575 11.5017 5.61598C10.6684 5.16017 9.78578 4.81321 8.8679 4.58025C10.066 2.26006 12.8379 1.13206 15.3551 2.04823C16.6786 2.52995 17.7353 3.49822 18.3305 4.77474C18.8296 5.84508 18.9542 7.02469 18.6975 8.158Z" fill="white"/>
<path d="M7.14347 10.5949L8.59292 9.83211L7.14347 9.06926L8.0173 7.68388L6.38063 7.74794L6.44469 6.11127L5.05931 6.98509L4.29646 5.53564L3.53361 6.98509L2.14823 6.11127L2.21229 7.74794L0.575622 7.68388L1.44944 9.06926L0 9.83211L1.44944 10.595L0.575622 11.9803L2.21229 11.9163L2.14823 13.5529L3.53361 12.6791L4.29646 14.1286L5.05931 12.6791L6.44469 13.5529L6.38063 11.9162L8.0173 11.9803L7.14347 10.5949ZM4.29646 11.9803C3.11002 11.9803 2.14823 11.0185 2.14823 9.83211C2.14823 8.64571 3.11002 7.68388 4.29646 7.68388C5.4829 7.68388 6.44469 8.64571 6.44469 9.83211C6.44469 11.0185 5.4829 11.9803 4.29646 11.9803Z" fill="white"/>
</svg>
