<svg width="20" height="20" viewBox="0 0 20 20" fill="none" xmlns="http://www.w3.org/2000/svg">
<path d="M17.8469 0H10.2568C10.1014 0 9.95236 0.0617979 9.8425 0.171661L0.629423 9.38443C-0.209808 10.224 -0.209808 11.5898 0.629423 12.429L7.57078 19.3702C7.97605 19.7755 8.51667 19.9987 9.09284 19.9989H9.09299C9.66931 19.9989 10.2099 19.7755 10.6154 19.3701L19.8281 10.1571C19.938 10.0473 19.9998 9.89819 19.9998 9.74286L19.9999 2.1527C19.9998 0.965726 19.0339 0 17.8469 0ZM18.8279 9.50025L9.78665 18.5415C9.60263 18.7257 9.3562 18.827 9.09299 18.827C8.82963 18.827 8.58335 18.7257 8.39933 18.5417L1.45797 11.6005C1.07559 11.2181 1.07559 10.5955 1.45797 10.213L10.4994 1.17187H17.8469C18.3879 1.17187 18.8281 1.61193 18.8281 2.15286L18.8279 9.50025Z" fill="white"/>
<path d="M14.8353 3.32324C14.3435 3.32324 13.8811 3.51489 13.5334 3.86264C13.1856 4.21024 12.9941 4.67258 12.9941 5.16437C12.9941 5.65616 13.1856 6.1185 13.5334 6.46625C13.8811 6.814 14.3435 7.00549 14.8353 7.00549C15.3269 7.00549 15.7892 6.814 16.137 6.46625C16.4847 6.1185 16.6762 5.65616 16.6762 5.16437C16.6762 4.67258 16.4847 4.21024 16.1371 3.86264C15.7894 3.51489 15.3271 3.32324 14.8353 3.32324ZM15.3084 5.63754C15.1821 5.76404 15.0139 5.83362 14.8353 5.83362C14.6564 5.83362 14.4884 5.76404 14.3621 5.63754C14.2356 5.5112 14.166 5.34305 14.166 5.16437C14.166 4.98569 14.2356 4.81754 14.3621 4.69119C14.4884 4.5647 14.6566 4.49512 14.8353 4.49512C15.0139 4.49512 15.1819 4.5647 15.3084 4.69119C15.4349 4.81754 15.5045 4.98569 15.5045 5.16437C15.5045 5.34305 15.4348 5.5112 15.3084 5.63754Z" fill="white"/>
</svg>
