<svg width="252" height="249" viewBox="0 0 252 249" fill="none" xmlns="http://www.w3.org/2000/svg">
<g clip-path="url(#clip0)">
<path d="M221.168 213.713C216.031 219.05 211.171 222.491 207.33 225.21C162.19 257.17 108.775 247.853 97.4238 245.578C80.6604 242.219 48.2575 235.725 24.8306 208.541C-10.6121 167.414 -5.09311 102.619 22.3984 59.8478C27.4267 52.0244 53.9899 8.60083 107.979 1.63738C140.653 -2.57732 178.74 5.92285 206.322 28.7241C264.218 76.5863 260.095 173.275 221.168 213.713Z" fill="#E4FFF6"/>
<path d="M103.131 229.074C101.551 200.652 90.9988 174.725 53.534 156.28C53.5349 156.28 47.72 226.001 103.131 229.074Z" fill="#6DBFA4"/>
<path opacity="0.51" d="M92.8427 216.735C92.7666 216.735 92.6913 216.707 92.6319 216.649C71.4416 195.992 58.2016 165.686 58.0705 165.382C58.0049 165.23 58.0749 165.052 58.2273 164.986C58.3796 164.921 58.5576 164.991 58.6232 165.143C58.7543 165.446 71.9482 195.646 93.0518 216.217C93.1713 216.333 93.1731 216.524 93.0571 216.643C92.9995 216.705 92.9207 216.735 92.8427 216.735Z" fill="white"/>
<path d="M168.443 227.299C194.031 229.658 218.58 223.692 240.014 192.761C240.013 192.761 178.527 178.345 168.443 227.299Z" fill="#6DBFA4"/>
<path opacity="0.51" d="M182.962 218.95C182.893 218.95 182.824 218.926 182.767 218.878C182.639 218.77 182.624 218.581 182.731 218.453C190.381 209.447 202.905 203.725 212.064 200.51C221.975 197.031 230.194 195.658 230.276 195.644C230.442 195.615 230.596 195.728 230.622 195.892C230.65 196.056 230.538 196.211 230.374 196.238C230.048 196.292 197.673 201.792 183.191 218.843C183.132 218.914 183.047 218.95 182.962 218.95Z" fill="white"/>
<path d="M106.098 173.437L100.718 221.631H163.136L155.005 173.437H106.098Z" fill="#113758"/>
<path d="M1.24609 54.6959V165.073C1.24609 174.153 8.49053 181.579 17.5782 181.813C57.9412 182.852 199.11 185.373 237.532 184.807C244.136 184.71 249.486 179.432 249.677 172.837C250.417 147.195 251.621 85.5347 247.168 56.9077C246.23 50.8793 241.136 46.3709 235.031 46.1763C201.212 45.0961 51.5639 41.6643 13.1592 42.526C6.53483 42.6747 1.24609 48.0784 1.24609 54.6959Z" fill="#009DCB"/>
<path d="M8.17969 54.1591V159.026C8.17969 164.327 12.4401 168.647 17.7474 168.726L232.004 171.371C237.266 171.45 241.579 167.222 241.599 161.966L241.957 58.0358C241.972 54.2777 238.974 51.198 235.213 51.1069L15.8528 46.679C11.6456 46.5773 8.17969 49.955 8.17969 54.1591Z" fill="#D7FFF4"/>
<path opacity="0.65" d="M243.211 175.672C243.209 175.672 243.208 175.672 243.206 175.672L8.17469 171.672C8.00817 171.669 7.87531 171.532 7.87797 171.366C7.88151 171.199 8.03297 171.067 8.18443 171.069L243.216 175.069C243.383 175.072 243.516 175.209 243.513 175.375C243.51 175.541 243.375 175.672 243.211 175.672Z" fill="white"/>
<path opacity="0.65" d="M128.014 180.556C126.5 180.556 125.268 179.326 125.268 177.813C125.268 176.3 126.5 175.069 128.014 175.069C129.529 175.069 130.761 176.3 130.761 177.813C130.761 179.326 129.529 180.556 128.014 180.556ZM128.014 175.671C126.832 175.671 125.87 176.632 125.87 177.813C125.87 178.994 126.832 179.955 128.014 179.955C129.197 179.955 130.159 178.994 130.159 177.813C130.159 176.632 129.196 175.671 128.014 175.671Z" fill="white"/>
<path d="M164.679 228.637C192.126 215.028 213.3 193.62 215.662 148.825C215.661 148.824 144.225 172.647 164.679 228.637Z" fill="#2A7B7B"/>
<path opacity="0.51" d="M169.118 218.524C169.085 218.524 169.052 218.519 169.018 218.508C168.861 218.453 168.778 218.281 168.834 218.124C175.386 199.468 185.122 185.085 192.137 176.303C199.739 166.785 205.879 161.607 205.941 161.556C206.069 161.45 206.259 161.467 206.366 161.593C206.473 161.721 206.456 161.911 206.329 162.018C206.086 162.221 181.885 182.784 169.403 218.324C169.358 218.447 169.242 218.524 169.118 218.524Z" fill="white"/>
<path d="M176.581 231.492H85.2272C82.7454 231.492 80.8818 229.727 81.3619 227.832L82.5337 223.201C82.8862 221.808 84.4203 220.786 86.2414 220.729L174.309 217.984C176.213 217.925 177.897 218.934 178.313 220.381L180.426 227.756C180.975 229.673 179.103 231.492 176.581 231.492Z" fill="#4AC1A2"/>
<path d="M134.405 221.987C134.24 221.987 134.105 221.856 134.104 221.691C134.101 221.525 134.235 221.388 134.4 221.386L138.174 221.331C138.176 221.331 138.177 221.331 138.179 221.331C138.344 221.331 138.478 221.463 138.48 221.627C138.483 221.794 138.349 221.931 138.183 221.933L134.409 221.987C134.407 221.987 134.406 221.987 134.405 221.987Z" fill="white"/>
<path d="M84.7436 228.943C84.7276 228.943 84.7117 228.942 84.6957 228.939C84.531 228.912 84.4194 228.759 84.4451 228.594L84.9836 225.226C85.2732 223.414 86.8162 222.08 88.6523 222.053L128.68 221.468C128.681 221.468 128.682 221.468 128.684 221.468C128.849 221.468 128.983 221.6 128.985 221.764C128.988 221.93 128.854 222.068 128.689 222.069L88.6612 222.654C87.1182 222.677 85.8224 223.798 85.5788 225.32L85.0403 228.688C85.0173 228.836 84.8897 228.943 84.7436 228.943Z" fill="white"/>
<path d="M199.232 9.4678C200.598 9.53238 201.976 9.65713 203.328 9.83849C203.514 9.86326 203.695 9.84734 203.863 9.79603C204.326 9.65713 204.687 9.25901 204.755 8.75031C204.849 8.05583 204.361 7.41708 203.666 7.32418C202.242 7.13309 200.79 7.00215 199.352 6.93403C198.651 6.9013 198.056 7.44096 198.023 8.14076C197.99 8.84055 198.531 9.43418 199.232 9.4678Z" fill="#4AC1A2"/>
<path d="M163.656 20.9739C163.171 20.4678 162.367 20.451 161.861 20.9358C160.823 21.9294 159.815 22.9804 158.865 24.0579C158.402 24.5843 158.453 25.385 158.98 25.8477C159.322 26.1485 159.781 26.2316 160.187 26.1095C160.406 26.0432 160.61 25.9176 160.772 25.7336C161.674 24.7091 162.631 23.7111 163.618 22.7672C164.124 22.2824 164.141 21.4799 163.656 20.9739Z" fill="#4AC1A2"/>
<path d="M148.083 49.6385C147.388 49.5448 146.748 50.0305 146.653 50.7241C146.459 52.1475 146.325 53.5967 146.254 55.0308C146.22 55.7306 146.76 56.3251 147.46 56.3605C147.61 56.3675 147.754 56.349 147.89 56.3083C148.389 56.1579 148.764 55.7067 148.791 55.1555C148.859 53.7931 148.986 52.4174 149.169 51.0656C149.264 50.3728 148.778 49.7332 148.083 49.6385Z" fill="#4AC1A2"/>
<path d="M156.356 29.2791C155.77 28.8934 154.982 29.0544 154.596 29.6401C153.804 30.8406 153.053 32.088 152.368 33.347C152.032 33.9618 152.26 34.7324 152.876 35.0677C153.186 35.2367 153.536 35.2623 153.85 35.1686C154.158 35.0757 154.432 34.866 154.598 34.5608C155.25 33.3647 155.963 32.1792 156.717 31.0379C157.102 30.4514 156.941 29.6649 156.356 29.2791Z" fill="#4AC1A2"/>
<path d="M188.476 10.17C189.823 9.92939 191.195 9.7436 192.554 9.61797C192.641 9.61001 192.724 9.5932 192.805 9.56843C193.371 9.39769 193.758 8.84829 193.701 8.23785C193.637 7.54071 193.018 7.02758 192.32 7.09128C190.889 7.22399 189.445 7.4195 188.029 7.67253C187.337 7.79285 186.879 8.45548 187.002 9.14466C187.126 9.83473 187.785 10.293 188.476 10.17Z" fill="#4AC1A2"/>
<path d="M151.076 38.9934C150.419 38.7475 149.687 39.0783 149.44 39.733C148.933 41.0769 148.478 42.4596 148.087 43.8424C147.897 44.5166 148.29 45.2172 148.965 45.4075C149.207 45.4756 149.451 45.4694 149.675 45.4013C150.076 45.2801 150.409 44.9633 150.532 44.5307C150.902 43.2161 151.334 41.9032 151.816 40.6266C152.063 39.9719 151.731 39.2402 151.076 38.9934Z" fill="#4AC1A2"/>
<path d="M147.55 60.6771C146.85 60.7425 146.337 61.3574 146.4 62.0554C146.529 63.4816 146.722 64.9236 146.973 66.34C147.095 67.0301 147.754 67.4901 148.445 67.368C148.494 67.3592 148.544 67.3477 148.592 67.3335C149.2 67.1504 149.587 66.5382 149.474 65.8986C149.235 64.552 149.052 63.1825 148.929 61.8272C148.866 61.1283 148.248 60.6143 147.55 60.6771Z" fill="#4AC1A2"/>
<path d="M168.369 18.6855C168.5 18.6457 168.628 18.5838 168.746 18.4997C169.853 17.7017 171.008 16.9427 172.18 16.2429C172.782 15.8828 172.978 15.1043 172.618 14.5027C172.258 13.9011 171.48 13.7091 170.876 14.0656C169.642 14.8026 168.426 15.6023 167.26 16.4428C166.692 16.8524 166.563 17.6451 166.973 18.214C167.298 18.6634 167.865 18.8377 168.369 18.6855Z" fill="#4AC1A2"/>
<path d="M178.008 13.2723C178.051 13.2591 178.094 13.244 178.136 13.2263C179.393 12.6964 180.69 12.2142 181.99 11.7922C182.657 11.5764 183.023 10.8607 182.806 10.1945C182.593 9.53715 181.892 9.17265 181.232 9.37171C181.223 9.37436 181.214 9.37702 181.206 9.37967C179.837 9.82291 178.472 10.3316 177.15 10.889C176.503 11.1615 176.201 11.9055 176.473 12.5513C176.728 13.1538 177.395 13.4572 178.008 13.2723Z" fill="#4AC1A2"/>
<path d="M151.08 72.3595C150.867 71.7004 150.16 71.3191 149.5 71.5173C149.492 71.5199 149.484 71.5217 149.476 71.5244C148.804 71.727 148.446 72.471 148.663 73.1381C149.105 74.5084 149.623 75.9116 150.178 77.2333C150.431 77.8375 151.096 78.1313 151.711 77.9464C151.754 77.934 151.789 77.8986 151.831 77.8809C152.477 77.6102 152.783 76.8697 152.512 76.2239C151.984 74.9694 151.5 73.6618 151.08 72.3595Z" fill="#4AC1A2"/>
<path d="M213.4 10.9543C213.617 10.289 213.252 9.5724 212.585 9.35565C211.93 9.14244 211.26 8.93984 210.593 8.75229C209.918 8.56119 209.217 8.95577 209.027 9.62991C208.838 10.304 209.231 11.0047 209.906 11.1941C210.54 11.3728 211.177 11.5647 211.799 11.7673C212.055 11.8505 212.318 11.8478 212.558 11.7762C212.943 11.6603 213.266 11.3648 213.4 10.9543Z" fill="#4AC1A2"/>
<path d="M192.215 105.456C190.876 105.325 189.528 105.135 188.208 104.891C187.518 104.764 186.856 105.22 186.728 105.909C186.601 106.598 187.057 107.259 187.747 107.386C189.139 107.643 190.558 107.843 191.967 107.981C192.137 107.998 192.302 107.98 192.457 107.934C192.936 107.79 193.303 107.37 193.355 106.843C193.423 106.145 192.913 105.524 192.215 105.456Z" fill="#4AC1A2"/>
<path d="M244.609 38.7178C244.885 39.2858 245.53 39.5556 246.117 39.3787C246.18 39.3592 246.244 39.3353 246.306 39.3052C246.937 38.9991 247.201 38.241 246.894 37.6102C246.593 36.9909 246.274 36.3672 245.946 35.7567C245.613 35.1401 244.846 34.9065 244.225 35.2401C243.608 35.5718 243.376 36.3406 243.708 36.9581C244.02 37.5367 244.323 38.1295 244.609 38.7178Z" fill="#4AC1A2"/>
<path d="M250.379 53.7952C249.683 53.8633 249.17 54.4826 249.239 55.1806C249.369 56.5183 249.443 57.8754 249.46 59.2157C249.469 59.9155 250.045 60.4764 250.745 60.4675C250.867 60.4658 250.985 60.4472 251.097 60.4145C251.625 60.2552 252.006 59.7624 251.999 59.1838C251.982 57.7727 251.904 56.344 251.766 54.9355C251.698 54.2375 251.077 53.727 250.379 53.7952Z" fill="#4AC1A2"/>
<path d="M250.509 64.6741C249.814 64.5866 249.178 65.0793 249.091 65.7747C248.923 67.1053 248.697 68.4465 248.416 69.7612C248.27 70.4459 248.707 71.1201 249.394 71.2652C249.611 71.3112 249.826 71.2988 250.023 71.2395C250.452 71.1103 250.8 70.7573 250.9 70.2884C251.195 68.9048 251.434 67.4928 251.611 66.0905C251.698 65.3961 251.205 64.7617 250.509 64.6741Z" fill="#4AC1A2"/>
<path d="M241.936 85.5872C241.216 86.7196 240.437 87.836 239.624 88.9056C239.2 89.4639 239.309 90.2592 239.868 90.683C240.204 90.9378 240.627 90.9997 241.003 90.8865C241.251 90.8121 241.478 90.6609 241.646 90.4397C242.503 89.3135 243.321 88.1386 244.079 86.9469C244.455 86.3551 244.28 85.5721 243.689 85.1961C243.095 84.8201 242.311 84.9953 241.936 85.5872Z" fill="#4AC1A2"/>
<path d="M227.027 100.462C225.889 101.18 224.709 101.857 223.518 102.474C222.896 102.797 222.653 103.563 222.976 104.185C223.262 104.735 223.896 104.988 224.469 104.815C224.543 104.793 224.617 104.763 224.688 104.726C225.942 104.076 227.185 103.363 228.383 102.606C228.975 102.232 229.152 101.448 228.778 100.856C228.404 100.264 227.62 100.088 227.027 100.462Z" fill="#4AC1A2"/>
<path d="M235.302 93.8503C234.35 94.8005 233.347 95.7205 232.322 96.584C231.786 97.0361 231.718 97.8359 232.171 98.372C232.507 98.771 233.038 98.9099 233.508 98.7683C233.669 98.7197 233.823 98.6383 233.96 98.5233C235.039 97.6138 236.094 96.6451 237.096 95.6445C237.592 95.149 237.592 94.3466 237.097 93.8512C236.602 93.3557 235.798 93.3557 235.302 93.8503Z" fill="#4AC1A2"/>
<path d="M248.236 75.3131C247.575 75.0751 246.848 75.4166 246.61 76.0748C246.154 77.3364 245.638 78.5953 245.077 79.817C244.785 80.454 245.064 81.2069 245.701 81.4989C245.994 81.6333 246.312 81.6466 246.597 81.5608C246.933 81.459 247.226 81.2193 247.385 80.8751C247.976 79.5888 248.519 78.2635 248.999 76.9365C249.238 76.2783 248.896 75.551 248.236 75.3131Z" fill="#4AC1A2"/>
<path d="M207.167 107.54C205.831 107.705 204.474 107.817 203.132 107.87C202.432 107.896 201.886 108.487 201.913 109.188C201.941 109.888 202.531 110.433 203.232 110.405C204.645 110.349 206.073 110.231 207.479 110.057C207.552 110.048 207.623 110.033 207.691 110.013C208.273 109.838 208.661 109.264 208.583 108.642C208.498 107.948 207.863 107.454 207.167 107.54Z" fill="#4AC1A2"/>
<path d="M217.492 105.094C216.234 105.541 214.937 105.941 213.624 106.29C212.949 106.466 212.542 107.164 212.722 107.842C212.902 108.519 213.597 108.922 214.276 108.742C214.845 108.591 215.41 108.432 215.968 108.264C216.767 108.023 217.566 107.761 218.344 107.484C219.005 107.25 219.35 106.524 219.115 105.863C218.879 105.203 218.154 104.86 217.492 105.094Z" fill="#4AC1A2"/>
<path d="M249.483 44.0224C249.266 43.3562 248.553 42.9767 247.882 43.2094C247.215 43.4261 246.851 44.1418 247.068 44.808C247.177 45.146 247.285 45.4866 247.388 45.8281C247.673 46.7729 247.934 47.7399 248.161 48.7016C248.323 49.3828 249.006 49.8057 249.689 49.6438C249.715 49.6376 249.741 49.6314 249.766 49.6234C250.403 49.4314 250.789 48.7741 250.634 48.1177C250.394 47.1056 250.121 46.0882 249.82 45.0947C249.711 44.7355 249.599 44.3781 249.483 44.0224Z" fill="#4AC1A2"/>
<path d="M181.808 103.252C181.189 103.047 180.561 102.825 179.944 102.592C179.287 102.344 178.555 102.675 178.307 103.331C178.059 103.986 178.39 104.718 179.047 104.966C179.697 105.211 180.357 105.444 181.009 105.66C181.267 105.745 181.532 105.743 181.774 105.671C182.156 105.556 182.478 105.262 182.613 104.855C182.835 104.189 182.473 103.471 181.808 103.252Z" fill="#4AC1A2"/>
<path d="M238.529 47.0198L231.381 46.013C230.013 42.9714 228.187 40.22 226.01 37.8154L216.784 39.5866L209.732 47.2233L215.957 60.6857L200.203 60.1602L190.994 67.0087L192.244 79.0945L182.56 77.2189L179.263 80.4844L177.403 87.4328C177.338 87.677 177.434 87.9362 177.645 88.0777L184.828 92.917C185.038 93.0586 185.315 93.0515 185.517 92.8993L191.289 88.5599C194.442 89.7578 197.81 90.4611 201.278 90.5938L204.89 96.8371C205.017 97.0565 205.269 97.1706 205.517 97.122L214.023 95.4702C214.272 95.4216 214.462 95.2216 214.498 94.9713L215.506 87.8309C218.673 86.4101 221.53 84.4973 224.005 82.2078L230.984 84.0718C231.228 84.1373 231.488 84.04 231.629 83.8303L236.474 76.6554C236.615 76.4457 236.608 76.1688 236.456 75.9671L232.111 70.2033C233.311 67.0538 234.015 63.6902 234.148 60.2257L240.398 56.617C240.618 56.4905 240.732 56.2392 240.684 55.9906L239.03 47.4949C238.981 47.2454 238.781 47.0552 238.529 47.0198Z" fill="#113758"/>
<path d="M205.351 65.0296C202.294 66.4655 198.696 65.3711 196.91 62.6126L195.279 63.8273C197.398 66.9919 201.369 68.4233 205.021 67.3236C205.424 67.2024 205.823 67.0503 206.215 66.8663C208.859 65.625 210.586 63.2169 211.075 60.5442L209.013 60.4717C208.572 62.4039 207.283 64.1237 205.351 65.0296Z" fill="#4AC1A2"/>
<path d="M223.095 52.6138C221.732 48.1054 218.94 44.211 215.068 41.4463L214.374 42.1983C218.115 44.8364 220.812 48.5743 222.122 52.9093C222.323 53.5746 222.492 54.254 222.626 54.945C223.393 58.8872 222.962 62.7887 221.586 66.2744C219.113 72.5398 213.59 77.4587 206.493 78.8353C205.065 79.1131 203.609 79.2388 202.166 79.2096C201.886 79.2043 201.653 79.4263 201.648 79.7059C201.647 79.7607 201.654 79.8138 201.669 79.8633C201.731 80.0677 201.919 80.219 202.144 80.2234C202.23 80.2252 202.316 80.1792 202.402 80.1792C202.446 80.1801 202.491 80.1323 202.535 80.1323C202.55 80.1323 202.566 80.1323 202.582 80.1323C203.723 80.1323 204.868 80.0872 206.001 79.9049C206.23 79.8678 206.46 79.851 206.688 79.8067C207.414 79.6661 208.127 79.5015 208.825 79.291C213.531 77.8737 217.571 74.9135 220.356 70.7881C223.554 66.0515 224.716 60.3567 223.623 54.7477C223.482 54.0223 223.305 53.3118 223.095 52.6138Z" fill="#4AC1A2"/>
<path d="M184.864 73.601L183.673 62.0858L192.882 55.2373L208.232 55.7496C208.418 55.7558 208.545 55.5638 208.467 55.3957L202.413 42.3004L209.464 34.6637L218.691 32.8926C218.603 32.7961 218.52 32.6962 218.431 32.6006L220.297 25.6301C220.363 25.3859 220.265 25.1267 220.056 24.986L212.872 20.1467C212.662 20.0052 212.386 20.0123 212.183 20.1644L206.412 24.5039C203.258 23.306 199.891 22.6027 196.422 22.47L192.809 16.2266C192.683 16.0072 192.431 15.8931 192.182 15.9418L183.677 17.5935C183.428 17.6422 183.237 17.8421 183.202 18.0925L182.194 25.2329C179.026 26.6537 176.169 28.5655 173.694 30.856L166.716 28.9919C166.471 28.9265 166.212 29.0238 166.07 29.2335L161.225 36.4083C161.083 36.618 161.09 36.894 161.243 37.0966L165.587 42.8613C164.388 46.0108 163.684 49.3745 163.552 52.8389L157.301 56.4476C157.082 56.5741 156.967 56.8254 157.016 57.074L158.67 65.5697C158.718 65.8183 158.919 66.0085 159.169 66.0439L166.318 67.0507C167.74 70.2144 169.655 73.0684 171.948 75.5402L171.941 75.5624L175.238 72.297L184.359 74.0637C184.64 74.1168 184.894 73.885 184.864 73.601Z" fill="#113758"/>
<path d="M189.588 57.6914C189.427 57.4419 189.275 57.1844 189.146 56.9075C187.58 53.5793 189.017 49.5982 192.349 48.034C192.651 47.8925 192.96 47.7748 193.274 47.6801C194.637 47.2696 196.091 47.3059 197.455 47.7969C199.133 48.4012 200.475 49.622 201.233 51.2349C201.891 52.6344 202.013 54.1482 201.692 55.5504L203.754 55.6229C204.069 53.9022 203.872 52.0718 203.072 50.3714C202.083 48.2685 200.332 46.676 198.144 45.8877C195.956 45.0995 193.591 45.2092 191.485 46.1983C187.138 48.2384 185.263 53.4298 187.306 57.7719C187.495 58.1735 187.718 58.5486 187.958 58.9069L189.588 57.6914Z" fill="#4AC1A2"/>
<path d="M207.255 36.1765C202.513 32.981 196.809 31.822 191.193 32.912C179.605 35.1626 172.004 46.4133 174.257 57.9922C174.396 58.7062 174.571 59.4095 174.78 60.1013C175.685 63.0987 177.238 65.8651 179.335 68.1954C179.523 68.4051 179.843 68.4202 180.052 68.2335C180.204 68.0981 180.254 67.892 180.199 67.7097C180.179 67.6407 180.143 67.5744 180.091 67.5169C178.094 65.2963 176.615 62.6617 175.753 59.8067C175.554 59.1476 175.387 58.477 175.255 57.7967C173.109 46.7681 180.341 36.0526 191.388 33.9072C196.737 32.8686 202.171 33.9727 206.688 37.0161C206.812 37.0992 206.932 37.1877 207.054 37.2735L207.748 36.5215C207.585 36.4065 207.422 36.2888 207.255 36.1765Z" fill="#4AC1A2"/>
<path d="M57.1171 53.3331C66.8718 43.5899 66.8718 27.793 57.1171 18.0497C47.3624 8.3065 31.547 8.3065 21.7923 18.0497C12.0376 27.793 12.0376 43.5899 21.7923 53.3331C31.547 63.0763 47.3624 63.0763 57.1171 53.3331Z" fill="white"/>
<path d="M39.4554 59.8112C52.7919 59.8112 63.6033 49.0126 63.6033 35.6918C63.6033 22.3709 52.7919 11.5723 39.4554 11.5723C26.119 11.5723 15.3076 22.3709 15.3076 35.6918C15.3076 49.0126 26.119 59.8112 39.4554 59.8112Z" fill="white"/>
<path opacity="0.7" d="M59.3678 25.9265C59.4068 25.9265 59.4457 25.9176 59.4829 25.899C59.6087 25.8353 59.6592 25.6823 59.5954 25.5567C55.7345 17.9164 48.018 13.1709 39.4556 13.1709C38.0898 13.1709 36.7222 13.2939 35.3883 13.5363C35.2492 13.561 35.158 13.6938 35.1828 13.8327C35.2076 13.9715 35.3404 14.0636 35.4795 14.037C36.7824 13.7999 38.1199 13.6796 39.4547 13.6796C47.8231 13.6796 55.3652 18.3181 59.1393 25.7849C59.1853 25.8751 59.2748 25.9265 59.3678 25.9265Z" fill="white"/>
<path d="M53.3803 50.6528C61.3619 42.6805 61.3619 29.755 53.3803 21.7828C45.3987 13.8105 32.458 13.8105 24.4764 21.7828C16.4948 29.755 16.4948 42.6805 24.4764 50.6528C32.458 58.625 45.3987 58.625 53.3803 50.6528Z" fill="white"/>
<path d="M40.1951 40.1864L37.8824 40.1316C37.2376 40.1165 36.7044 39.5654 36.6707 38.9178L35.824 22.6411C35.8063 22.3058 35.9276 22.0289 36.1579 21.8024C36.3882 21.5759 36.707 21.5025 37.041 21.5255L41.0241 21.8024C41.351 21.8254 41.6619 21.9334 41.886 22.1881C42.1101 22.4429 42.227 22.7482 42.2101 23.0755L41.3864 39.0549C41.3527 39.6945 40.8302 40.2015 40.1951 40.1864Z" fill="#356294"/>
<path d="M36.6248 44.1627C37.2023 43.6116 38.0154 43.3453 39.0597 43.3621C40.1367 43.3789 40.9534 43.6629 41.5123 44.2123C42.0703 44.7599 42.3475 45.5597 42.3475 46.6133C42.3475 47.629 42.0632 48.4155 41.4937 48.9728C40.9224 49.532 40.1119 49.8115 39.0597 49.8115C38.0278 49.8115 37.2182 49.5222 36.6345 48.9436C36.049 48.3624 35.7559 47.5679 35.7559 46.5611C35.755 45.5145 36.0455 44.7148 36.6248 44.1627Z" fill="#356294"/>
<path d="M98.5225 21.4704L34.0426 129.685C32.6272 132.06 34.4775 134.967 37.4208 134.991L165.24 136.042C168.194 136.066 170.1 133.171 168.708 130.772L105.369 21.5067C103.914 18.995 100.01 18.9738 98.5225 21.4704Z" fill="#6DBFA4"/>
<path d="M98.8479 27.9349L40.2874 126.215C39.0013 128.373 40.6825 131.013 43.3556 131.035L159.44 131.989C162.123 132.012 163.854 129.382 162.591 127.203L105.067 27.9685C103.744 25.6869 100.2 25.6683 98.8479 27.9349Z" fill="white"/>
<path d="M80.7483 105.562C80.0337 104.293 79.2603 103.04 78.4283 101.802C77.5963 100.565 76.711 99.3972 75.7723 98.2985V105.562H73.3083V94.4745H75.3403C75.6923 94.8265 76.0817 95.2585 76.5083 95.7705C76.935 96.2825 77.367 96.8318 77.8043 97.4185C78.2523 97.9945 78.695 98.5972 79.1323 99.2265C79.5697 99.8452 79.9803 100.442 80.3643 101.018V94.4745H82.8443V105.562H80.7483ZM93.1141 101.339C93.1141 102 93.0181 102.608 92.8261 103.162C92.6341 103.706 92.3567 104.176 91.9941 104.57C91.6314 104.954 91.1941 105.253 90.6821 105.466C90.1807 105.68 89.6154 105.787 88.9861 105.787C88.3674 105.787 87.8021 105.68 87.2901 105.466C86.7887 105.253 86.3567 104.954 85.9941 104.57C85.6314 104.176 85.3487 103.706 85.1461 103.162C84.9434 102.608 84.8421 102 84.8421 101.339C84.8421 100.677 84.9434 100.074 85.1461 99.5305C85.3594 98.9865 85.6474 98.5225 86.0101 98.1385C86.3834 97.7545 86.8207 97.4558 87.3221 97.2425C87.8341 97.0292 88.3887 96.9225 88.9861 96.9225C89.5941 96.9225 90.1487 97.0292 90.6501 97.2425C91.1621 97.4558 91.5994 97.7545 91.9621 98.1385C92.3247 98.5225 92.6074 98.9865 92.8101 99.5305C93.0127 100.074 93.1141 100.677 93.1141 101.339ZM90.6821 101.339C90.6821 100.602 90.5327 100.026 90.2341 99.6105C89.9461 99.1838 89.5301 98.9705 88.9861 98.9705C88.4421 98.9705 88.0207 99.1838 87.7221 99.6105C87.4234 100.026 87.2741 100.602 87.2741 101.339C87.2741 102.074 87.4234 102.661 87.7221 103.098C88.0207 103.525 88.4421 103.738 88.9861 103.738C89.5301 103.738 89.9461 103.525 90.2341 103.098C90.5327 102.661 90.6821 102.074 90.6821 101.339ZM101.461 103.53C101.578 103.541 101.711 103.552 101.861 103.562C102.021 103.562 102.207 103.562 102.421 103.562C103.669 103.562 104.591 103.248 105.189 102.618C105.797 101.989 106.101 101.12 106.101 100.01C106.101 98.8478 105.813 97.9678 105.237 97.3705C104.661 96.7732 103.749 96.4745 102.501 96.4745C102.33 96.4745 102.154 96.4798 101.973 96.4905C101.791 96.4905 101.621 96.5012 101.461 96.5225V103.53ZM108.677 100.01C108.677 100.97 108.527 101.808 108.229 102.522C107.93 103.237 107.503 103.829 106.949 104.298C106.405 104.768 105.738 105.12 104.949 105.354C104.159 105.589 103.274 105.707 102.293 105.707C101.845 105.707 101.322 105.685 100.725 105.643C100.127 105.611 99.5406 105.536 98.9646 105.418V94.6185C99.5406 94.5118 100.138 94.4425 100.757 94.4105C101.386 94.3678 101.925 94.3465 102.373 94.3465C103.322 94.3465 104.181 94.4532 104.949 94.6665C105.727 94.8798 106.394 95.2158 106.949 95.6745C107.503 96.1332 107.93 96.7198 108.229 97.4345C108.527 98.1492 108.677 99.0078 108.677 100.01ZM113.817 103.898C114.052 103.898 114.276 103.893 114.489 103.882C114.703 103.872 114.873 103.856 115.001 103.834V102.026C114.905 102.005 114.761 101.984 114.569 101.962C114.377 101.941 114.201 101.93 114.041 101.93C113.817 101.93 113.604 101.946 113.401 101.978C113.209 102 113.039 102.048 112.889 102.122C112.74 102.197 112.623 102.298 112.537 102.426C112.452 102.554 112.409 102.714 112.409 102.906C112.409 103.28 112.532 103.541 112.777 103.69C113.033 103.829 113.38 103.898 113.817 103.898ZM113.625 96.9225C114.329 96.9225 114.916 97.0025 115.385 97.1625C115.855 97.3225 116.228 97.5518 116.505 97.8505C116.793 98.1492 116.996 98.5118 117.113 98.9385C117.231 99.3652 117.289 99.8398 117.289 100.362V105.322C116.948 105.397 116.473 105.482 115.865 105.579C115.257 105.685 114.521 105.739 113.657 105.739C113.113 105.739 112.617 105.691 112.169 105.595C111.732 105.498 111.353 105.344 111.033 105.13C110.713 104.906 110.468 104.618 110.297 104.266C110.127 103.914 110.041 103.482 110.041 102.97C110.041 102.48 110.137 102.064 110.329 101.722C110.532 101.381 110.799 101.109 111.129 100.906C111.46 100.704 111.839 100.56 112.265 100.474C112.692 100.378 113.135 100.33 113.593 100.33C113.903 100.33 114.175 100.346 114.409 100.378C114.655 100.4 114.852 100.432 115.001 100.474V100.25C115.001 99.8452 114.879 99.5198 114.633 99.2745C114.388 99.0292 113.961 98.9065 113.353 98.9065C112.948 98.9065 112.548 98.9385 112.153 99.0025C111.759 99.0558 111.417 99.1358 111.129 99.2425L110.825 97.3225C110.964 97.2798 111.135 97.2372 111.337 97.1945C111.551 97.1412 111.78 97.0985 112.025 97.0665C112.271 97.0238 112.527 96.9918 112.793 96.9705C113.071 96.9385 113.348 96.9225 113.625 96.9225ZM119.365 95.0505L121.749 94.6665V97.1465H124.613V99.1305H121.749V102.09C121.749 102.592 121.835 102.992 122.005 103.29C122.187 103.589 122.544 103.738 123.077 103.738C123.333 103.738 123.595 103.717 123.861 103.674C124.139 103.621 124.389 103.552 124.613 103.466L124.949 105.322C124.661 105.44 124.341 105.541 123.989 105.627C123.637 105.712 123.205 105.755 122.693 105.755C122.043 105.755 121.504 105.669 121.077 105.498C120.651 105.317 120.309 105.072 120.053 104.762C119.797 104.442 119.616 104.058 119.509 103.61C119.413 103.162 119.365 102.666 119.365 102.122V95.0505ZM129.458 103.898C129.693 103.898 129.917 103.893 130.13 103.882C130.343 103.872 130.514 103.856 130.642 103.834V102.026C130.546 102.005 130.402 101.984 130.21 101.962C130.018 101.941 129.842 101.93 129.682 101.93C129.458 101.93 129.245 101.946 129.042 101.978C128.85 102 128.679 102.048 128.53 102.122C128.381 102.197 128.263 102.298 128.178 102.426C128.093 102.554 128.05 102.714 128.05 102.906C128.05 103.28 128.173 103.541 128.418 103.69C128.674 103.829 129.021 103.898 129.458 103.898ZM129.266 96.9225C129.97 96.9225 130.557 97.0025 131.026 97.1625C131.495 97.3225 131.869 97.5518 132.146 97.8505C132.434 98.1492 132.637 98.5118 132.754 98.9385C132.871 99.3652 132.93 99.8398 132.93 100.362V105.322C132.589 105.397 132.114 105.482 131.506 105.579C130.898 105.685 130.162 105.739 129.298 105.739C128.754 105.739 128.258 105.691 127.81 105.595C127.373 105.498 126.994 105.344 126.674 105.13C126.354 104.906 126.109 104.618 125.938 104.266C125.767 103.914 125.682 103.482 125.682 102.97C125.682 102.48 125.778 102.064 125.97 101.722C126.173 101.381 126.439 101.109 126.77 100.906C127.101 100.704 127.479 100.56 127.906 100.474C128.333 100.378 128.775 100.33 129.234 100.33C129.543 100.33 129.815 100.346 130.05 100.378C130.295 100.4 130.493 100.432 130.642 100.474V100.25C130.642 99.8452 130.519 99.5198 130.274 99.2745C130.029 99.0292 129.602 98.9065 128.994 98.9065C128.589 98.9065 128.189 98.9385 127.794 99.0025C127.399 99.0558 127.058 99.1358 126.77 99.2425L126.466 97.3225C126.605 97.2798 126.775 97.2372 126.978 97.1945C127.191 97.1412 127.421 97.0985 127.666 97.0665C127.911 97.0238 128.167 96.9918 128.434 96.9705C128.711 96.9385 128.989 96.9225 129.266 96.9225Z" fill="#2A7B7B"/>
</g>
<defs>
<clipPath id="clip0">
<rect width="252" height="248" fill="white" transform="translate(0 0.597656)"/>
</clipPath>
</defs>
</svg>
