<?xml version="1.0" encoding="utf-8"?>
<!-- Generator: Adobe Illustrator 22.0.0, SVG Export Plug-In . SVG Version: 6.00 Build 0)  -->
<svg version="1.1" id="Layer_1" xmlns="http://www.w3.org/2000/svg" xmlns:xlink="http://www.w3.org/1999/xlink" x="0px" y="0px"
	 viewBox="0 0 24 24" style="enable-background:new 0 0 24 24;" xml:space="preserve">
<style type="text/css">
	.st0{fill:#6373CF;}
</style>
<g>
	<g>
		<path class="st0" d="M23.8,11.5c-1.4-1.9-3.2-3.6-5.2-4.9L22,3.2c0.3-0.3,0.3-0.9,0-1.2c-0.3-0.3-0.9-0.3-1.2,0c0,0,0,0,0,0
			l-3.7,3.7c-1.6-0.9-3.3-1.3-5.1-1.4c-6.5,0-11.6,6.9-11.8,7.2c-0.2,0.3-0.2,0.7,0,1c1.4,1.9,3.2,3.6,5.2,4.9L2,20.8
			c-0.3,0.3-0.3,0.9,0,1.2c0.3,0.3,0.9,0.3,1.2,0c0,0,0,0,0,0l3.7-3.7c1.6,0.9,3.3,1.3,5.1,1.4c6.5,0,11.6-6.9,11.8-7.2
			C24,12.2,24,11.8,23.8,11.5z M6.6,16.2C4.9,15,3.3,13.6,2,12c1.3-1.5,5.3-6,10-6c1.3,0,2.6,0.3,3.8,0.9l-1.5,1.5
			c-2-1.3-4.6-0.8-5.9,1.2c-0.9,1.4-0.9,3.3,0,4.7L6.6,16.2z M14.3,10.9c0.2,0.3,0.3,0.7,0.3,1.1c0,1.4-1.1,2.6-2.6,2.6
			c-0.4,0-0.8-0.1-1.1-0.3L14.3,10.9z M9.7,13.1c-0.2-0.3-0.3-0.7-0.3-1.1c0-1.4,1.1-2.6,2.6-2.6c0.4,0,0.8,0.1,1.1,0.3L9.7,13.1z
			 M12,18c-1.3,0-2.6-0.3-3.8-0.9l1.5-1.5c2,1.3,4.6,0.8,5.9-1.2c0.9-1.4,0.9-3.3,0-4.7l1.8-1.8C19.1,9,20.7,10.4,22,12
			C20.7,13.5,16.7,18,12,18z"/>
	</g>
</g>
</svg>
