<svg width="13" height="8" viewBox="0 0 13 8" fill="none" xmlns="http://www.w3.org/2000/svg">
<path d="M6.5 7C6.43433 7.00007 6.3693 6.98716 6.30864 6.96202C6.24797 6.93688 6.19287 6.9 6.1465 6.8535L1.14653 1.85353C0.951157 1.65815 0.951157 1.34178 1.14653 1.14653C1.3419 0.951282 1.65828 0.951157 1.85353 1.14653L6.5 5.79301L11.1465 1.14653C11.3419 0.951157 11.6582 0.951157 11.8535 1.14653C12.0487 1.3419 12.0488 1.65828 11.8535 1.85353L6.8535 6.8535C6.80713 6.9 6.75203 6.93688 6.69137 6.96202C6.6307 6.98716 6.56567 7.00007 6.5 7Z" fill="#333333" stroke="#333333"/>
</svg>
