<svg width="19" height="19" viewBox="0 0 19 19" fill="none" xmlns="http://www.w3.org/2000/svg">
<path d="M15.5897 14.4981L13.0795 11.9879C13.845 10.9899 14.2592 9.76702 14.2576 8.50933C14.2576 6.97287 13.6593 5.5289 12.5729 4.44253C12.0401 3.90676 11.4063 3.48199 10.7083 3.19281C10.0102 2.90363 9.26171 2.75579 8.50612 2.75783C6.97004 2.75783 5.52607 3.35617 4.43932 4.44253C2.19731 6.68492 2.19731 10.3337 4.43932 12.5761C4.9721 13.1119 5.60588 13.5367 6.30395 13.8259C7.00202 14.1151 7.75052 14.2629 8.50612 14.2608C9.78096 14.2608 10.9889 13.8432 11.985 13.0824L14.4953 15.593C14.6462 15.7439 14.8443 15.8198 15.0425 15.8198C15.2407 15.8198 15.4388 15.7439 15.5897 15.593C15.6617 15.5211 15.7187 15.4357 15.7576 15.3418C15.7965 15.2479 15.8166 15.1472 15.8166 15.0455C15.8166 14.9438 15.7965 14.8432 15.7576 14.7492C15.7187 14.6553 15.6617 14.57 15.5897 14.4981ZM5.5342 11.4816C3.89517 9.84262 3.89555 7.17605 5.5342 5.53702C5.92368 5.14558 6.38692 4.83526 6.89711 4.62401C7.4073 4.41276 7.95431 4.30477 8.50651 4.3063C9.05864 4.30478 9.6056 4.41277 10.1157 4.62403C10.6259 4.83528 11.089 5.1456 11.4784 5.53702C11.87 5.92645 12.1804 6.38967 12.3917 6.89986C12.603 7.41006 12.7111 7.95711 12.7095 8.50933C12.7095 9.63208 12.2722 10.6875 11.4784 11.4816C10.6847 12.2758 9.62925 12.7124 8.50612 12.7124C7.38376 12.7124 6.32797 12.275 5.53381 11.4816H5.5342Z" fill="#B0B0B0"/>
</svg>
