<svg width="22" height="22" viewBox="0 0 22 22" fill="none" xmlns="http://www.w3.org/2000/svg">
<g opacity="0.7">
<path d="M11 11.6875C10.1842 11.6875 9.38663 11.4456 8.70827 10.9923C8.02992 10.539 7.50121 9.89481 7.189 9.14106C6.87679 8.38732 6.7951 7.55792 6.95426 6.75775C7.11343 5.95758 7.50629 5.22258 8.08319 4.64568C8.66008 4.06879 9.39508 3.67593 10.1953 3.51676C10.9954 3.3576 11.8248 3.43929 12.5786 3.7515C13.3323 4.06371 13.9766 4.59242 14.4298 5.27077C14.8831 5.94912 15.125 6.74665 15.125 7.5625C15.125 8.65651 14.6904 9.70572 13.9168 10.4793C13.1432 11.2529 12.094 11.6875 11 11.6875ZM11 4.8125C10.4561 4.8125 9.92442 4.97378 9.47218 5.27596C9.01995 5.57813 8.66747 6.00762 8.45933 6.51012C8.25119 7.01261 8.19673 7.56555 8.30284 8.09899C8.40895 8.63244 8.67086 9.12244 9.05546 9.50704C9.44005 9.89163 9.93006 10.1535 10.4635 10.2597C10.997 10.3658 11.5499 10.3113 12.0524 10.1032C12.5549 9.89502 12.9844 9.54254 13.2865 9.09031C13.5887 8.63808 13.75 8.10639 13.75 7.5625C13.75 6.83315 13.4603 6.13368 12.9445 5.61795C12.4288 5.10223 11.7293 4.8125 11 4.8125Z" fill="white"/>
<path d="M11 21.3126C9.47543 21.3115 7.97005 20.9725 6.59224 20.3198C5.21442 19.6672 3.99846 18.7172 3.03188 17.5382L2.67438 17.0982L3.03188 16.6651C3.99927 15.4876 5.2156 14.5391 6.59336 13.888C7.97113 13.2368 9.4761 12.899 11 12.899C12.5239 12.899 14.0289 13.2368 15.4066 13.888C16.7844 14.5391 18.0007 15.4876 18.9681 16.6651L19.3256 17.0982L18.9681 17.5382C18.0015 18.7172 16.7856 19.6672 15.4078 20.3198C14.03 20.9725 12.5246 21.3115 11 21.3126ZM4.47563 17.105C5.31179 18.0002 6.32303 18.7139 7.44657 19.2018C8.5701 19.6898 9.78195 19.9416 11.0069 19.9416C12.2318 19.9416 13.4436 19.6898 14.5672 19.2018C15.6907 18.7139 16.702 18.0002 17.5381 17.105C16.702 16.2099 15.6907 15.4962 14.5672 15.0083C13.4436 14.5203 12.2318 14.2685 11.0069 14.2685C9.78195 14.2685 8.5701 14.5203 7.44657 15.0083C6.32303 15.4962 5.31179 16.2099 4.47563 17.105Z" fill="white"/>
<path d="M11 21.3125C8.6575 21.3141 6.38428 20.5181 4.55446 19.0555C2.72465 17.593 1.44728 15.5511 0.932605 13.2658C0.417929 10.9806 0.696613 8.58817 1.72279 6.48241C2.74896 4.37665 4.46148 2.683 6.57847 1.68021C8.69547 0.677425 11.0908 0.425258 13.3702 0.965214C15.6496 1.50517 17.6773 2.80507 19.1195 4.65098C20.5616 6.49688 21.3324 8.77878 21.3049 11.1211C21.2774 13.4634 20.4533 15.7266 18.9681 17.5381C18.0015 18.7171 16.7856 19.6672 15.4078 20.3198C14.0299 20.9725 12.5246 21.3115 11 21.3125ZM11 2.06251C9.23232 2.06251 7.50434 2.58668 6.03458 3.56875C4.56482 4.55081 3.41927 5.94666 2.74281 7.57977C2.06636 9.21289 1.88936 11.0099 2.23422 12.7436C2.57908 14.4773 3.43029 16.0698 4.68022 17.3198C5.93015 18.5697 7.52266 19.4209 9.25637 19.7658C10.9901 20.1106 12.7871 19.9336 14.4202 19.2572C16.0533 18.5807 17.4492 17.4352 18.4312 15.9654C19.4133 14.4957 19.9375 12.7677 19.9375 11C19.9375 8.62964 18.9959 6.35635 17.3198 4.68024C15.6436 3.00413 13.3704 2.06251 11 2.06251Z" fill="white"/>
</g>
</svg>
