<svg width="14" height="10" viewBox="0 0 14 10" fill="none" xmlns="http://www.w3.org/2000/svg">
<path d="M13.9724 1.0592C13.977 0.852724 13.9171 0.649966 13.8011 0.479112C13.6851 0.308258 13.5186 0.177796 13.325 0.105867C13.1314 0.0339378 12.9203 0.0241141 12.7208 0.0777615C12.5214 0.131409 12.3437 0.245862 12.2123 0.405208L7.00372 6.48517L1.79694 0.405207C1.71593 0.29498 1.61307 0.202667 1.49473 0.134049C1.37639 0.0654318 1.24512 0.0219886 1.10921 0.00643956C0.973295 -0.00910952 0.835668 0.0035709 0.704885 0.0436866C0.574101 0.0838023 0.452971 0.150489 0.349155 0.23957C0.245339 0.328652 0.161126 0.43821 0.101612 0.561382C0.0420971 0.684555 0.00867077 0.818689 0.00339695 0.955385C-0.00187783 1.09208 0.0210514 1.22839 0.070898 1.35578C0.120745 1.48318 0.196356 1.5989 0.292999 1.69572L6.24883 8.65672C6.34212 8.76603 6.4579 8.85381 6.5884 8.91401C6.71889 8.9742 6.86093 9.00537 7.00464 9.00537C7.14835 9.00537 7.29038 8.9742 7.42088 8.91401C7.55137 8.85381 7.66728 8.76603 7.76056 8.65672L13.7221 1.69572C13.8783 1.51987 13.9671 1.29433 13.9726 1.0592L13.9724 1.0592Z" fill="#637282"/>
</svg>
