<svg width="23" height="23" viewBox="0 0 23 23" fill="none" xmlns="http://www.w3.org/2000/svg">
<path d="M19.1367 22.2806H3.86328C2.72388 22.2806 1.79688 21.3536 1.79688 20.2142V9.34216C1.79688 8.94523 2.11865 8.62341 2.51562 8.62341C2.9126 8.62341 3.23438 8.94523 3.23438 9.34216V20.2142C3.23438 20.561 3.51648 20.8431 3.86328 20.8431H19.1367C19.4835 20.8431 19.7656 20.561 19.7656 20.2142V9.34216C19.7656 8.94523 20.0874 8.62341 20.4844 8.62341C20.8813 8.62341 21.2031 8.94523 21.2031 9.34216V20.2142C21.2031 21.3536 20.2762 22.2806 19.1367 22.2806Z" fill="white"/>
<path d="M22.2812 11.8575C22.0973 11.8575 21.9134 11.7873 21.773 11.647L12.8341 2.7081C12.0985 1.97246 10.9015 1.97246 10.1659 2.7081L1.22698 11.647C0.946313 11.9277 0.491209 11.9277 0.210538 11.647C-0.0701792 11.3663 -0.0701792 10.9112 0.210538 10.6306L9.14945 1.69161C10.4455 0.395522 12.5545 0.395522 13.8505 1.69161L22.7894 10.6305C23.0702 10.9112 23.0702 11.3663 22.7894 11.647C22.6491 11.7873 22.4652 11.8575 22.2812 11.8575Z" fill="white"/>
<path d="M14.375 22.2805H8.625C8.22803 22.2805 7.90625 21.9587 7.90625 21.5618V15.1829C7.90625 13.9444 8.91385 12.9368 10.1523 12.9368H12.8477C14.0862 12.9368 15.0938 13.9444 15.0938 15.1829V21.5618C15.0938 21.9587 14.772 22.2805 14.375 22.2805ZM9.34375 20.843H13.6562V15.1829C13.6562 14.737 13.2935 14.3743 12.8477 14.3743H10.1523C9.70649 14.3743 9.34375 14.737 9.34375 15.1829V20.843Z" fill="white"/>
</svg>
