<svg width="24" height="24" viewBox="0 0 24 24" fill="none" xmlns="http://www.w3.org/2000/svg">
<g opacity="0.7">
<path d="M16.2188 15.5156H7.78125C5.06726 15.5156 2.85938 17.7235 2.85938 20.4375V23.2969C2.85938 23.6852 3.17413 24 3.5625 24H20.4375C20.8259 24 21.1406 23.6852 21.1406 23.2969V20.4375C21.1406 17.7235 18.9327 15.5156 16.2188 15.5156ZM11.8054 19.7344H12.1946L13.1373 22.5938H10.8627L11.8054 19.7344ZM12.2686 18.3281H11.7314L11.0283 16.9219H12.9717L12.2686 18.3281ZM4.26562 20.4375C4.26562 18.499 5.84271 16.9219 7.78125 16.9219H9.45612L10.5383 19.0864L9.38214 22.5938H4.26562V20.4375ZM19.7344 22.5938H14.6179L13.4617 19.0864L14.5439 16.9219H16.2188C18.1573 16.9219 19.7344 18.499 19.7344 20.4375V22.5938Z" fill="white"/>
<path d="M13.4062 9.84375C13.0179 9.84375 12.7031 10.1585 12.7031 10.5469C12.7031 10.9345 12.3876 11.25 12 11.25C11.6124 11.25 11.2969 10.9345 11.2969 10.5469C11.2969 10.1585 10.9821 9.84375 10.5938 9.84375C10.2054 9.84375 9.89062 10.1585 9.89062 10.5469C9.89062 11.71 10.8369 12.6562 12 12.6562C13.1631 12.6562 14.1094 11.71 14.1094 10.5469C14.1094 10.1585 13.7946 9.84375 13.4062 9.84375Z" fill="white"/>
<path d="M18.3281 5.625H18.2888C17.9379 2.46533 15.2516 0 12 0C8.74841 0 6.06207 2.46533 5.71124 5.625H5.67188C4.12097 5.625 2.85938 6.8866 2.85938 8.4375C2.85938 9.9884 4.12097 11.25 5.67188 11.25H6.09009C6.93127 13.5399 8.95697 15.2549 11.3807 15.486C14.4084 15.7749 17.033 13.9091 17.9672 11.25H18.3281C19.879 11.25 21.1406 9.9884 21.1406 8.4375C21.1406 6.8866 19.879 5.625 18.3281 5.625ZM12 1.40625C14.4752 1.40625 16.5297 3.24298 16.8719 5.625H14.2526C13.5648 5.625 12.9468 5.24323 12.64 4.62964L12.6293 4.60822C12.5105 4.36981 12.2672 4.21912 12.0009 4.21875C12.0005 4.21875 12.0004 4.21875 12 4.21875C11.7339 4.21875 11.4908 4.3689 11.3716 4.60657L11.3604 4.62891C11.0577 5.23389 10.4247 5.625 9.74762 5.625H7.1283C7.47034 3.24298 9.52478 1.40625 12 1.40625ZM5.67188 9.84375C4.89642 9.84375 4.26562 9.21295 4.26562 8.4375C4.26562 7.66205 4.89642 7.03125 5.67188 7.03125V8.89874C5.67188 9.21863 5.6944 9.5343 5.73743 9.84375H5.67188ZM11.5142 14.0861C9.02673 13.8488 7.07812 11.5703 7.07812 8.89874V7.03125H9.74762C10.6099 7.03125 11.4106 6.69379 11.9998 6.11151C12.5891 6.69379 13.3901 7.03125 14.2524 7.03125H16.9219V9.14062C16.9219 11.9786 14.493 14.3703 11.5142 14.0861ZM18.3281 9.84375H18.2886C18.3146 9.61121 18.3281 9.37665 18.3281 9.14062V7.03125C19.1036 7.03125 19.7344 7.66205 19.7344 8.4375C19.7344 9.21295 19.1036 9.84375 18.3281 9.84375Z" fill="white"/>
</g>
</svg>
